<svg width="20" height="20" viewBox="0 0 20 20" fill="none" xmlns="http://www.w3.org/2000/svg">
<mask id="path-1-inside-1_1763_32335" fill="white">
<path fill-rule="evenodd" clip-rule="evenodd" d="M4.28516 2H15.7137V8.85714C15.7137 11.6215 13.7508 13.9274 11.1427 14.457V15.7143H13.4284V18H6.57129V15.7143H8.857V14.4572C6.24852 13.9279 4.28516 11.6218 4.28516 8.85714V2Z"/>
</mask>
<path fill-rule="evenodd" clip-rule="evenodd" d="M4.28516 2H15.7137V8.85714C15.7137 11.6215 13.7508 13.9274 11.1427 14.457V15.7143H13.4284V18H6.57129V15.7143H8.857V14.4572C6.24852 13.9279 4.28516 11.6218 4.28516 8.85714V2Z" fill="#ECC436" fill-opacity="0.62"/>
<path d="M15.7137 2H16.0566V1.65714H15.7137V2ZM4.28516 2V1.65714H3.9423V2H4.28516ZM11.1427 14.457L11.0745 14.121L10.7999 14.1768V14.457H11.1427ZM11.1427 15.7143H10.7999V16.0571H11.1427V15.7143ZM13.4284 15.7143H13.7713V15.3714H13.4284V15.7143ZM13.4284 18V18.3429H13.7713V18H13.4284ZM6.57129 18H6.22843V18.3429H6.57129V18ZM6.57129 15.7143V15.3714H6.22843V15.7143H6.57129ZM8.857 15.7143V16.0571H9.19986V15.7143H8.857ZM8.857 14.4572H9.19986V14.1769L8.92518 14.1212L8.857 14.4572ZM15.7137 1.65714H4.28516V2.34286H15.7137V1.65714ZM16.0566 8.85714V2H15.3709V8.85714H16.0566ZM11.2109 14.793C13.9756 14.2316 16.0566 11.7878 16.0566 8.85714H15.3709C15.3709 11.4553 13.5259 13.6232 11.0745 14.121L11.2109 14.793ZM11.4856 15.7143V14.457H10.7999V15.7143H11.4856ZM13.4284 15.3714H11.1427V16.0571H13.4284V15.3714ZM13.7713 18V15.7143H13.0856V18H13.7713ZM6.57129 18.3429H13.4284V17.6571H6.57129V18.3429ZM6.22843 15.7143V18H6.91415V15.7143H6.22843ZM8.857 15.3714H6.57129V16.0571H8.857V15.3714ZM8.51415 14.4572V15.7143H9.19986V14.4572H8.51415ZM3.9423 8.85714C3.9423 11.7881 6.02369 14.2321 8.78882 14.7932L8.92518 14.1212C6.47335 13.6237 4.62801 11.4555 4.62801 8.85714H3.9423ZM3.9423 2V8.85714H4.62801V2H3.9423Z" fill="black" mask="url(#path-1-inside-1_1763_32335)"/>
<path d="M15.5424 8.5637V8.67516L15.6443 8.72038C15.9115 8.839 16.3816 8.97659 16.8893 9.01686C17.3941 9.0569 17.9659 9.00304 18.4113 8.70641C18.7029 8.51223 18.9069 8.18384 19.0455 7.81458C19.1852 7.44257 19.2655 7.01064 19.2975 6.5842C19.3296 6.1573 19.3137 5.72907 19.257 5.36222C19.2014 5.00232 19.1028 4.67695 18.952 4.47608C18.8113 4.28875 18.5633 4.19885 18.3081 4.1548C18.045 4.10939 17.7329 4.10589 17.4158 4.12565C16.7806 4.16523 16.0937 4.3004 15.6697 4.41333L15.5424 4.44724V4.57898V8.5637Z" stroke="black" stroke-width="0.342857"/>
<path d="M4.45756 8.5637V8.67516L4.35569 8.72038C4.08851 8.839 3.61842 8.97659 3.11068 9.01686C2.60586 9.0569 2.03415 9.00304 1.58872 8.70641C1.29713 8.51223 1.09311 8.18384 0.954484 7.81458C0.814823 7.44257 0.734516 7.01064 0.702498 6.5842C0.670444 6.1573 0.686276 5.72907 0.742985 5.36222C0.798619 5.00232 0.897188 4.67695 1.04801 4.47608C1.18866 4.28875 1.43673 4.19885 1.6919 4.1548C1.955 4.10939 2.26714 4.10589 2.58422 4.12565C3.21938 4.16523 3.9063 4.3004 4.33026 4.41333L4.45756 4.44724V4.57898V8.5637Z" stroke="black" stroke-width="0.342857"/>
<path d="M8.56006 9.46045L9.60742 6.44531H10.1177L8.80176 10H8.43799L8.56006 9.46045ZM7.58105 6.44531L8.61865 9.46045L8.74805 10H8.38428L7.0708 6.44531H7.58105ZM12.4782 9.10156C12.4782 9.01855 12.4652 8.94531 12.4392 8.88184C12.4147 8.81673 12.3708 8.75814 12.3073 8.70605C12.2455 8.65397 12.1592 8.60433 12.0485 8.55713C11.9395 8.50993 11.8011 8.46191 11.6335 8.41309C11.4577 8.361 11.299 8.30322 11.1574 8.23975C11.0158 8.17464 10.8946 8.10059 10.7937 8.01758C10.6927 7.93457 10.6154 7.83936 10.5617 7.73193C10.508 7.62451 10.4812 7.50163 10.4812 7.36328C10.4812 7.22493 10.5096 7.09717 10.5666 6.97998C10.6236 6.86279 10.7049 6.76107 10.8107 6.6748C10.9182 6.58691 11.0459 6.51855 11.194 6.46973C11.3422 6.4209 11.5074 6.39648 11.6896 6.39648C11.9566 6.39648 12.1828 6.44775 12.3684 6.55029C12.5555 6.6512 12.6979 6.78385 12.7956 6.94824C12.8933 7.111 12.9421 7.28516 12.9421 7.4707H12.4733C12.4733 7.33724 12.4449 7.21924 12.3879 7.1167C12.3309 7.01253 12.2447 6.93115 12.1291 6.87256C12.0135 6.81234 11.8671 6.78223 11.6896 6.78223C11.522 6.78223 11.3837 6.80745 11.2746 6.85791C11.1656 6.90837 11.0842 6.97673 11.0305 7.06299C10.9784 7.14925 10.9523 7.24772 10.9523 7.3584C10.9523 7.43327 10.9678 7.50163 10.9987 7.56348C11.0313 7.6237 11.0809 7.67985 11.1477 7.73193C11.216 7.78402 11.3023 7.83203 11.4064 7.87598C11.5122 7.91992 11.6384 7.96224 11.7849 8.00293C11.9867 8.0599 12.1608 8.12337 12.3073 8.19336C12.4538 8.26335 12.5743 8.34229 12.6687 8.43018C12.7647 8.51644 12.8355 8.61491 12.8811 8.72559C12.9283 8.83464 12.9519 8.95833 12.9519 9.09668C12.9519 9.24154 12.9226 9.37256 12.864 9.48975C12.8054 9.60693 12.7215 9.70703 12.6125 9.79004C12.5035 9.87305 12.3724 9.93734 12.2194 9.98291C12.0681 10.0269 11.8988 10.0488 11.7116 10.0488C11.5472 10.0488 11.3853 10.026 11.2258 9.98047C11.0679 9.9349 10.9239 9.86654 10.7937 9.77539C10.6651 9.68424 10.5617 9.57194 10.4836 9.43848C10.4071 9.30339 10.3688 9.14714 10.3688 8.96973H10.8376C10.8376 9.0918 10.8612 9.19678 10.9084 9.28467C10.9556 9.37093 11.0199 9.44255 11.1013 9.49951C11.1843 9.55648 11.2779 9.5988 11.382 9.62646C11.4878 9.65251 11.5977 9.66553 11.7116 9.66553C11.876 9.66553 12.0152 9.64274 12.1291 9.59717C12.243 9.5516 12.3293 9.48649 12.3879 9.40186C12.4481 9.31722 12.4782 9.21712 12.4782 9.10156Z" fill="black"/>
</svg>
