<svg width="20" height="20" viewBox="0 0 20 20" fill="none" xmlns="http://www.w3.org/2000/svg">
<path d="M8.56174 16.7971L7.93528 16.2794L8.40642 15.6426L9.0743 16.1603C9.25736 16.2643 9.47238 16.297 9.67809 16.2522C9.88379 16.2074 10.0657 16.0882 10.1889 15.9175C10.3121 15.7468 10.368 15.5366 10.3457 15.3272C10.3235 15.1179 10.2247 14.9241 10.0684 14.7831L7.89385 13.1885L6.88426 14.5605L7.04476 14.6796L6.57361 15.3164L6.4183 15.2025L5.38281 16.5745L7.55732 18.1691C7.73926 18.3023 7.96667 18.3578 8.1895 18.3233C8.29984 18.3063 8.40572 18.2676 8.50113 18.2096C8.59653 18.1517 8.67959 18.0754 8.74554 17.9854C8.81149 17.8953 8.85904 17.7931 8.8855 17.6846C8.91196 17.5761 8.91679 17.4635 8.89972 17.3532C8.88265 17.2428 8.84403 17.1369 8.78604 17.0415C8.72805 16.9461 8.65183 16.8631 8.56174 16.7971Z" fill="#F9C40B" stroke="#212121" stroke-width="0.3"/>
<g style="mix-blend-mode:multiply">
<g style="mix-blend-mode:multiply">
<path d="M8.72233 13.7839L7.90947 13.1885L6.89989 14.5605L7.06038 14.6796L6.58924 15.3164L6.43392 15.2025L5.39844 16.5745L6.15434 17.1285C6.15434 17.1285 8.19423 14.4052 8.72233 13.7839Z" fill="#FFA114"/>
</g>
</g>
<path d="M5.47085 17.5376C5.40215 17.6321 5.31541 17.7122 5.21563 17.773C5.11584 17.8339 5.00498 17.8744 4.88946 17.8922C4.77394 17.91 4.65605 17.9048 4.54257 17.8768C4.42909 17.8488 4.32226 17.7986 4.22827 17.7291C4.13371 17.6604 4.05368 17.5737 3.99282 17.4739C3.93195 17.3741 3.89143 17.2633 3.87362 17.1478C3.85581 17.0322 3.86105 16.9143 3.88904 16.8008C3.91703 16.6874 3.96723 16.5805 4.03671 16.4866L10.8502 7.20862C10.9898 7.01878 11.199 6.89201 11.4319 6.8561C11.6648 6.8202 11.9025 6.87808 12.0928 7.01706C12.1875 7.08623 12.2676 7.17344 12.3286 7.27367C12.3895 7.3739 12.43 7.48519 12.4478 7.60113C12.4656 7.71707 12.4604 7.83539 12.4323 7.94929C12.4042 8.06318 12.354 8.17041 12.2843 8.26482L5.47085 17.5376Z" fill="#F9C40B" stroke="#212121" stroke-width="0.3"/>
<path d="M15.4474 2.45563C14.9083 2.06008 14.2641 1.83325 13.5961 1.80382C12.9281 1.77438 12.2664 1.94366 11.6947 2.29026C11.1229 2.63685 10.6668 3.1452 10.3839 3.75102C10.101 4.35684 10.0041 5.03294 10.1055 5.69382C10.2068 6.35471 10.5018 6.97071 10.9532 7.46394C11.4046 7.95716 11.9922 8.30547 12.6415 8.46482C13.2908 8.62417 13.9729 8.58741 14.6013 8.35918C15.2298 8.13095 15.7764 7.7215 16.1722 7.18261C16.4351 6.82467 16.6249 6.41845 16.7307 5.98715C16.8365 5.55585 16.8564 5.10792 16.7891 4.66896C16.7217 4.22999 16.5686 3.80859 16.3384 3.42882C16.1082 3.04905 15.8054 2.71836 15.4474 2.45563ZM12.372 6.63898C12.0743 6.42236 11.8476 6.1222 11.7207 5.77657C11.5939 5.43095 11.5725 5.05542 11.6593 4.69764C11.7462 4.33985 11.9373 4.01591 12.2085 3.76691C12.4797 3.51791 12.8188 3.35506 13.1827 3.29902C13.5466 3.24299 13.9189 3.29628 14.2524 3.45215C14.586 3.60801 14.8658 3.85943 15.0562 4.17451C15.2467 4.4896 15.3393 4.85415 15.3223 5.22193C15.3053 5.58972 15.1794 5.94416 14.9607 6.24032C14.6692 6.635 14.2334 6.89842 13.7485 6.9731C13.2635 7.04778 12.7687 6.92768 12.372 6.63898Z" fill="#F9C40B" stroke="#212121" stroke-width="0.3"/>
<g style="mix-blend-mode:multiply">
<path d="M14.666 3.63603C14.5675 3.58543 14.4654 3.54217 14.3606 3.50659C14.4343 3.54655 14.5053 3.59153 14.5728 3.6412C14.8482 3.84334 15.0625 4.11744 15.1923 4.4334C15.3221 4.74937 15.3622 5.09499 15.3084 5.43231C15.2546 5.76962 15.1089 6.08559 14.8873 6.34551C14.6657 6.60542 14.3767 6.79924 14.0521 6.90568C13.7275 7.01212 13.3799 7.02706 13.0474 6.94885C12.7149 6.87065 12.4104 6.70233 12.1673 6.46238C11.9242 6.22243 11.7519 5.92013 11.6693 5.58868C11.5868 5.25722 11.5972 4.90943 11.6994 4.58349C11.5735 4.80755 11.4953 5.05514 11.4694 5.3108C11.4436 5.56647 11.4708 5.82472 11.5492 6.06941C11.9427 7.21362 13.4908 7.57604 14.4796 6.99099C15.6601 6.28686 16.0381 4.36087 14.666 3.63603Z" fill="#FFA114"/>
</g>
<path d="M10.5862 11.3401C10.5252 11.4151 10.4387 11.4651 10.3432 11.4803C10.2477 11.4956 10.1499 11.4752 10.0685 11.423L8.51527 10.315C8.44025 10.254 8.39034 10.1674 8.37506 10.0719C8.35978 9.97643 8.3802 9.87865 8.43243 9.79725C8.46219 9.75549 8.50003 9.72013 8.54371 9.69326C8.58739 9.66639 8.63602 9.64857 8.68672 9.64085C8.73742 9.63312 8.78916 9.63565 8.83886 9.64829C8.88856 9.66093 8.93522 9.68341 8.97607 9.71442L10.4879 10.8224C10.5699 10.8842 10.6245 10.9757 10.64 11.0773C10.6555 11.1789 10.6306 11.2825 10.5707 11.366L10.5862 11.3401Z" fill="#FFA114" stroke="#212121" stroke-width="0.3"/>
<g style="mix-blend-mode:screen">
<path d="M11.3261 3.06651C11.7237 2.7069 12.1905 2.43231 12.698 2.25959C13.2054 2.08687 13.7429 2.01966 14.2772 2.06209C13.5505 1.86991 12.7797 1.93504 12.0955 2.24646C11.4113 2.55788 10.856 3.09639 10.5236 3.77064C10.3843 4.0659 10.3049 4.3858 10.2898 4.7119C10.2747 5.03801 10.3242 5.36388 10.4356 5.67075C10.3767 5.19755 10.4263 4.71716 10.5806 4.26596C10.7349 3.81476 10.9898 3.40459 11.3261 3.06651Z" fill="#FFA114"/>
<path d="M11.3261 3.06651C11.7237 2.7069 12.1905 2.43231 12.698 2.25959C13.2054 2.08687 13.7429 2.01966 14.2772 2.06209C13.5505 1.86991 12.7797 1.93504 12.0955 2.24646C11.4113 2.55788 10.856 3.09639 10.5236 3.77064C10.3843 4.0659 10.3049 4.3858 10.2898 4.7119C10.2747 5.03801 10.3242 5.36388 10.4356 5.67075C10.3767 5.19755 10.4263 4.71716 10.5806 4.26596C10.7349 3.81476 10.9898 3.40459 11.3261 3.06651Z" stroke="#212121" stroke-width="0.3"/>
</g>
</svg>
