<svg width="20" height="20" viewBox="0 0 20 20" fill="none" xmlns="http://www.w3.org/2000/svg">
<path d="M0.915148 17.825L1.03181 18.0167C1.08481 18.1137 1.16324 18.1944 1.25867 18.2502C1.35411 18.306 1.46294 18.3348 1.57348 18.3333H18.4235C18.534 18.3348 18.6429 18.306 18.7383 18.2502C18.8337 18.1944 18.9122 18.1137 18.9651 18.0167L19.0818 17.825M0.915148 17.825L1.04666 17.7529C1.04615 17.7519 1.04565 17.751 1.04515 17.7501M0.915148 17.825C0.8619 17.7279 0.833984 17.619 0.833984 17.5083C0.833984 17.3976 0.8619 17.2887 0.915148 17.1917M0.915148 17.825L1.04328 17.747L1.04515 17.7501M1.04515 17.7501L1.15994 17.9387L1.1636 17.9447L1.16346 17.9448C1.20338 18.0179 1.26247 18.0787 1.33438 18.1207C1.40628 18.1628 1.48828 18.1844 1.57156 18.1833L1.57348 18.1833L18.4235 18.1833H18.4254C18.5087 18.1844 18.5907 18.1628 18.6626 18.1207C18.7345 18.0787 18.7936 18.0179 18.8335 17.9448L18.8369 17.9386L18.837 17.9387L18.9518 17.7501M1.04515 17.7501C1.00501 17.6758 0.983984 17.5928 0.983984 17.5083C0.983984 17.4235 1.00521 17.34 1.04571 17.2655M18.9518 17.7501C18.9513 17.751 18.9508 17.7519 18.9503 17.7529L19.0818 17.825M18.9518 17.7501L18.9537 17.747L19.0818 17.825M18.9518 17.7501C18.992 17.6758 19.013 17.5928 19.013 17.5083C19.013 17.4235 18.9917 17.34 18.9512 17.2655M19.0818 17.825C19.1351 17.7279 19.163 17.619 19.163 17.5083C19.163 17.3976 19.1351 17.2887 19.0818 17.1917M19.0818 17.1917L18.9523 17.2674L18.9512 17.2655M19.0818 17.1917L10.6735 2.80833M19.0818 17.1917L18.9503 17.2638C18.9506 17.2644 18.9509 17.2649 18.9512 17.2655M18.9512 17.2655L10.5447 2.88531L10.6735 2.80833M10.6735 2.80833L10.544 2.88404L10.5444 2.88475C10.5017 2.81347 10.4412 2.75441 10.369 2.71328L10.4431 2.58304L10.369 2.71328C10.2966 2.67209 10.2148 2.65029 10.1316 2.65M10.6735 2.80833C10.6174 2.7146 10.5381 2.63695 10.4432 2.58292C10.3483 2.5289 10.241 2.50033 10.1318 2.5M10.1318 2.5H9.88181M10.1318 2.5L10.1314 2.65C10.1314 2.65 10.1315 2.65 10.1316 2.65M10.1318 2.5V2.65H10.1316M9.88181 2.5C9.77261 2.50033 9.66534 2.5289 9.57043 2.58292C9.47552 2.63695 9.39619 2.7146 9.34015 2.80833M9.88181 2.5V2.65H9.88206M9.88181 2.5L9.88227 2.65C9.8822 2.65 9.88213 2.65 9.88206 2.65M9.34015 2.80833L0.915148 17.1917M9.34015 2.80833L9.46889 2.88531L1.04571 17.2655M9.34015 2.80833L9.46958 2.88415L9.46921 2.88477C9.51196 2.81348 9.57238 2.75441 9.64463 2.71328L9.5705 2.58304L9.64463 2.71328C9.717 2.67209 9.79879 2.65029 9.88206 2.65M0.915148 17.1917L1.04665 17.2638C1.04634 17.2644 1.04603 17.265 1.04571 17.2655M0.915148 17.1917L1.04458 17.2675L1.04571 17.2655M9.88206 2.65H10.1316M8.86629 8.81849L8.86623 8.81801C8.85657 8.73808 8.86405 8.65702 8.88817 8.58022C8.91228 8.50342 8.95249 8.43263 9.00611 8.37258C9.05972 8.31253 9.12552 8.26459 9.19911 8.23196C9.27253 8.19941 9.35202 8.18283 9.43233 8.18333M8.86629 8.81849L9.43182 8.33333M8.86629 8.81849L9.19957 11.5013L8.86629 8.81849ZM9.43233 8.18333C9.43252 8.18333 9.43271 8.18334 9.4329 8.18334L9.43182 8.33333M9.43233 8.18333H9.43182V8.33333M9.43233 8.18333H10.5646M9.43182 8.33333H10.5651M10.5646 8.18333C10.5644 8.18333 10.5643 8.18334 10.5641 8.18334L10.5651 8.33333M10.5646 8.18333H10.5651V8.33333M10.5646 8.18333C10.6449 8.18283 10.7244 8.19941 10.7979 8.23196C10.8714 8.26459 10.9372 8.31253 10.9909 8.37258C11.0445 8.43263 11.0847 8.50342 11.1088 8.58022C11.1329 8.65702 11.1404 8.73808 11.1307 8.81801L11.1307 8.81849L10.7974 11.5013L10.5651 8.33333M10.4397 11.8167C10.5275 11.8172 10.6124 11.7854 10.6784 11.7273C10.7443 11.6693 10.7867 11.589 10.7973 11.5018L9.55682 11.6667M10.4397 11.8167C10.4395 11.8167 10.4393 11.8167 10.4391 11.8167L10.4401 11.6667V11.8167H10.4397ZM10.4397 11.8167H9.5573M9.5573 11.8167C9.5575 11.8167 9.5577 11.8167 9.5579 11.8167L9.55682 11.6667M9.5573 11.8167H9.55682V11.6667M9.5573 11.8167C9.46948 11.8172 9.38453 11.7854 9.31859 11.7273C9.25262 11.6693 9.21029 11.589 9.19963 11.5018L9.55682 11.6667M10.8158 14.984C10.9221 14.8778 10.9818 14.7336 10.9818 14.5833V13.75C10.9818 13.5997 10.9221 13.4556 10.8158 13.3493C10.7096 13.243 10.5654 13.1833 10.4151 13.1833H9.58181C9.43153 13.1833 9.28739 13.243 9.18112 13.3493C9.07485 13.4556 9.01515 13.5997 9.01515 13.75V14.5833C9.01515 14.7336 9.07485 14.8778 9.18112 14.984C9.28739 15.0903 9.43153 15.15 9.58181 15.15H10.4151C10.5654 15.15 10.7096 15.0903 10.8158 14.984Z" fill="#EC4F4A" fill-opacity="0.8" stroke="#212121" stroke-width="0.3"/>
</svg>
