<svg width="20" height="20" viewBox="0 0 20 20" fill="none" xmlns="http://www.w3.org/2000/svg">
<mask id="path-1-inside-1_2006_15506" fill="white">
<path fill-rule="evenodd" clip-rule="evenodd" d="M9.56451 2.61987C9.75696 2.28654 10.2381 2.28654 10.4305 2.61987L18.6578 16.8699C18.8502 17.2032 18.6097 17.6199 18.2248 17.6199H1.77028C1.38538 17.6199 1.14481 17.2032 1.33726 16.8699L9.56451 2.61987ZM9.34713 14.1699C9.34713 14.0042 9.48144 13.8699 9.64713 13.8699H10.3471C10.5128 13.8699 10.6471 14.0042 10.6471 14.1699V14.8699C10.6471 15.0356 10.5128 15.1699 10.3471 15.1699H9.64713C9.48144 15.1699 9.34713 15.0356 9.34713 14.8699V14.1699ZM9.32356 8.86987C9.14805 8.86987 9.01002 9.01988 9.02459 9.19479L9.30793 12.5948C9.32088 12.7503 9.45086 12.8699 9.60689 12.8699H10.3881C10.5442 12.8699 10.6742 12.7503 10.6871 12.5948L10.9704 9.19479C10.985 9.01988 10.847 8.86987 10.6715 8.86987H9.32356Z"/>
</mask>
<path fill-rule="evenodd" clip-rule="evenodd" d="M9.56451 2.61987C9.75696 2.28654 10.2381 2.28654 10.4305 2.61987L18.6578 16.8699C18.8502 17.2032 18.6097 17.6199 18.2248 17.6199H1.77028C1.38538 17.6199 1.14481 17.2032 1.33726 16.8699L9.56451 2.61987ZM9.34713 14.1699C9.34713 14.0042 9.48144 13.8699 9.64713 13.8699H10.3471C10.5128 13.8699 10.6471 14.0042 10.6471 14.1699V14.8699C10.6471 15.0356 10.5128 15.1699 10.3471 15.1699H9.64713C9.48144 15.1699 9.34713 15.0356 9.34713 14.8699V14.1699ZM9.32356 8.86987C9.14805 8.86987 9.01002 9.01988 9.02459 9.19479L9.30793 12.5948C9.32088 12.7503 9.45086 12.8699 9.60689 12.8699H10.3881C10.5442 12.8699 10.6742 12.7503 10.6871 12.5948L10.9704 9.19479C10.985 9.01988 10.847 8.86987 10.6715 8.86987H9.32356Z" fill="#EC4F4A" fill-opacity="0.8"/>
<path d="M10.4305 2.61987L10.6903 2.46987L10.6903 2.46987L10.4305 2.61987ZM9.56451 2.61987L9.82431 2.76987L9.82431 2.76987L9.56451 2.61987ZM18.6578 16.8699L18.398 17.0199L18.398 17.0199L18.6578 16.8699ZM1.33726 16.8699L1.59707 17.0199L1.59707 17.0199L1.33726 16.8699ZM9.02459 9.19479L9.32356 9.16987L9.32356 9.16987L9.02459 9.19479ZM9.30793 12.5948L9.00896 12.6197L9.00896 12.6197L9.30793 12.5948ZM10.6871 12.5948L10.9861 12.6197L10.9861 12.6197L10.6871 12.5948ZM10.9704 9.19479L10.6715 9.16987L10.6715 9.16987L10.9704 9.19479ZM10.6903 2.46987C10.3824 1.93654 9.61262 1.93654 9.3047 2.46987L9.82431 2.76987C9.90129 2.63654 10.0937 2.63654 10.1707 2.76987L10.6903 2.46987ZM18.9176 16.7199L10.6903 2.46987L10.1707 2.76987L18.398 17.0199L18.9176 16.7199ZM18.2248 17.9199C18.8406 17.9199 19.2255 17.2532 18.9176 16.7199L18.398 17.0199C18.4749 17.1532 18.3787 17.3199 18.2248 17.3199V17.9199ZM1.77028 17.9199H18.2248V17.3199H1.77028V17.9199ZM1.07746 16.7199C0.769536 17.2532 1.15444 17.9199 1.77028 17.9199V17.3199C1.61632 17.3199 1.52009 17.1532 1.59707 17.0199L1.07746 16.7199ZM9.3047 2.46987L1.07746 16.7199L1.59707 17.0199L9.82431 2.76987L9.3047 2.46987ZM9.64713 13.5699C9.31576 13.5699 9.04713 13.8385 9.04713 14.1699H9.64713L9.64713 14.1699V13.5699ZM10.3471 13.5699H9.64713V14.1699H10.3471V13.5699ZM10.9471 14.1699C10.9471 13.8385 10.6785 13.5699 10.3471 13.5699V14.1699L10.3471 14.1699H10.9471ZM10.9471 14.8699V14.1699H10.3471V14.8699H10.9471ZM10.3471 15.4699C10.6785 15.4699 10.9471 15.2012 10.9471 14.8699H10.3471L10.3471 14.8699V15.4699ZM9.64713 15.4699H10.3471V14.8699H9.64713V15.4699ZM9.04713 14.8699C9.04713 15.2012 9.31576 15.4699 9.64713 15.4699V14.8699L9.64713 14.8699H9.04713ZM9.04713 14.1699V14.8699H9.64713V14.1699H9.04713ZM9.32356 9.16987L9.32356 9.16987V8.56987C8.97253 8.56987 8.69648 8.86989 8.72563 9.2197L9.32356 9.16987ZM9.60689 12.5699L9.32356 9.16987L8.72563 9.2197L9.00896 12.6197L9.60689 12.5699ZM9.60689 12.5699L9.60689 12.5699L9.00896 12.6197C9.03488 12.9307 9.29484 13.1699 9.60689 13.1699V12.5699ZM10.3881 12.5699H9.60689V13.1699H10.3881V12.5699ZM10.3881 12.5699L10.3881 12.5699V13.1699C10.7002 13.1699 10.9602 12.9307 10.9861 12.6197L10.3881 12.5699ZM10.6715 9.16987L10.3881 12.5699L10.9861 12.6197L11.2694 9.2197L10.6715 9.16987ZM10.6715 9.16987L10.6715 9.16987L11.2694 9.2197C11.2986 8.86989 11.0225 8.56987 10.6715 8.56987V9.16987ZM9.32356 9.16987H10.6715V8.56987H9.32356V9.16987Z" fill="black" mask="url(#path-1-inside-1_2006_15506)"/>
</svg>
