<svg width="11" height="9" viewBox="0 0 11 9" fill="none" xmlns="http://www.w3.org/2000/svg">
<path className="main" d="M9.24769 0.33088L3.32823 7.02084H4.7841L2.12167 4.00281C1.99842 3.86033 1.87236 3.72105 1.74864 3.57751C1.36809 3.14742 0.666735 3.11499 0.292771 3.57751C-0.0811931 4.04002 -0.11365 4.7609 0.292771 5.22288L2.95521 8.24091C3.07892 8.38339 3.20499 8.52267 3.32823 8.66621C3.52322 8.88026 3.78434 9 4.05617 9C4.328 9 4.58912 8.88026 4.7841 8.66621L10.7036 1.97626C11.0846 1.54617 11.1128 0.753521 10.7036 0.33088C10.2943 -0.0917616 9.65411 -0.128444 9.24769 0.33088Z" fill="#E5E5E5"/>
</svg>
