<svg width="18" height="18" viewBox="0 0 18 18" fill="none" xmlns="http://www.w3.org/2000/svg">
<path d="M7.70552 15.1169L7.1417 14.651L7.56573 14.0778L8.16682 14.5438C8.33157 14.6374 8.52509 14.6668 8.71023 14.6265C8.89536 14.5862 9.05909 14.4789 9.16998 14.3253C9.28088 14.1716 9.33113 13.9824 9.3111 13.794C9.29108 13.6056 9.20219 13.4312 9.06148 13.3043L7.10441 11.8691L6.19579 13.104L6.34023 13.2111L5.9162 13.7843L5.77642 13.6818L4.84448 14.9166L6.80154 16.3517C6.96528 16.4716 7.16995 16.5215 7.3705 16.4905C7.4698 16.4752 7.5651 16.4404 7.65097 16.3882C7.73683 16.336 7.81158 16.2674 7.87094 16.1863C7.93029 16.1053 7.97309 16.0133 7.9969 15.9157C8.02071 15.818 8.02506 15.7167 8.0097 15.6174C7.99434 15.5181 7.95958 15.4228 7.90739 15.3369C7.85519 15.251 7.78659 15.1763 7.70552 15.1169Z" fill="#F9C40B" stroke="#212121" stroke-width="0.2"/>
<g style="mix-blend-mode:multiply">
<g style="mix-blend-mode:multiply">
<path d="M7.8499 12.405L7.11833 11.8691L6.2097 13.104L6.35415 13.2111L5.93012 13.7843L5.79033 13.6818L4.8584 14.9166L5.53871 15.4152C5.53871 15.4152 7.37461 12.9642 7.8499 12.405Z" fill="#FFA114"/>
</g>
</g>
<path d="M4.92362 15.7838C4.86179 15.8689 4.78372 15.9409 4.69392 15.9957C4.60411 16.0505 4.50434 16.087 4.40037 16.103C4.2964 16.119 4.1903 16.1143 4.08817 16.0891C3.98603 16.0639 3.88989 16.0188 3.8053 15.9562C3.72019 15.8944 3.64817 15.8163 3.59339 15.7265C3.53861 15.6367 3.50214 15.5369 3.48611 15.433C3.47008 15.329 3.4748 15.2229 3.49999 15.1208C3.52518 15.0186 3.57036 14.9225 3.63289 14.8379L9.76502 6.48776C9.89068 6.3169 10.0789 6.20281 10.2886 6.17049C10.4982 6.13818 10.7121 6.19027 10.8833 6.31535C10.9686 6.37761 11.0407 6.45609 11.0956 6.5463C11.1504 6.63651 11.1869 6.73667 11.2029 6.84102C11.2189 6.94536 11.2142 7.05185 11.1889 7.15436C11.1637 7.25686 11.1184 7.35337 11.0557 7.43834L4.92362 15.7838Z" fill="#F9C40B" stroke="#212121" stroke-width="0.2"/>
<path d="M13.9027 2.2097C13.4175 1.85371 12.8377 1.64956 12.2365 1.62307C11.6354 1.59658 11.0399 1.74893 10.5253 2.06087C10.0107 2.3728 9.60015 2.83031 9.34556 3.37555C9.09097 3.92079 9.00376 4.52928 9.09497 5.12408C9.18618 5.71887 9.45169 6.27327 9.85796 6.71718C10.2642 7.16108 10.793 7.47456 11.3774 7.61797C11.9618 7.76139 12.5756 7.7283 13.1412 7.5229C13.7068 7.31749 14.1988 6.94899 14.555 6.46398C14.7916 6.14184 14.9624 5.77624 15.0577 5.38807C15.1529 4.9999 15.1708 4.59677 15.1102 4.2017C15.0496 3.80663 14.9118 3.42736 14.7046 3.08557C14.4974 2.74378 14.2249 2.44615 13.9027 2.2097ZM11.1348 5.97472C10.8669 5.77976 10.6629 5.50961 10.5487 5.19855C10.4345 4.88748 10.4153 4.54952 10.4934 4.22751C10.5716 3.9055 10.7436 3.61395 10.9877 3.38985C11.2318 3.16575 11.537 3.01919 11.8645 2.96876C12.192 2.91832 12.527 2.96628 12.8272 3.10657C13.1274 3.24685 13.3792 3.47312 13.5507 3.7567C13.7221 4.04027 13.8054 4.36837 13.7901 4.69937C13.7748 5.03038 13.6615 5.34938 13.4647 5.61592C13.2023 5.97114 12.8101 6.20821 12.3737 6.27542C11.9372 6.34264 11.4919 6.23454 11.1348 5.97472Z" fill="#F9C40B" stroke="#212121" stroke-width="0.2"/>
<g style="mix-blend-mode:multiply">
<path d="M13.1992 3.27177C13.1105 3.22623 13.0186 3.18729 12.9243 3.15527C12.9906 3.19124 13.0545 3.23172 13.1153 3.27642C13.3631 3.45834 13.556 3.70503 13.6728 3.98941C13.7896 4.27378 13.8258 4.58483 13.7774 4.88842C13.7289 5.192 13.5978 5.47637 13.3983 5.7103C13.1989 5.94422 12.9388 6.11866 12.6467 6.21445C12.3545 6.31024 12.0417 6.32369 11.7424 6.25331C11.4432 6.18293 11.1691 6.03144 10.9503 5.81549C10.7315 5.59953 10.5764 5.32746 10.5022 5.02915C10.4279 4.73084 10.4372 4.41783 10.5292 4.12448C10.4159 4.32613 10.3455 4.54897 10.3222 4.77907C10.299 5.00916 10.3234 5.24159 10.3941 5.46181C10.7482 6.4916 12.1414 6.81778 13.0314 6.29123C14.0938 5.65752 14.434 3.92412 13.1992 3.27177Z" fill="#FFA114"/>
</g>
<path d="M9.52747 10.2061C9.47254 10.2737 9.39466 10.3186 9.30871 10.3323C9.22276 10.3461 9.13476 10.3277 9.0615 10.2807L7.6636 9.28352C7.59608 9.22859 7.55116 9.15071 7.53741 9.06476C7.52366 8.97881 7.54203 8.89081 7.58904 8.81755C7.61583 8.77997 7.64988 8.74814 7.6892 8.72396C7.72851 8.69978 7.77228 8.68374 7.8179 8.67679C7.86353 8.66983 7.9101 8.67211 7.95483 8.68348C7.99956 8.69486 8.04155 8.7151 8.07832 8.743L9.43893 9.74017C9.51279 9.79584 9.56193 9.87819 9.57586 9.96962C9.58979 10.061 9.56741 10.1543 9.51349 10.2294L9.52747 10.2061Z" fill="#FFA114" stroke="#212121" stroke-width="0.2"/>
<g style="mix-blend-mode:screen">
<path d="M10.1936 2.7592C10.5514 2.43555 10.9716 2.18842 11.4283 2.03297C11.885 1.87752 12.3687 1.81704 12.8497 1.85523C12.1956 1.68226 11.5019 1.74088 10.8861 2.02115C10.2703 2.30143 9.77052 2.78609 9.4714 3.39292C9.34606 3.65865 9.27453 3.94656 9.26093 4.24005C9.24734 4.53355 9.29194 4.82684 9.39218 5.10302C9.3392 4.67714 9.38384 4.24479 9.5227 3.83871C9.66155 3.43263 9.89099 3.06347 10.1936 2.7592Z" fill="#FFA114"/>
<path d="M10.1936 2.7592C10.5514 2.43555 10.9716 2.18842 11.4283 2.03297C11.885 1.87752 12.3687 1.81704 12.8497 1.85523C12.1956 1.68226 11.5019 1.74088 10.8861 2.02115C10.2703 2.30143 9.77052 2.78609 9.4714 3.39292C9.34606 3.65865 9.27453 3.94656 9.26093 4.24005C9.24734 4.53355 9.29194 4.82684 9.39218 5.10302C9.3392 4.67714 9.38384 4.24479 9.5227 3.83871C9.66155 3.43263 9.89099 3.06347 10.1936 2.7592Z" stroke="#212121" stroke-width="0.2"/>
</g>
</svg>
