<svg width="18" height="18" viewBox="0 0 18 18" fill="none" xmlns="http://www.w3.org/2000/svg">
<path d="M7.70552 15.1169L7.1417 14.651L7.56573 14.0778L8.16682 14.5438C8.33157 14.6374 8.52509 14.6668 8.71023 14.6265C8.89536 14.5862 9.05909 14.4789 9.16998 14.3253C9.28088 14.1716 9.33113 13.9824 9.3111 13.794C9.29108 13.6056 9.20219 13.4312 9.06148 13.3043L7.10441 11.8691L6.19579 13.104L6.34023 13.2111L5.9162 13.7843L5.77642 13.6818L4.84448 14.9166L6.80154 16.3517C6.96528 16.4716 7.16995 16.5215 7.3705 16.4905C7.4698 16.4752 7.5651 16.4404 7.65097 16.3882C7.73683 16.336 7.81158 16.2674 7.87094 16.1863C7.93029 16.1053 7.97309 16.0133 7.9969 15.9157C8.02071 15.818 8.02506 15.7167 8.0097 15.6174C7.99434 15.5181 7.95958 15.4228 7.90739 15.3369C7.85519 15.251 7.78659 15.1763 7.70552 15.1169Z" fill="#EFA239" stroke="#212121" stroke-width="0.5"/>
<g style="mix-blend-mode:multiply">
<g style="mix-blend-mode:multiply">
<path d="M7.8499 12.405L7.11833 11.8691L6.2097 13.104L6.35415 13.2111L5.93012 13.7843L5.79033 13.6818L4.8584 14.9166L5.53871 15.4152C5.53871 15.4152 7.37461 12.9642 7.8499 12.405Z" fill="#F4C23C"/>
</g>
</g>
<path d="M4.92362 15.7838C4.86179 15.8689 4.78372 15.9409 4.69392 15.9957C4.60411 16.0505 4.50434 16.087 4.40037 16.103C4.2964 16.119 4.1903 16.1143 4.08817 16.0891C3.98603 16.0639 3.88989 16.0188 3.8053 15.9562C3.72019 15.8944 3.64817 15.8163 3.59339 15.7265C3.53861 15.6367 3.50214 15.5369 3.48611 15.433C3.47008 15.329 3.4748 15.2229 3.49999 15.1208C3.52518 15.0186 3.57036 14.9225 3.63289 14.8379L9.76502 6.48776C9.89068 6.3169 10.0789 6.20281 10.2886 6.17049C10.4982 6.13818 10.7121 6.19027 10.8833 6.31535C10.9686 6.37761 11.0407 6.45609 11.0956 6.5463C11.1504 6.63651 11.1869 6.73667 11.2029 6.84102C11.2189 6.94536 11.2142 7.05185 11.1889 7.15436C11.1637 7.25686 11.1184 7.35337 11.0557 7.43834L4.92362 15.7838Z" fill="#EFA239" stroke="#212121" stroke-width="0.5"/>
<g style="mix-blend-mode:screen">
<path d="M4.54148 15.5084C4.46846 15.6028 4.36204 15.6655 4.24414 15.6837C4.12624 15.7019 4.00585 15.6742 3.90777 15.6063C3.81344 15.5333 3.75071 15.4268 3.73251 15.3089C3.7143 15.191 3.74201 15.0707 3.80992 14.9726L7.28604 10.2383C7.35907 10.144 7.46548 10.0813 7.58338 10.0631C7.70128 10.0449 7.82167 10.0726 7.91975 10.1405C8.01408 10.2135 8.07681 10.3199 8.09501 10.4378C8.11322 10.5557 8.08552 10.6761 8.01761 10.7742L4.54148 15.5084Z" fill="#F4C23C"/>
<path d="M4.54148 15.5084C4.46846 15.6028 4.36204 15.6655 4.24414 15.6837C4.12624 15.7019 4.00585 15.6742 3.90777 15.6063C3.81344 15.5333 3.75071 15.4268 3.73251 15.3089C3.7143 15.191 3.74201 15.0707 3.80992 14.9726L7.28604 10.2383C7.35907 10.144 7.46548 10.0813 7.58338 10.0631C7.70128 10.0449 7.82167 10.0726 7.91975 10.1405C8.01408 10.2135 8.07681 10.3199 8.09501 10.4378C8.11322 10.5557 8.08552 10.6761 8.01761 10.7742L4.54148 15.5084Z" stroke="#212121" stroke-width="0.5"/>
</g>
<g style="mix-blend-mode:screen">
<path d="M9.77425 6.86523L8.7398 8.26314C8.68709 8.30891 8.64534 8.36593 8.61763 8.43C8.58992 8.49408 8.57696 8.56355 8.57971 8.63331C8.58245 8.70306 8.60084 8.7713 8.6335 8.833C8.66616 8.89469 8.71226 8.94826 8.76841 8.98974C8.82455 9.03122 8.88931 9.05956 8.95788 9.07266C9.02645 9.08576 9.09707 9.08329 9.16456 9.06542C9.23204 9.04756 9.29465 9.01476 9.34775 8.96946C9.40086 8.92415 9.4431 8.86749 9.47137 8.80366L10.4499 7.47099C10.1984 7.30047 9.97112 7.0967 9.77425 6.86523Z" fill="#F4C23C"/>
<path d="M9.77425 6.86523L8.7398 8.26314C8.68709 8.30891 8.64534 8.36593 8.61763 8.43C8.58992 8.49408 8.57696 8.56355 8.57971 8.63331C8.58245 8.70306 8.60084 8.7713 8.6335 8.833C8.66616 8.89469 8.71226 8.94826 8.76841 8.98974C8.82455 9.03122 8.88931 9.05956 8.95788 9.07266C9.02645 9.08576 9.09707 9.08329 9.16456 9.06542C9.23204 9.04756 9.29465 9.01476 9.34775 8.96946C9.40086 8.92415 9.4431 8.86749 9.47137 8.80366L10.4499 7.47099C10.1984 7.30047 9.97112 7.0967 9.77425 6.86523Z" stroke="#212121" stroke-width="0.5"/>
</g>
<path d="M13.9027 2.2097C13.4175 1.85371 12.8377 1.64956 12.2365 1.62307C11.6354 1.59658 11.0399 1.74893 10.5253 2.06087C10.0107 2.3728 9.60015 2.83031 9.34556 3.37555C9.09097 3.92079 9.00376 4.52928 9.09497 5.12408C9.18618 5.71887 9.45169 6.27327 9.85796 6.71718C10.2642 7.16108 10.793 7.47456 11.3774 7.61797C11.9618 7.76139 12.5756 7.7283 13.1412 7.5229C13.7068 7.31749 14.1988 6.94899 14.555 6.46398C14.7916 6.14184 14.9624 5.77624 15.0577 5.38807C15.1529 4.9999 15.1708 4.59677 15.1102 4.2017C15.0496 3.80663 14.9118 3.42736 14.7046 3.08557C14.4974 2.74378 14.2249 2.44615 13.9027 2.2097ZM11.1348 5.97472C10.8669 5.77976 10.6629 5.50961 10.5487 5.19855C10.4345 4.88748 10.4153 4.54952 10.4934 4.22751C10.5716 3.9055 10.7436 3.61395 10.9877 3.38985C11.2318 3.16575 11.537 3.01919 11.8645 2.96876C12.192 2.91832 12.527 2.96628 12.8272 3.10657C13.1274 3.24685 13.3792 3.47312 13.5507 3.7567C13.7221 4.04027 13.8054 4.36837 13.7901 4.69937C13.7748 5.03038 13.6615 5.34938 13.4647 5.61592C13.2023 5.97114 12.8101 6.20821 12.3737 6.27542C11.9372 6.34264 11.4919 6.23454 11.1348 5.97472Z" fill="#EFA239" stroke="#212121" stroke-width="0.5"/>
<g style="mix-blend-mode:multiply">
<path d="M14.1871 2.46094C14.2318 2.5819 14.2445 2.71234 14.2241 2.83966C14.2037 2.96699 14.1508 3.08691 14.0706 3.18785C13.9401 3.36957 13.7491 3.25308 13.6046 3.14125C13.1375 2.71952 12.5232 2.49857 11.8945 2.52617C11.3797 2.56807 10.8968 2.79252 10.5328 3.15904C10.1688 3.52557 9.94778 4.01006 9.90949 4.52517C9.8753 4.94872 9.93811 5.37448 10.0931 5.77012C10.2482 6.16575 10.4913 6.52085 10.8041 6.80841C10.8153 6.81942 10.8225 6.83385 10.8244 6.8494C10.8264 6.86495 10.8231 6.88071 10.815 6.89415C10.8069 6.90758 10.7946 6.91792 10.78 6.9235C10.7653 6.92908 10.7492 6.92957 10.7343 6.92491C10.2959 6.74806 9.90956 6.46296 9.61131 6.09626C9.31306 5.72956 9.11265 5.29323 9.02881 4.82805C9.05896 5.32147 9.20887 5.80011 9.46558 6.22257C9.72229 6.64503 10.0781 6.99859 10.5021 7.25265C10.9262 7.50671 11.4057 7.65362 11.8993 7.68069C12.3929 7.70775 12.8857 7.61414 13.335 7.40796C13.7843 7.20178 14.1766 6.88924 14.4779 6.49738C14.7793 6.10552 14.9806 5.64613 15.0645 5.15897C15.1484 4.6718 15.1124 4.17153 14.9595 3.70142C14.8066 3.23132 14.5415 2.80555 14.1871 2.46094ZM13.4555 5.61088C13.2605 5.87881 12.9904 6.08281 12.6793 6.197C12.3683 6.31118 12.0303 6.33042 11.7083 6.25226C11.3863 6.1741 11.0947 6.00207 10.8706 5.75798C10.6465 5.51389 10.5 5.20875 10.4495 4.88125C10.3991 4.55375 10.4471 4.21865 10.5874 3.91845C10.7276 3.61825 10.9539 3.36647 11.2375 3.19505C11.5211 3.02363 11.8492 2.94029 12.1802 2.9556C12.5112 2.97091 12.8302 3.08418 13.0967 3.28104C13.4562 3.54067 13.6979 3.93241 13.7687 4.37016C13.8394 4.80791 13.7335 5.25585 13.4741 5.61554L13.4555 5.61088Z" fill="#F4C23C"/>
</g>
<g style="mix-blend-mode:multiply">
<path d="M13.1992 3.27177C13.1105 3.22623 13.0186 3.18729 12.9243 3.15527C12.9906 3.19124 13.0545 3.23172 13.1153 3.27642C13.3631 3.45834 13.556 3.70503 13.6728 3.98941C13.7896 4.27378 13.8258 4.58483 13.7774 4.88842C13.7289 5.192 13.5978 5.47637 13.3983 5.7103C13.1989 5.94422 12.9388 6.11866 12.6467 6.21445C12.3545 6.31024 12.0417 6.32369 11.7424 6.25331C11.4432 6.18293 11.1691 6.03144 10.9503 5.81549C10.7315 5.59953 10.5764 5.32746 10.5022 5.02915C10.4279 4.73084 10.4372 4.41783 10.5292 4.12448C10.4159 4.32613 10.3455 4.54897 10.3222 4.77907C10.299 5.00916 10.3234 5.24159 10.3941 5.46181C10.7482 6.4916 12.1414 6.81778 13.0314 6.29123C14.0938 5.65752 14.434 3.92412 13.1992 3.27177Z" fill="#F4C23C"/>
</g>
<path d="M9.52747 10.2061C9.47254 10.2737 9.39466 10.3186 9.30871 10.3323C9.22276 10.3461 9.13476 10.3277 9.0615 10.2807L7.6636 9.28352C7.59608 9.22859 7.55116 9.15071 7.53741 9.06476C7.52366 8.97881 7.54203 8.89081 7.58904 8.81755C7.61583 8.77997 7.64988 8.74814 7.6892 8.72396C7.72851 8.69978 7.77228 8.68374 7.8179 8.67679C7.86353 8.66983 7.9101 8.67211 7.95483 8.68348C7.99956 8.69486 8.04155 8.7151 8.07832 8.743L9.43893 9.74017C9.51279 9.79584 9.56193 9.87819 9.57586 9.96962C9.58979 10.061 9.56741 10.1543 9.51349 10.2294L9.52747 10.2061Z" fill="#F4C23C" stroke="#212121" stroke-width="0.5"/>
<path d="M14.3549 4.20419C14.1685 4.29738 14.1359 4.76335 14.1406 4.94974C14.1739 5.30844 14.0675 5.66616 13.8436 5.94831C13.6196 6.23046 13.2953 6.41524 12.9384 6.46413C12.1369 6.53869 12.1323 6.96272 12.6914 7.06989C13.9402 7.30753 14.7696 5.89565 14.779 4.81461C14.7955 4.65289 14.7613 4.49003 14.6811 4.34864C14.6532 4.28806 14.4435 4.15759 14.3549 4.20419Z" fill="#F4C23C"/>
<g style="mix-blend-mode:screen">
<path d="M10.1936 2.7592C10.5514 2.43555 10.9716 2.18842 11.4283 2.03297C11.885 1.87752 12.3687 1.81704 12.8497 1.85523C12.1956 1.68226 11.5019 1.74088 10.8861 2.02115C10.2703 2.30143 9.77052 2.78609 9.4714 3.39292C9.34606 3.65865 9.27453 3.94656 9.26093 4.24005C9.24734 4.53355 9.29194 4.82684 9.39218 5.10302C9.3392 4.67714 9.38384 4.24479 9.5227 3.83871C9.66155 3.43263 9.89099 3.06347 10.1936 2.7592Z" fill="#F4C23C"/>
<path d="M10.1936 2.7592C10.5514 2.43555 10.9716 2.18842 11.4283 2.03297C11.885 1.87752 12.3687 1.81704 12.8497 1.85523C12.1956 1.68226 11.5019 1.74088 10.8861 2.02115C10.2703 2.30143 9.77052 2.78609 9.4714 3.39292C9.34606 3.65865 9.27453 3.94656 9.26093 4.24005C9.24734 4.53355 9.29194 4.82684 9.39218 5.10302C9.3392 4.67714 9.38384 4.24479 9.5227 3.83871C9.66155 3.43263 9.89099 3.06347 10.1936 2.7592Z" stroke="#212121" stroke-width="0.5"/>
</g>
</svg>
