<svg width="28" height="28" viewBox="0 0 28 28" fill="none" xmlns="http://www.w3.org/2000/svg">
<path d="M11.9864 23.516L11.1093 22.7912L11.7689 21.8996L12.704 22.6244C12.9603 22.77 13.2613 22.8158 13.5493 22.7531C13.8373 22.6904 14.0919 22.5235 14.2644 22.2845C14.4369 22.0455 14.5151 21.7512 14.484 21.4581C14.4528 21.165 14.3145 20.8938 14.0957 20.6964L11.0513 18.4639L9.63792 20.3847L9.86261 20.5514L9.20301 21.443L8.98557 21.2835L7.53589 23.2043L10.5802 25.4368C10.8349 25.6233 11.1533 25.7009 11.4653 25.6527C11.6197 25.6288 11.768 25.5747 11.9015 25.4935C12.0351 25.4123 12.1514 25.3056 12.2437 25.1795C12.336 25.0534 12.4026 24.9103 12.4397 24.7584C12.4767 24.6066 12.4835 24.4489 12.4596 24.2945C12.4357 24.14 12.3816 23.9917 12.3004 23.8582C12.2192 23.7246 12.1125 23.6083 11.9864 23.516Z" fill="#EFA239" stroke="#212121" stroke-width="0.5"/>
<g style="mix-blend-mode:multiply">
<g style="mix-blend-mode:multiply">
<path d="M12.2108 19.2974L11.0728 18.4639L9.6594 20.3847L9.8841 20.5514L9.22449 21.443L9.00705 21.2835L7.55737 23.2043L8.61563 23.9799C8.61563 23.9799 11.4715 20.1672 12.2108 19.2974Z" fill="#F4C23C"/>
</g>
</g>
<path d="M7.65904 24.5526C7.56286 24.685 7.44143 24.797 7.30173 24.8822C7.16203 24.9675 7.00683 25.0242 6.8451 25.0491C6.68337 25.074 6.51833 25.0667 6.35945 25.0275C6.20057 24.9883 6.05102 24.9181 5.91943 24.8208C5.78704 24.7246 5.67501 24.6032 5.5898 24.4635C5.50458 24.3238 5.44785 24.1686 5.42292 24.0069C5.39799 23.8451 5.40532 23.6801 5.44451 23.5212C5.4837 23.3623 5.55397 23.2128 5.65125 23.0812L15.1901 10.0921C15.3856 9.82629 15.6784 9.64882 16.0045 9.59855C16.3306 9.54828 16.6633 9.62931 16.9297 9.82388C17.0624 9.92072 17.1745 10.0428 17.2599 10.1831C17.3452 10.3235 17.4019 10.4793 17.4268 10.6416C17.4518 10.8039 17.4444 10.9695 17.4051 11.129C17.3658 11.2885 17.2954 11.4386 17.1979 11.5707L7.65904 24.5526Z" fill="#EFA239" stroke="#212121" stroke-width="0.5"/>
<g style="mix-blend-mode:screen">
<path d="M7.06475 24.1246C6.95115 24.2713 6.78561 24.3689 6.60221 24.3972C6.41881 24.4255 6.23154 24.3824 6.07898 24.2768C5.93224 24.1632 5.83466 23.9976 5.80634 23.8142C5.77802 23.6308 5.82113 23.4436 5.92677 23.291L11.3341 15.9266C11.4477 15.7799 11.6132 15.6823 11.7966 15.654C11.98 15.6257 12.1673 15.6688 12.3198 15.7744C12.4666 15.888 12.5641 16.0536 12.5925 16.237C12.6208 16.4204 12.5777 16.6076 12.4721 16.7602L7.06475 24.1246Z" fill="#F4C23C"/>
<path d="M7.06475 24.1246C6.95115 24.2713 6.78561 24.3689 6.60221 24.3972C6.41881 24.4255 6.23154 24.3824 6.07898 24.2768C5.93224 24.1632 5.83466 23.9976 5.80634 23.8142C5.77802 23.6308 5.82113 23.4436 5.92677 23.291L11.3341 15.9266C11.4477 15.7799 11.6132 15.6823 11.7966 15.654C11.98 15.6257 12.1673 15.6688 12.3198 15.7744C12.4666 15.888 12.5641 16.0536 12.5925 16.237C12.6208 16.4204 12.5777 16.6076 12.4721 16.7602L7.06475 24.1246Z" stroke="#212121" stroke-width="0.5"/>
</g>
<g style="mix-blend-mode:screen">
<path d="M15.2044 10.6787L13.5953 12.8532C13.5133 12.9244 13.4484 13.0131 13.4053 13.1128C13.3622 13.2125 13.342 13.3205 13.3463 13.429C13.3505 13.5376 13.3791 13.6437 13.4299 13.7397C13.4808 13.8356 13.5525 13.919 13.6398 13.9835C13.7271 14.048 13.8279 14.0921 13.9345 14.1125C14.0412 14.1329 14.1511 14.129 14.256 14.1012C14.361 14.0734 14.4584 14.0224 14.541 13.9519C14.6236 13.8815 14.6893 13.7933 14.7333 13.694L16.2555 11.621C15.8642 11.3557 15.5107 11.0388 15.2044 10.6787Z" fill="#F4C23C"/>
<path d="M15.2044 10.6787L13.5953 12.8532C13.5133 12.9244 13.4484 13.0131 13.4053 13.1128C13.3622 13.2125 13.342 13.3205 13.3463 13.429C13.3505 13.5376 13.3791 13.6437 13.4299 13.7397C13.4808 13.8356 13.5525 13.919 13.6398 13.9835C13.7271 14.048 13.8279 14.0921 13.9345 14.1125C14.0412 14.1329 14.1511 14.129 14.256 14.1012C14.361 14.0734 14.4584 14.0224 14.541 13.9519C14.6236 13.8815 14.6893 13.7933 14.7333 13.694L16.2555 11.621C15.8642 11.3557 15.5107 11.0388 15.2044 10.6787Z" stroke="#212121" stroke-width="0.5"/>
</g>
<path d="M21.6266 3.43764C20.8719 2.88387 19.97 2.56631 19.0348 2.5251C18.0997 2.48389 17.1733 2.72088 16.3729 3.20612C15.5724 3.69135 14.9338 4.40303 14.5378 5.25119C14.1417 6.09934 14.0061 7.04587 14.1479 7.97111C14.2898 8.89635 14.7028 9.75875 15.3348 10.4493C15.9668 11.1398 16.7893 11.6274 17.6984 11.8505C18.6075 12.0736 19.5623 12.0221 20.4421 11.7026C21.322 11.3831 22.0873 10.8099 22.6414 10.0554C23.0094 9.5543 23.2751 8.98559 23.4233 8.38177C23.5714 7.77795 23.5992 7.15085 23.505 6.5363C23.4107 5.92175 23.1963 5.33178 22.874 4.8001C22.5517 4.26843 22.1279 3.80545 21.6266 3.43764ZM17.3211 9.29433C16.9043 8.99106 16.5869 8.57083 16.4093 8.08696C16.2317 7.60308 16.2018 7.07735 16.3233 6.57645C16.4449 6.07554 16.7125 5.62203 17.0922 5.27343C17.4719 4.92483 17.9466 4.69684 18.456 4.61839C18.9655 4.53994 19.4867 4.61455 19.9537 4.83276C20.4207 5.05098 20.8124 5.40296 21.079 5.84408C21.3457 6.28519 21.4753 6.79556 21.4515 7.31046C21.4277 7.82536 21.2515 8.32158 20.9453 8.7362C20.5371 9.28876 19.9271 9.65754 19.2482 9.76209C18.5692 9.86665 17.8765 9.6985 17.3211 9.29433Z" fill="#EFA239" stroke="#212121" stroke-width="0.5"/>
<g style="mix-blend-mode:multiply">
<path d="M22.0686 3.8291C22.1382 4.01726 22.158 4.22017 22.1263 4.41823C22.0945 4.6163 22.0123 4.80284 21.8874 4.95985C21.6845 5.24254 21.3873 5.06133 21.1626 4.88736C20.436 4.23134 19.4804 3.88764 18.5024 3.93058C17.7016 3.99576 16.9504 4.34489 16.3842 4.91504C15.818 5.48519 15.4742 6.23885 15.4146 7.04014C15.3614 7.69898 15.4591 8.36128 15.7003 8.97671C15.9414 9.59214 16.3197 10.1445 16.8063 10.5918C16.8237 10.609 16.8348 10.6314 16.8379 10.6556C16.8409 10.6798 16.8358 10.7043 16.8232 10.7252C16.8107 10.7461 16.7915 10.7622 16.7687 10.7709C16.7459 10.7795 16.7209 10.7803 16.6976 10.7731C16.0157 10.498 15.4147 10.0545 14.9508 9.48405C14.4868 8.91363 14.1751 8.23489 14.0447 7.51128C14.0916 8.27882 14.3248 9.02338 14.7241 9.68054C15.1234 10.3377 15.6769 10.8877 16.3365 11.2829C16.9961 11.6781 17.7421 11.9066 18.5099 11.9487C19.2778 11.9908 20.0443 11.8452 20.7432 11.5245C21.4421 11.2038 22.0523 10.7176 22.5211 10.108C22.9898 9.49845 23.3031 8.78385 23.4336 8.02604C23.5641 7.26822 23.508 6.49002 23.2702 5.75875C23.0324 5.02748 22.62 4.36516 22.0686 3.8291ZM20.9306 8.72901C20.6274 9.1458 20.2071 9.46312 19.7233 9.64075C19.2394 9.81837 18.7137 9.84829 18.2128 9.72671C17.7119 9.60513 17.2583 9.33752 16.9097 8.95783C16.5611 8.57814 16.3331 8.10347 16.2547 7.59403C16.1762 7.08459 16.2509 6.56332 16.4691 6.09634C16.6873 5.62936 17.0393 5.23771 17.4804 4.97106C17.9215 4.7044 18.4319 4.57476 18.9468 4.59858C19.4617 4.62239 19.9579 4.79858 20.3725 5.10482C20.9317 5.50869 21.3077 6.11806 21.4178 6.79901C21.5279 7.47995 21.3631 8.17675 20.9596 8.73625L20.9306 8.72901Z" fill="#F4C23C"/>
</g>
<g style="mix-blend-mode:multiply">
<path d="M20.5322 5.09039C20.3943 5.01955 20.2514 4.95899 20.1046 4.90918C20.2078 4.96512 20.3071 5.02809 20.4017 5.09764C20.7872 5.38062 21.0873 5.76436 21.269 6.20672C21.4506 6.64908 21.5069 7.13294 21.4316 7.60518C21.3562 8.07742 21.1522 8.51977 20.842 8.88366C20.5317 9.24754 20.1271 9.51889 19.6727 9.6679C19.2183 9.81691 18.7316 9.83783 18.2661 9.72835C17.8006 9.61886 17.3743 9.38322 17.0339 9.04729C16.6936 8.71136 16.4524 8.28814 16.3368 7.8241C16.2213 7.36006 16.2358 6.87315 16.3789 6.41684C16.2027 6.73052 16.0931 7.07715 16.057 7.43508C16.0208 7.79301 16.0588 8.15456 16.1687 8.49713C16.7195 10.099 18.8868 10.6064 20.2713 9.78734C21.9239 8.80156 22.453 6.10516 20.5322 5.09039Z" fill="#F4C23C"/>
</g>
<path d="M14.8203 15.8763C14.7349 15.9814 14.6137 16.0512 14.48 16.0726C14.3463 16.094 14.2095 16.0654 14.0955 15.9923L11.921 14.4411C11.816 14.3557 11.7461 14.2346 11.7247 14.1009C11.7033 13.9672 11.7319 13.8303 11.805 13.7163C11.8467 13.6578 11.8997 13.6083 11.9608 13.5707C12.022 13.5331 12.09 13.5081 12.161 13.4973C12.232 13.4865 12.3044 13.4901 12.374 13.5078C12.4436 13.5254 12.5089 13.5569 12.5661 13.6003L14.6826 15.1515C14.7975 15.2381 14.8739 15.3662 14.8956 15.5084C14.9173 15.6506 14.8825 15.7957 14.7986 15.9126L14.8203 15.8763Z" fill="#F4C23C" stroke="#212121" stroke-width="0.5"/>
<path d="M22.3299 6.53974C22.0399 6.68471 21.9892 7.40955 21.9965 7.69948C22.0483 8.25746 21.8828 8.81392 21.5344 9.25282C21.186 9.69172 20.6816 9.97916 20.1264 10.0552C18.8797 10.1712 18.8724 10.8308 19.7422 10.9975C21.6848 11.3672 22.975 9.17091 22.9895 7.48928C23.0152 7.23772 22.962 6.98439 22.8373 6.76444C22.7938 6.67021 22.4676 6.46726 22.3299 6.53974Z" fill="#F4C23C"/>
<g style="mix-blend-mode:screen">
<path d="M15.8569 4.29307C16.4135 3.78961 17.0671 3.40518 17.7775 3.16337C18.488 2.92157 19.2404 2.82748 19.9885 2.88688C18.9711 2.61782 17.8919 2.70901 16.9341 3.14499C15.9763 3.58098 15.1987 4.3349 14.7335 5.27885C14.5385 5.69221 14.4272 6.14007 14.4061 6.59662C14.3849 7.05317 14.4543 7.50939 14.6102 7.939C14.5278 7.27652 14.5972 6.60398 14.8132 5.9723C15.0292 5.34062 15.3862 4.76638 15.8569 4.29307Z" fill="#F4C23C"/>
<path d="M15.8569 4.29307C16.4135 3.78961 17.0671 3.40518 17.7775 3.16337C18.488 2.92157 19.2404 2.82748 19.9885 2.88688C18.9711 2.61782 17.8919 2.70901 16.9341 3.14499C15.9763 3.58098 15.1987 4.3349 14.7335 5.27885C14.5385 5.69221 14.4272 6.14007 14.4061 6.59662C14.3849 7.05317 14.4543 7.50939 14.6102 7.939C14.5278 7.27652 14.5972 6.60398 14.8132 5.9723C15.0292 5.34062 15.3862 4.76638 15.8569 4.29307Z" stroke="#212121" stroke-width="0.5"/>
</g>
</svg>
