<svg width="32" height="32" viewBox="0 0 32 32" fill="none" xmlns="http://www.w3.org/2000/svg">
<path d="M14.2144 13.5251C13.9215 13.2322 13.9215 12.7574 14.2144 12.4645C14.5073 12.1716 14.9822 12.1716 15.275 12.4645L17.75 14.9394L20.2249 12.4645C20.5177 12.1716 20.9926 12.1716 21.2855 12.4645C21.5784 12.7573 21.5784 13.2322 21.2855 13.5251L18.8105 16L21.2855 18.4749C21.5784 18.7678 21.5784 19.2427 21.2855 19.5355C20.9926 19.8284 20.5177 19.8284 20.2249 19.5355L17.75 17.0607L15.275 19.5355C14.9822 19.8284 14.5073 19.8284 14.2145 19.5355C13.9215 19.2426 13.9215 18.7678 14.2145 18.4749L16.6893 16.0001L14.2144 13.5251Z" fill="#212121"/>
<path fill-rule="evenodd" clip-rule="evenodd" d="M11.1213 8.37866L3.5 16L11.1213 23.6213C11.684 24.184 12.447 24.5 13.2427 24.5H23.5C25.1569 24.5 26.5 23.1569 26.5 21.5V10.5C26.5 8.84314 25.1569 7.5 23.5 7.5H13.2427C12.447 7.5 11.684 7.8161 11.1213 8.37866ZM23.5 23.2H13.2427C12.7917 23.2 12.3594 23.0209 12.0405 22.7021L5.3385 16L12.0405 9.29791C12.3594 8.97913 12.7917 8.79999 13.2427 8.79999H23.5C24.4388 8.79999 25.2 9.5611 25.2 10.5V21.5C25.2 22.4389 24.4388 23.2 23.5 23.2Z" fill="#212121"/>
</svg>
