<svg width="24" height="24" viewBox="0 0 24 24" fill="none" xmlns="http://www.w3.org/2000/svg">
<path d="M23.8593 10.367C23.7713 10.2782 23.6612 10.2339 23.5512 10.2339C23.5402 10.2339 23.5292 10.2339 23.5182 10.2339C23.243 10.245 23.0339 10.4668 23.0339 10.7329C23.0339 10.7662 23.0339 10.7995 23.0339 10.8327L23.0229 10.9214C23.0229 10.9547 23.0119 10.9769 23.0009 11.0102C22.9899 11.0656 22.9789 11.1211 22.9569 11.1765C22.9569 11.1876 22.9458 11.2098 22.9458 11.2209H22.9238V11.2763C22.9018 11.3318 22.8688 11.3872 22.8468 11.4316L22.7918 11.5203C22.7808 11.5425 22.7697 11.5536 22.7697 11.5646C22.7147 11.6423 22.6377 11.7088 22.5606 11.7753C22.5276 11.7975 22.5166 11.8086 22.5056 11.8197C22.4946 11.8308 22.4836 11.8419 22.4616 11.853C22.4176 11.8862 22.3625 11.9195 22.3185 11.9417L22.2855 11.9528C22.2635 11.9639 22.2415 11.975 22.2305 11.986L22.2084 11.9971C22.1534 12.0193 22.1094 12.0304 22.0544 12.0526C22.0213 12.0637 21.9883 12.0637 21.9663 12.0748C21.9223 11.5536 21.8342 11.0878 21.6912 10.6553C21.317 9.54632 20.6346 8.49281 19.6991 7.61673C18.8296 6.80718 17.751 6.1418 16.4964 5.65386C16.3753 4.81104 16.0341 4.03477 15.4948 3.41375C14.8565 2.68183 13.954 2.1828 13.0185 2.04972C11.9839 1.89447 10.9494 2.10517 10.1129 2.64856C9.29848 3.16978 8.67114 3.97932 8.36297 4.92194C8.30794 5.09938 8.27493 5.29899 8.25291 5.48751L8.24191 5.54296C7.53753 5.79802 6.91019 6.08635 6.3709 6.40795C6.1948 6.28597 6.01871 6.16398 5.84261 6.042L5.69954 5.94219C5.57847 5.86456 5.45741 5.78693 5.33634 5.69822L5.29232 5.66495C5.20427 5.59841 5.10522 5.53187 4.97314 5.47642C4.76403 5.3988 4.53291 5.40989 4.31279 5.50969C4.09267 5.6095 3.92758 5.80911 3.85054 6.03091C3.80651 6.17507 3.81752 6.31924 3.82853 6.44122V6.47449C3.83953 6.67411 3.85054 6.87372 3.87255 7.07333C3.88356 7.27295 3.89456 7.47256 3.90557 7.66108L3.9606 8.47063C3.5864 8.96966 3.27823 9.4687 3.0361 10.001H2.70592C2.63989 10.001 2.58486 10.001 2.51882 10.001C2.35373 10.001 2.18864 10.001 2.03456 10.0121C1.45124 10.0786 1.01101 10.5666 1 11.1654C1 11.2652 1 11.3539 1 11.4537V13.9489C1 14.4036 1.23112 14.8028 1.59432 15.0135C1.82545 15.1466 2.08959 15.1577 2.33172 15.1577C2.43077 15.1577 2.51882 15.1577 2.60687 15.1577H3.0471C3.60841 16.3665 4.53291 17.4643 5.73255 18.3071C5.98569 18.4846 6.27185 18.662 6.56901 18.8395C6.50297 19.1389 6.43693 19.4383 6.35989 19.7266L6.26084 20.148C6.1948 20.4253 6.12877 20.7136 6.06273 20.9908L5.98569 21.3679C5.95267 21.5231 5.98569 21.6895 6.08474 21.8004C6.17279 21.9113 6.31587 21.9889 6.45895 21.9889H9.23244C9.44156 21.9889 9.61765 21.8558 9.7057 21.634C9.77173 21.4677 9.82676 21.3124 9.8928 21.1461L10.0799 20.6582C10.1239 20.5583 10.1679 20.4474 10.201 20.3476C10.234 20.27 10.267 20.1924 10.289 20.1148C11.5987 20.3255 12.9194 20.3255 14.2071 20.1148L14.4933 20.8689C14.5923 21.135 14.6914 21.3901 14.7904 21.6451C14.8785 21.8669 15.0546 22 15.2637 22H18.0262C18.1803 22 18.3123 21.9335 18.4004 21.8226C18.4994 21.7006 18.5325 21.5342 18.4994 21.379C18.3013 20.5362 18.1142 19.6823 17.9161 18.8395C19.8972 17.7194 21.306 16.0005 21.7792 14.1263C21.8563 13.8158 21.9113 13.4721 21.9333 13.0617C22.0654 13.0507 22.1864 13.0285 22.2965 12.9952C22.6157 12.9065 22.9238 12.7401 23.199 12.5073C23.6942 12.0748 23.9914 11.4205 23.9914 10.744C24.0244 10.5998 23.9584 10.4668 23.8593 10.367ZM21.0418 13.2614H21.0198L20.9868 13.2503C20.9868 13.2614 20.9868 13.2724 20.9758 13.2835C20.9758 13.2946 20.9758 13.3057 20.9758 13.3168L20.9648 13.3501C20.9538 13.4166 20.9428 13.4831 20.9318 13.5497C20.8877 13.7826 20.8327 14.0044 20.7557 14.2151C20.7226 14.3371 20.6676 14.4479 20.6346 14.5367L20.6236 14.5588C20.6236 14.5699 20.6126 14.581 20.6126 14.5921C20.6016 14.6032 20.6016 14.6143 20.5906 14.6365C20.5576 14.703 20.5355 14.7695 20.5025 14.825C20.4035 15.0357 20.2934 15.2353 20.1723 15.4349C20.1063 15.5347 20.0403 15.6345 19.9742 15.7343L19.9302 15.7898C19.9082 15.8231 19.8862 15.8452 19.8642 15.8785L19.7981 15.9672C19.7981 15.9783 19.7871 15.9783 19.7871 15.9894L19.7761 16.0005C19.435 16.433 19.0277 16.8433 18.5765 17.1982C18.4884 17.2758 18.4114 17.3313 18.2903 17.42C18.1693 17.5087 18.0482 17.5974 17.9271 17.675C17.707 17.8192 17.4759 17.9523 17.2118 18.0964C17.1677 18.1075 17.1347 18.1297 17.1017 18.1519C17.0026 18.2073 16.9366 18.3071 16.9036 18.418C16.8706 18.5511 16.8816 18.6953 16.9366 18.8062L17.4319 20.9908H15.6159L15.0106 19.3939C14.9115 19.1278 14.6804 19.0058 14.4162 19.0612C13.0075 19.3385 11.5107 19.3385 10.1019 19.0612C9.82676 19.0058 9.58463 19.1389 9.50759 19.405C9.44156 19.6157 9.35351 19.8264 9.26546 20.0371L9.25446 20.0815C9.22144 20.1702 9.17741 20.27 9.1444 20.3587L8.90227 20.9908H7.1083L7.27339 20.2478C7.36143 19.8486 7.44948 19.4605 7.54853 19.0723L7.63658 18.7064C7.68061 18.5178 7.61457 18.2628 7.40546 18.1519C7.06427 17.9745 6.73409 17.7859 6.43693 17.5863C6.30486 17.4976 6.16179 17.3867 6.01871 17.2869C6.0077 17.2758 5.98569 17.2536 5.95267 17.2315L5.91966 17.2093C5.89764 17.1871 5.87563 17.176 5.84261 17.1538C5.77658 17.0984 5.69954 17.0429 5.6335 16.9764C5.36936 16.7435 5.11622 16.4884 4.8961 16.2334C4.84107 16.1779 4.79705 16.1114 4.74202 16.0449L4.72001 16.0227C4.709 16.0116 4.698 16.0005 4.698 15.9894L4.62095 15.8785C4.51089 15.7233 4.42285 15.5902 4.34581 15.4682C4.25776 15.324 4.16971 15.1688 4.08166 14.9913C4.03764 14.9026 3.99362 14.825 3.9606 14.7252C3.93859 14.6919 3.92758 14.6476 3.90557 14.6032C3.90557 14.5921 3.89456 14.5699 3.89456 14.5699L3.87255 14.5256C3.7845 14.3038 3.60841 14.1707 3.3993 14.1707H2.99208C2.74994 14.1707 2.46379 14.1707 2.17764 14.1707C2.16663 14.1707 2.15562 14.1707 2.14462 14.1707C2.13361 14.1707 2.12261 14.1596 2.10059 14.1596C2.08959 14.1596 2.08959 14.1485 2.07858 14.1485C2.06758 14.1374 2.06758 14.1374 2.05657 14.1263C2.04556 14.1153 2.03456 14.1042 2.02355 14.0931L2.01255 14.082C2.01255 14.0709 2.01255 14.0598 2.00154 14.0487V13.9933C2.00154 13.8935 2.00154 13.7937 2.00154 13.6939V11.1876C2.00154 11.1765 2.00154 11.1654 2.00154 11.1654C2.01255 11.1543 2.01255 11.1321 2.02355 11.11L2.03456 11.0989C2.04556 11.0878 2.05657 11.0767 2.06758 11.0656L2.08959 11.0545C2.10059 11.0545 2.12261 11.0434 2.12261 11.0434C2.13361 11.0434 2.14462 11.0323 2.15562 11.0323H3.37728C3.5864 11.0323 3.76249 10.8993 3.85054 10.6775C3.98261 10.3226 4.20273 9.91228 4.43385 9.55741C4.54391 9.39107 4.65397 9.23581 4.79705 9.06947C4.90711 8.93639 4.98415 8.80332 4.97314 8.62588C4.96214 8.31537 4.94013 8.03813 4.91811 7.78307C4.90711 7.64999 4.8961 7.51692 4.8851 7.38384C4.87409 7.26186 4.87409 7.13987 4.86309 7.01788V6.97353C4.85208 6.82936 4.85208 6.68519 4.83007 6.52994L4.8851 6.56321C4.94013 6.59648 4.99516 6.64084 5.06119 6.68519C5.24829 6.80718 5.42439 6.94026 5.61149 7.06224C5.77658 7.18423 5.95267 7.29513 6.11776 7.40602C6.26084 7.50583 6.46995 7.50583 6.62404 7.40602C7.1193 7.08442 7.62558 6.82936 8.17587 6.60757C8.2199 7.13987 8.36297 7.64999 8.5941 8.11576C8.39599 8.22666 8.28593 8.45954 8.34096 8.68133C8.37398 8.81441 8.47303 8.9253 8.5941 8.99184C8.70416 9.05838 8.83623 9.06947 8.94629 9.02511C9.21043 8.93639 9.47457 8.86986 9.73872 8.80332L9.84878 8.77005C10.1129 8.70351 10.355 8.64806 10.5862 8.61479C10.7733 8.58152 10.9824 8.54826 11.2245 8.52608C11.4997 8.49281 11.7748 8.48172 12.039 8.47063C12.2481 8.45954 12.4242 8.45954 12.5782 8.45954C12.8754 8.47063 13.1946 8.49281 13.5138 8.52608L13.6128 8.53717C13.7229 8.54826 13.8439 8.55935 13.965 8.58152C14.2512 8.62588 14.5263 8.69242 14.8235 8.77005C14.8895 8.79223 14.9665 8.80332 15.0326 8.8255C15.2747 8.88095 15.5278 8.94748 15.77 9.02511C15.891 9.06947 16.0231 9.04729 16.1442 8.98075C16.2652 8.91421 16.3533 8.79223 16.3863 8.67024C16.4413 8.43736 16.3313 8.20448 16.1222 8.10467C16.3313 7.67217 16.4744 7.20641 16.5294 6.69628C16.8486 6.82936 17.1457 6.98462 17.4429 7.15096C17.9161 7.41711 18.3674 7.72762 18.7416 8.04922C19.6 8.78114 20.2714 9.66831 20.6346 10.5555C20.8437 11.0656 20.9868 11.6423 21.0198 12.1302C21.0418 12.3853 21.0418 12.6403 21.0308 12.9176C21.0198 13.0285 21.0088 13.1394 20.9978 13.2503L21.0418 13.2614ZM15.5609 5.94219C15.5609 5.95328 15.5499 5.97546 15.5499 5.99764C15.5609 6.15289 15.5609 6.29706 15.5499 6.4634C15.5499 6.52994 15.5388 6.58539 15.5278 6.64084L15.5168 6.70737C15.4838 6.90699 15.4398 7.1066 15.3738 7.28404C15.3297 7.39493 15.2857 7.50583 15.2417 7.61673L15.2087 7.67217C15.1867 7.71653 15.1646 7.76089 15.1426 7.80525C15.0986 7.79416 15.0656 7.79416 15.0216 7.78307C14.9775 7.77198 14.9335 7.77198 14.8895 7.76089C14.7134 7.71653 14.5373 7.68326 14.3392 7.64999C14.1191 7.60564 13.877 7.57237 13.5798 7.55019L13.4477 7.5391C13.3046 7.51692 13.1506 7.50583 12.9965 7.49474C12.6663 7.47256 12.3361 7.48365 12.05 7.48365C11.8078 7.49474 11.6207 7.49474 11.4446 7.51692C11.1365 7.5391 10.8393 7.56128 10.5422 7.61673C10.5091 7.61673 10.4761 7.62781 10.4431 7.6389C10.4211 7.6389 10.3881 7.64999 10.3661 7.64999C10.344 7.64999 10.333 7.64999 10.311 7.66108C10.289 7.66108 10.267 7.66108 10.245 7.67217C10.0249 7.71653 9.80475 7.77198 9.61765 7.81634C9.59564 7.81634 9.58463 7.82743 9.56262 7.82743C9.55162 7.82743 9.54061 7.82743 9.54061 7.82743C9.48558 7.68326 9.43055 7.57237 9.37552 7.45038L9.3425 7.35057C9.3315 7.31731 9.32049 7.27295 9.29848 7.23968L9.27647 7.17314C9.24345 7.06224 9.21043 6.92917 9.18842 6.79609C9.1444 6.5743 9.13339 6.33033 9.1444 6.07526C9.1444 6.00873 9.1554 5.95328 9.1554 5.89783C9.1554 5.86456 9.16641 5.83129 9.16641 5.80911C9.17741 5.69822 9.19943 5.58732 9.22144 5.48751C9.24345 5.38771 9.26546 5.29899 9.29848 5.19918C9.29848 5.18809 9.30949 5.177 9.30949 5.16591L9.32049 5.14373C9.3315 5.12155 9.3315 5.08829 9.3425 5.06611L9.37552 4.97739C9.46357 4.78886 9.56262 4.60034 9.67268 4.42291C9.68369 4.40073 9.69469 4.38964 9.71671 4.35637L9.79375 4.24547C9.84878 4.16784 9.91481 4.10131 9.99185 4.01259C10.0579 3.93496 10.1349 3.86842 10.201 3.81298L10.3881 3.65772C10.5642 3.52464 10.7293 3.42484 10.8943 3.33612C10.9384 3.31394 10.9824 3.29176 11.0374 3.26958C11.0484 3.26958 11.0594 3.25849 11.0704 3.25849C11.0814 3.25849 11.0924 3.2474 11.1035 3.2474C11.2025 3.20305 11.3016 3.16978 11.4006 3.13651C11.5107 3.10324 11.5877 3.08106 11.6758 3.06997C11.7088 3.05888 11.7528 3.05888 11.7858 3.04779L11.8409 3.0367C11.8519 3.0367 11.8739 3.0367 11.8849 3.02561L11.9399 3.01452C12.149 2.99234 12.3471 2.98125 12.5672 2.99234C12.6223 2.99234 12.6773 3.00343 12.7323 3.00343L12.8094 3.01452C12.9194 3.0367 13.0295 3.05888 13.1285 3.08106C13.2166 3.10324 13.3046 3.12542 13.4037 3.15869C13.4477 3.16978 13.4917 3.19196 13.5358 3.20305L13.5908 3.22522C13.6018 3.22522 13.6128 3.23631 13.6128 3.23631L13.6348 3.2474C13.8439 3.34721 14.02 3.44702 14.1631 3.54682L14.2071 3.58009C14.2291 3.59118 14.2512 3.61336 14.2732 3.62445L14.3502 3.6799C14.4272 3.74644 14.5043 3.81298 14.5703 3.87951C14.6364 3.94605 14.7134 4.02368 14.7904 4.1124C14.8235 4.15676 14.8565 4.20111 14.9005 4.24547L14.9115 4.25656C14.9225 4.26765 14.9335 4.27874 14.9335 4.28983L14.9445 4.30092C14.9445 4.31201 14.9555 4.31201 14.9555 4.3231C15.0766 4.50053 15.1977 4.70015 15.2857 4.91085V4.92194C15.2857 4.93303 15.2967 4.94412 15.2967 4.94412C15.2967 4.9663 15.3077 4.98848 15.3297 5.02175C15.3517 5.0772 15.3738 5.12155 15.3848 5.177C15.4178 5.2879 15.4508 5.3988 15.4728 5.52078C15.4838 5.57623 15.4948 5.63168 15.5058 5.68713L15.5168 5.75366V5.78693C15.5278 5.83129 15.5278 5.88674 15.5388 5.9311C15.5609 5.9311 15.5609 5.94219 15.5609 5.94219Z" fill="#C5C5C5"/>
<path d="M7 11C6.45333 11 6 11.4533 6 12C6 12.5467 6.45333 13 7 13C7.54667 13 8 12.5467 8 12C8 11.4533 7.54667 11 7 11Z" fill="#C5C5C5"/>
</svg>
