<svg width="24" height="24" viewBox="0 0 24 24" fill="none" xmlns="http://www.w3.org/2000/svg">
<g clip-path="url(#clip0_1252_7936)">
<path fill-rule="evenodd" clip-rule="evenodd" d="M19.1401 4.65217H21.9168C23.0076 4.65217 23.9001 5.58152 23.9001 6.71739V8.36957C23.9001 9.95978 22.6506 11.2609 21.1234 11.2609H18.8426C18.1088 13.7495 16.0858 15.6391 13.5868 16.1038V18.6957H16.3634C16.5816 18.6957 16.7601 18.8815 16.7601 19.1087V21.587C16.7601 21.8141 16.5816 22 16.3634 22H7.63676C7.4186 22 7.2401 21.8141 7.2401 21.587V19.1087C7.2401 18.8815 7.4186 18.6957 7.63676 18.6957H10.4134V16.1038C7.91443 15.6391 5.89143 13.7391 5.1576 11.2609H2.87676C1.3496 11.2609 0.100098 9.95978 0.100098 8.36957V6.71739C0.100098 5.58152 0.992598 4.65217 2.08343 4.65217H4.8601V3.41304C4.8601 3.18587 5.0386 3 5.25676 3H18.7434C18.9616 3 19.1401 3.18587 19.1401 3.41304V4.65217ZM2.87676 10.4348H4.8601V5.47826H2.08343C1.42893 5.47826 0.893431 6.03587 0.893431 6.71739V8.36957C0.893431 9.50544 1.78593 10.4348 2.87676 10.4348ZM15.9668 21.1739V19.5217H12.8V15.3773C15.8949 15.1609 18.3468 12.4725 18.3468 9.19565V3.82609H5.65343V9.19565C5.65343 12.4724 8.10518 15.1607 11.2 15.3772V19.5217H8.03343V21.1739H15.9668ZM21.1234 10.4348C22.2143 10.4348 23.1068 9.50544 23.1068 8.36957V6.71739C23.1068 6.03587 22.5713 5.47826 21.9168 5.47826H19.1401V10.4348H21.1234Z" fill="#329964"/>
<path d="M19.1401 4.65217H18.9901V4.80217H19.1401V4.65217ZM18.8426 11.2609V11.1109H18.7304L18.6987 11.2184L18.8426 11.2609ZM13.5868 16.1038L13.5593 15.9563L13.4368 15.9791V16.1038H13.5868ZM13.5868 18.6957H13.4368V18.8457H13.5868V18.6957ZM10.4134 18.6957V18.8457H10.5634V18.6957H10.4134ZM10.4134 16.1038H10.5634V15.9791L10.4409 15.9563L10.4134 16.1038ZM5.1576 11.2609L5.30142 11.2183L5.26962 11.1109H5.1576V11.2609ZM4.8601 4.65217V4.80217H5.0101V4.65217H4.8601ZM4.8601 10.4348V10.5848H5.0101V10.4348H4.8601ZM4.8601 5.47826H5.0101V5.32826H4.8601V5.47826ZM15.9668 19.5217H16.1168V19.3717H15.9668V19.5217ZM15.9668 21.1739V21.3239H16.1168V21.1739H15.9668ZM12.8 19.5217H12.65V19.6717H12.8V19.5217ZM12.8 15.3773L12.7895 15.2276L12.65 15.2374V15.3773H12.8ZM18.3468 3.82609H18.4968V3.67609H18.3468V3.82609ZM5.65343 3.82609V3.67609H5.50343V3.82609H5.65343ZM11.2 15.3772H11.35V15.2374L11.2104 15.2276L11.2 15.3772ZM11.2 19.5217V19.6717H11.35V19.5217H11.2ZM8.03343 19.5217V19.3717H7.88343V19.5217H8.03343ZM8.03343 21.1739H7.88343V21.3239H8.03343V21.1739ZM19.1401 5.47826V5.32826H18.9901V5.47826H19.1401ZM19.1401 10.4348H18.9901V10.5848H19.1401V10.4348ZM21.9168 4.50217H19.1401V4.80217H21.9168V4.50217ZM24.0501 6.71739C24.0501 5.50446 23.0961 4.50217 21.9168 4.50217V4.80217C22.9191 4.80217 23.7501 5.65859 23.7501 6.71739H24.0501ZM24.0501 8.36957V6.71739H23.7501V8.36957H24.0501ZM21.1234 11.4109C22.7391 11.4109 24.0501 10.0368 24.0501 8.36957H23.7501C23.7501 9.88272 22.5621 11.1109 21.1234 11.1109V11.4109ZM18.8426 11.4109H21.1234V11.1109H18.8426V11.4109ZM13.6142 16.2513C16.1715 15.7758 18.2375 13.8432 18.9865 11.3033L18.6987 11.2184C17.98 13.6557 16 15.5025 13.5593 15.9563L13.6142 16.2513ZM13.7368 18.6957V16.1038H13.4368V18.6957H13.7368ZM16.3634 18.5457H13.5868V18.8457H16.3634V18.5457ZM16.9101 19.1087C16.9101 18.8045 16.6701 18.5457 16.3634 18.5457V18.8457C16.4931 18.8457 16.6101 18.9586 16.6101 19.1087H16.9101ZM16.9101 21.587V19.1087H16.6101V21.587H16.9101ZM16.3634 22.15C16.6701 22.15 16.9101 21.8912 16.9101 21.587H16.6101C16.6101 21.7371 16.4931 21.85 16.3634 21.85V22.15ZM7.63676 22.15H16.3634V21.85H7.63676V22.15ZM7.0901 21.587C7.0901 21.8912 7.33009 22.15 7.63676 22.15V21.85C7.5071 21.85 7.3901 21.7371 7.3901 21.587H7.0901ZM7.0901 19.1087V21.587H7.3901V19.1087H7.0901ZM7.63676 18.5457C7.33009 18.5457 7.0901 18.8045 7.0901 19.1087H7.3901C7.3901 18.9586 7.5071 18.8457 7.63676 18.8457V18.5457ZM10.4134 18.5457H7.63676V18.8457H10.4134V18.5457ZM10.2634 16.1038V18.6957H10.5634V16.1038H10.2634ZM5.01377 11.3035C5.76268 13.8326 7.82843 15.7757 10.386 16.2513L10.4409 15.9563C8.00043 15.5025 6.02018 13.6456 5.30142 11.2183L5.01377 11.3035ZM2.87676 11.4109H5.1576V11.1109H2.87676V11.4109ZM-0.0499023 8.36957C-0.0499023 10.0368 1.26109 11.4109 2.87676 11.4109V11.1109C1.4381 11.1109 0.250098 9.88272 0.250098 8.36957H-0.0499023ZM-0.0499023 6.71739V8.36957H0.250098V6.71739H-0.0499023ZM2.08343 4.50217C0.904093 4.50217 -0.0499023 5.50446 -0.0499023 6.71739H0.250098C0.250098 5.65859 1.0811 4.80217 2.08343 4.80217V4.50217ZM4.8601 4.50217H2.08343V4.80217H4.8601V4.50217ZM4.7101 3.41304V4.65217H5.0101V3.41304H4.7101ZM5.25676 2.85C4.95009 2.85 4.7101 3.1088 4.7101 3.41304H5.0101C5.0101 3.26293 5.1271 3.15 5.25676 3.15V2.85ZM18.7434 2.85H5.25676V3.15H18.7434V2.85ZM19.2901 3.41304C19.2901 3.1088 19.0501 2.85 18.7434 2.85V3.15C18.8731 3.15 18.9901 3.26294 18.9901 3.41304H19.2901ZM19.2901 4.65217V3.41304H18.9901V4.65217H19.2901ZM4.8601 10.2848H2.87676V10.5848H4.8601V10.2848ZM4.7101 5.47826V10.4348H5.0101V5.47826H4.7101ZM2.08343 5.62826H4.8601V5.32826H2.08343V5.62826ZM1.04343 6.71739C1.04343 6.11293 1.51744 5.62826 2.08343 5.62826V5.32826C1.34043 5.32826 0.743431 5.9588 0.743431 6.71739H1.04343ZM1.04343 8.36957V6.71739H0.743431V8.36957H1.04343ZM2.87676 10.2848C1.87444 10.2848 1.04343 9.42837 1.04343 8.36957H0.743431C0.743431 9.5825 1.69743 10.5848 2.87676 10.5848V10.2848ZM15.8168 19.5217V21.1739H16.1168V19.5217H15.8168ZM12.8 19.6717H15.9668V19.3717H12.8V19.6717ZM12.65 15.3773V19.5217H12.95V15.3773H12.65ZM18.1968 9.19565C18.1968 12.3983 15.8013 15.0171 12.7895 15.2276L12.8104 15.5269C15.9884 15.3047 18.4968 12.5467 18.4968 9.19565H18.1968ZM18.1968 3.82609V9.19565H18.4968V3.82609H18.1968ZM5.65343 3.97609H18.3468V3.67609H5.65343V3.97609ZM5.80343 9.19565V3.82609H5.50343V9.19565H5.80343ZM11.2104 15.2276C8.19875 15.0169 5.80343 12.3982 5.80343 9.19565H5.50343C5.50343 12.5466 8.01161 15.3045 11.1895 15.5269L11.2104 15.2276ZM11.35 19.5217V15.3772H11.05V19.5217H11.35ZM8.03343 19.6717H11.2V19.3717H8.03343V19.6717ZM8.18343 21.1739V19.5217H7.88343V21.1739H8.18343ZM15.9668 21.0239H8.03343V21.3239H15.9668V21.0239ZM22.9568 8.36957C22.9568 9.42837 22.1258 10.2848 21.1234 10.2848V10.5848C22.3028 10.5848 23.2568 9.5825 23.2568 8.36957H22.9568ZM22.9568 6.71739V8.36957H23.2568V6.71739H22.9568ZM21.9168 5.62826C22.4828 5.62826 22.9568 6.11294 22.9568 6.71739H23.2568C23.2568 5.9588 22.6598 5.32826 21.9168 5.32826V5.62826ZM19.1401 5.62826H21.9168V5.32826H19.1401V5.62826ZM19.2901 10.4348V5.47826H18.9901V10.4348H19.2901ZM21.1234 10.2848H19.1401V10.5848H21.1234V10.2848Z" fill="#329964"/>
<path d="M10.7199 9.61068C10.3599 9.65068 10.0399 9.86068 9.85985 10.1707C9.67985 10.4807 9.64985 10.8607 9.77985 11.2007C9.91985 11.5307 10.1999 11.7907 10.5499 11.8807C10.6499 11.9107 10.7499 11.9207 10.8599 11.9207C11.1099 11.9207 11.3599 11.8407 11.5599 11.6807C11.8499 11.4607 12.0199 11.1207 12.0199 10.7607C12.0199 10.4507 11.8999 10.1607 11.6899 9.94068C11.4399 9.69068 11.0799 9.56068 10.7199 9.61068ZM10.8599 10.1907C11.0099 10.1907 11.1599 10.2507 11.2699 10.3607C11.3799 10.4707 11.4299 10.6107 11.4299 10.7607C11.4299 10.9407 11.3399 11.1007 11.1999 11.2107C11.0599 11.3207 10.8799 11.3507 10.7099 11.3107C10.5399 11.2607 10.3999 11.1407 10.3299 10.9707C10.2599 10.8107 10.2799 10.6207 10.3699 10.4707C10.4599 10.3207 10.6199 10.2107 10.7899 10.1907C10.8099 10.1907 10.8399 10.1907 10.8599 10.1907Z" fill="#329964"/>
<path d="M16.1895 7.51627L15.7395 7.06627L15.9395 6.86627C16.1695 6.62627 16.1695 6.24627 15.9295 6.01627L15.5995 5.67627C15.3695 5.44627 14.9795 5.43627 14.7395 5.67627L11.9095 8.50627C11.2495 8.20627 10.4795 8.21627 9.82949 8.54627C9.13949 8.89627 8.65949 9.55627 8.52949 10.3163C8.40949 11.0763 8.6595 11.8563 9.2095 12.4063C9.6595 12.8563 10.2795 13.1063 10.9195 13.1063C11.0495 13.1063 11.1795 13.0963 11.2995 13.0763C12.0595 12.9563 12.7195 12.4663 13.0695 11.7763C13.3995 11.1263 13.4095 10.3563 13.1095 9.69627L14.1195 8.68627L14.5795 9.14627C14.7595 9.32627 15.0695 9.32627 15.2495 9.14627L16.1995 8.19627C16.3695 7.99627 16.3695 7.69627 16.1895 7.51627ZM12.5895 9.36627C12.4595 9.49627 12.4295 9.69627 12.5195 9.85627C12.7895 10.3763 12.7895 10.9863 12.5295 11.5063C12.2695 12.0263 11.7695 12.3863 11.1995 12.4863C10.6295 12.5763 10.0395 12.3863 9.6295 11.9763C9.2195 11.5663 9.02949 10.9763 9.11949 10.4063C9.19949 9.82627 9.5695 9.32627 10.0895 9.06627C10.3395 8.93627 10.6195 8.87627 10.9095 8.87627C11.1995 8.87627 11.4895 8.94627 11.7395 9.07627C11.8995 9.16627 12.0995 9.13627 12.2295 9.00627L15.1695 6.08627L15.4995 6.44627L15.1895 6.75627C15.0295 6.91627 15.0295 7.18627 15.1895 7.34627L15.6795 7.84627L14.8895 8.63627L14.3895 8.13627C14.2295 7.97627 13.9595 7.97627 13.7995 8.13627L12.5895 9.36627Z" fill="#329964" stroke="#329964" stroke-width="0.1"/>
</g>
<defs>
<clipPath id="clip0_1252_7936">
<rect width="24" height="24" fill="white"/>
</clipPath>
</defs>
</svg>
