<svg width="24" height="24" viewBox="0 0 24 24" fill="none" xmlns="http://www.w3.org/2000/svg">
<path d="M14.6598 13.4547L14.3218 12.8994C14.103 13.0326 13.9829 13.2819 14.0149 13.536C14.0469 13.7901 14.2252 14.0017 14.4702 14.0764L14.6598 13.4547ZM9.36629 13.4547L9.55587 14.0764C9.80086 14.0017 9.97914 13.7901 10.0112 13.536C10.0432 13.2819 9.92305 13.0326 9.70427 12.8994L9.36629 13.4547ZM3.00537 21.1257L3.6515 21.1965L3.6515 21.1965L3.00537 21.1257ZM21.0207 21.1257L21.6668 21.0549L21.6668 21.0549L21.0207 21.1257ZM16.4604 9.0974C16.4604 10.7072 15.6055 12.118 14.3218 12.8994L14.9978 14.0099C16.6528 13.0024 17.7604 11.1795 17.7604 9.0974H16.4604ZM12.013 4.65C14.4693 4.65 16.4604 6.64117 16.4604 9.0974H17.7604C17.7604 5.9232 15.1872 3.35 12.013 3.35V4.65ZM7.56564 9.0974C7.56564 6.64117 9.55681 4.65 12.013 4.65V3.35C8.83884 3.35 6.26564 5.9232 6.26564 9.0974H7.56564ZM9.70427 12.8994C8.42056 12.118 7.56564 10.7072 7.56564 9.0974H6.26564C6.26564 11.1795 7.37325 13.0024 9.02831 14.0099L9.70427 12.8994ZM9.17672 12.8329C5.52564 13.9462 2.78702 17.1515 2.35924 21.0549L3.6515 21.1965C4.02165 17.8191 6.39332 15.0407 9.55587 14.0764L9.17672 12.8329ZM2.35924 21.0549C2.2517 22.0361 3.06117 22.7741 3.951 22.7741V21.4741C3.8519 21.4741 3.7689 21.4339 3.71593 21.3791C3.6659 21.3273 3.6439 21.2658 3.6515 21.1965L2.35924 21.0549ZM3.951 22.7741H20.0751V21.4741H3.951V22.7741ZM20.0751 22.7741C20.9649 22.7741 21.7744 22.0361 21.6668 21.0549L20.3746 21.1965C20.3822 21.2658 20.3602 21.3273 20.3102 21.3791C20.2572 21.4339 20.1742 21.4741 20.0751 21.4741V22.7741ZM21.6668 21.0549C21.2391 17.1515 18.5004 13.9462 14.8494 12.8329L14.4702 14.0764C17.6328 15.0407 20.0044 17.8191 20.3746 21.1965L21.6668 21.0549Z" fill="#329964"/>
</svg>
