<svg width="375" height="369" viewBox="0 0 375 369" fill="none" xmlns="http://www.w3.org/2000/svg">
<path d="M173.496 94.8382C171.905 94.4704 170.315 94.1375 168.725 93.8395C130.01 86.5567 75.0297 100.359 56.7619 157.253C46.2188 190.088 48.2232 228.468 61.2487 259.565C79.8173 303.894 115.735 320.399 149.756 326.182C176.976 330.809 205.077 331.941 232.235 325.937C264.449 318.815 304.196 299.928 319.711 254.784C324.896 239.696 326.212 222.736 323.908 206.27C319.258 173.038 297.432 156.854 276.581 148.917C264.03 144.141 251.07 141.032 239.016 133.868C227.097 126.78 216.408 116.156 204.785 108.192C194.987 101.475 184.25 97.3281 173.496 94.8382Z" fill="#4CAF5B" fill-opacity="0.05"/>
<g filter="url(#filter0_d_1763_29673)">
<path d="M169.617 273.023L163.352 267.846L168.064 261.477L174.742 266.655C176.573 267.695 178.723 268.022 180.78 267.574C182.837 267.126 184.656 265.934 185.889 264.227C187.121 262.52 187.679 260.418 187.457 258.324C187.234 256.231 186.246 254.293 184.683 252.883L162.938 236.937L152.842 250.657L154.447 251.847L149.735 258.216L148.182 257.077L137.827 270.797L159.573 286.743C161.392 288.075 163.666 288.63 165.894 288.285C166.998 288.114 168.057 287.728 169.011 287.148C169.965 286.568 170.795 285.806 171.455 284.905C172.114 284.004 172.59 282.982 172.854 281.898C173.119 280.813 173.167 279.687 172.997 278.584C172.826 277.48 172.44 276.421 171.86 275.467C171.28 274.513 170.518 273.683 169.617 273.023Z" fill="#F9C40B" stroke="#212121" stroke-width="1.6"/>
<g style="mix-blend-mode:multiply">
<g style="mix-blend-mode:multiply">
<path d="M171.221 242.891L163.093 236.937L152.997 250.657L154.602 251.847L149.89 258.216L148.337 257.077L137.982 270.797L145.541 276.337C145.541 276.337 165.94 249.103 171.221 242.891Z" fill="#F9C40B"/>
</g>
</g>
<path d="M138.708 280.429C138.021 281.375 137.153 282.175 136.156 282.784C135.158 283.392 134.049 283.797 132.894 283.975C131.739 284.153 130.56 284.101 129.425 283.821C128.29 283.541 127.222 283.039 126.282 282.345C125.336 281.658 124.536 280.79 123.928 279.792C123.319 278.794 122.914 277.686 122.736 276.531C122.557 275.376 122.61 274.197 122.89 273.062C123.17 271.927 123.672 270.859 124.366 269.919L192.501 177.139C193.897 175.241 195.989 173.973 198.318 173.614C200.647 173.255 203.024 173.834 204.927 175.224C205.874 175.916 206.676 176.788 207.285 177.79C207.894 178.792 208.3 179.905 208.478 181.065C208.656 182.224 208.603 183.407 208.322 184.546C208.042 185.685 207.539 186.757 206.843 187.701L138.708 280.429Z" fill="#F9C40B" stroke="#212121" stroke-width="1.6"/>
<path d="M238.477 129.609C233.086 125.654 226.643 123.385 219.964 123.091C213.284 122.797 206.667 124.489 200.95 127.955C195.232 131.421 190.671 136.505 187.842 142.563C185.013 148.621 184.044 155.382 185.058 161.991C186.071 168.6 189.021 174.76 193.535 179.692C198.049 184.624 203.924 188.107 210.418 189.701C216.911 191.294 223.731 190.927 230.016 188.645C236.3 186.362 241.767 182.268 245.725 176.879C248.354 173.299 250.251 169.237 251.31 164.924C252.368 160.611 252.567 156.132 251.893 151.742C251.22 147.353 249.689 143.139 247.387 139.341C245.085 135.543 242.057 132.236 238.477 129.609ZM207.723 171.443C204.746 169.276 202.479 166.275 201.21 162.818C199.941 159.362 199.728 155.607 200.596 152.029C201.465 148.451 203.376 145.212 206.088 142.722C208.8 140.232 212.191 138.603 215.83 138.043C219.468 137.483 223.192 138.016 226.527 139.574C229.863 141.133 232.661 143.647 234.565 146.798C236.47 149.949 237.396 153.594 237.226 157.272C237.056 160.95 235.797 164.494 233.61 167.456C230.695 171.403 226.337 174.037 221.488 174.784C216.638 175.531 211.69 174.33 207.723 171.443Z" fill="#F9C40B" stroke="#212121" stroke-width="1.6"/>
<g style="mix-blend-mode:multiply">
<path d="M230.658 141.414C229.673 140.909 228.652 140.476 227.604 140.12C228.341 140.52 229.051 140.969 229.726 141.466C232.48 143.488 234.623 146.229 235.921 149.388C237.219 152.548 237.62 156.004 237.082 159.377C236.544 162.75 235.087 165.91 232.871 168.509C230.655 171.108 227.765 173.047 224.519 174.111C221.273 175.175 217.797 175.325 214.472 174.543C211.147 173.761 208.102 172.078 205.671 169.678C203.24 167.279 201.517 164.256 200.691 160.941C199.866 157.626 199.97 154.148 200.992 150.889C199.733 153.13 198.951 155.606 198.692 158.162C198.434 160.719 198.706 163.301 199.49 165.748C203.425 177.19 218.906 180.815 228.794 174.964C240.599 167.923 244.379 148.663 230.658 141.414Z" fill="#F9C40B"/>
</g>
<path d="M189.861 218.454C189.251 219.204 188.385 219.703 187.43 219.856C186.475 220.009 185.498 219.805 184.684 219.282L169.151 208.203C168.401 207.592 167.902 206.727 167.749 205.772C167.596 204.817 167.801 203.839 168.323 203.025C168.621 202.608 168.999 202.254 169.436 201.985C169.873 201.717 170.359 201.538 170.866 201.461C171.373 201.384 171.89 201.409 172.387 201.536C172.884 201.662 173.351 201.887 173.759 202.197L188.877 213.277C189.698 213.895 190.244 214.81 190.399 215.826C190.554 216.842 190.305 217.878 189.706 218.713L189.861 218.454Z" fill="#FFA114" stroke="#212121" stroke-width="1.6"/>
</g>
<path fill-rule="evenodd" clip-rule="evenodd" d="M56.7893 130.256L59.5952 142.049C59.5952 142.049 54.3507 142.641 54.2743 147.534C54.1978 152.426 66.5285 157.584 66.5285 157.584L69.0209 167.758C69.0209 167.758 56.4395 166.401 52.3682 148.68C48.9916 133.953 56.7893 130.256 56.7893 130.256Z" fill="#415DA6"/>
<path fill-rule="evenodd" clip-rule="evenodd" d="M308.957 205.742L299.402 209.886C299.402 209.886 298.114 205.538 293.964 206.208C289.813 206.877 287.301 218.082 287.301 218.082L279.068 221.717C279.068 221.717 278.328 210.871 292.708 204.767C304.66 199.701 308.957 205.742 308.957 205.742Z" fill="#FA9B23"/>
<path fill-rule="evenodd" clip-rule="evenodd" d="M196.15 30.4966L196.942 36.7383C196.942 36.7383 200.015 36.0423 201.042 38.3993C202.07 40.7563 196.164 45.5683 196.164 45.5683L196.807 50.9668C196.807 50.9668 203.619 47.95 202.346 38.5975C201.285 30.8262 196.15 30.4966 196.15 30.4966Z" fill="#FA9B23"/>
<path fill-rule="evenodd" clip-rule="evenodd" d="M235.603 298.557L235.067 289.07C235.067 289.07 228.611 289.746 226.878 286.089C225.144 282.432 238.209 275.872 238.209 275.872L237.817 267.667C237.817 267.667 223.207 271.409 224.213 285.647C225.045 297.458 235.603 298.557 235.603 298.557Z" fill="#DE5159"/>
<path fill-rule="evenodd" clip-rule="evenodd" d="M129.889 79.1794L128.406 69.4429C128.406 69.4429 134.687 68.8511 135.567 64.7953C136.447 60.7396 122.647 56.6679 122.647 56.6679L121.297 48.2608C121.297 48.2608 135.975 49.1669 138.008 63.8189C139.698 75.9733 129.889 79.1794 129.889 79.1794Z" fill="#DE5159"/>
<path fill-rule="evenodd" clip-rule="evenodd" d="M52.6839 272.482C52.8696 272.352 53.0995 272.3 53.3231 272.338C53.5466 272.377 53.7454 272.503 53.8759 272.688L59.2083 280.261L60.2159 274.549C60.2292 274.472 60.2576 274.398 60.2995 274.331C60.3415 274.265 60.3961 274.208 60.4602 274.163C60.5243 274.118 60.5967 274.085 60.6732 274.068C60.7497 274.051 60.8288 274.049 60.906 274.063C61.0589 274.094 61.194 274.182 61.2837 274.31C61.3734 274.437 61.4111 274.594 61.389 274.749L60.3884 280.471L67.9795 275.126C68.1661 274.996 68.3966 274.944 68.6207 274.983C68.8448 275.022 69.0443 275.147 69.1757 275.333C69.3049 275.519 69.3551 275.749 69.3157 275.972C69.2762 276.195 69.1501 276.394 68.9649 276.526L61.3738 281.871L67.0986 282.858C67.2515 282.889 67.3866 282.977 67.4763 283.105C67.5661 283.232 67.6037 283.389 67.5816 283.544C67.5683 283.621 67.5398 283.695 67.4979 283.761C67.456 283.827 67.4014 283.885 67.3373 283.93C67.2732 283.975 67.2008 284.007 67.1243 284.024C67.0478 284.041 66.9687 284.043 66.8915 284.03L61.1685 283.045L66.4956 290.611C66.626 290.796 66.6774 291.026 66.6383 291.249C66.5992 291.473 66.473 291.672 66.2873 291.802C66.1014 291.933 65.8713 291.985 65.6474 291.947C65.4235 291.909 65.2241 291.784 65.0928 291.599L59.7604 284.025L58.7581 289.745C58.745 289.822 58.7167 289.896 58.675 289.962C58.6332 290.028 58.5788 290.085 58.5149 290.13C58.451 290.175 58.3788 290.207 58.3026 290.224C58.2263 290.241 58.1474 290.243 58.0705 290.229C57.9935 290.216 57.9199 290.188 57.8539 290.147C57.7879 290.105 57.7308 290.051 57.6859 289.987C57.641 289.923 57.6091 289.851 57.5923 289.775C57.5754 289.699 57.5738 289.62 57.5875 289.543L58.5881 283.821L50.9945 289.168C50.8085 289.298 50.5789 289.349 50.3556 289.31C50.1323 289.272 49.9335 289.147 49.8026 288.962C49.6728 288.776 49.6216 288.547 49.6603 288.323C49.699 288.1 49.8243 287.9 50.0091 287.768L57.6027 282.421L51.8779 281.434C51.8009 281.421 51.7273 281.393 51.6612 281.352C51.5952 281.31 51.5381 281.256 51.4932 281.192C51.4483 281.128 51.4165 281.056 51.3996 280.98C51.3828 280.904 51.3812 280.825 51.3949 280.748C51.4081 280.671 51.4363 280.598 51.4781 280.532C51.5198 280.466 51.5742 280.408 51.6381 280.363C51.702 280.318 51.7742 280.286 51.8505 280.269C51.9267 280.252 52.0056 280.251 52.0825 280.264L57.8055 281.249L52.4731 273.676C52.3432 273.49 52.2924 273.26 52.3319 273.036C52.3714 272.812 52.498 272.613 52.6839 272.482Z" fill="#FA9B23"/>
<path fill-rule="evenodd" clip-rule="evenodd" d="M276.684 36.8719C276.87 36.7412 277.1 36.6894 277.323 36.7279C277.547 36.7665 277.745 36.8922 277.876 37.0775L283.208 44.6508L284.216 38.9383C284.229 38.8612 284.258 38.7873 284.3 38.7211C284.341 38.6548 284.396 38.5975 284.46 38.5523C284.524 38.5072 284.597 38.4751 284.673 38.458C284.75 38.4408 284.829 38.439 284.906 38.4524C285.059 38.4837 285.194 38.572 285.284 38.6995C285.373 38.827 285.411 38.9839 285.389 39.1384L284.388 44.8609L291.979 39.516C292.166 39.3856 292.397 39.3341 292.621 39.3727C292.845 39.4114 293.044 39.537 293.176 39.7222C293.305 39.9084 293.355 40.1382 293.316 40.3616C293.276 40.585 293.15 40.7841 292.965 40.9155L285.374 46.2604L291.099 47.2475C291.251 47.2787 291.387 47.3671 291.476 47.4946C291.566 47.622 291.604 47.779 291.582 47.9335C291.568 48.0107 291.54 48.0845 291.498 48.1508C291.456 48.217 291.401 48.2743 291.337 48.3195C291.273 48.3646 291.201 48.3967 291.124 48.4139C291.048 48.431 290.969 48.4329 290.891 48.4194L285.168 47.4348L290.496 55.0006C290.626 55.1858 290.677 55.4154 290.638 55.6389C290.599 55.8623 290.473 56.0613 290.287 56.192C290.101 56.3229 289.871 56.375 289.647 56.3368C289.423 56.2986 289.224 56.1733 289.093 55.9883L283.76 48.4149L282.758 54.1349C282.745 54.2119 282.717 54.2855 282.675 54.3515C282.633 54.4176 282.579 54.4748 282.515 54.5198C282.451 54.5648 282.379 54.5967 282.303 54.6138C282.226 54.6308 282.147 54.6326 282.071 54.619C281.994 54.6061 281.92 54.578 281.854 54.5364C281.788 54.4948 281.731 54.4406 281.686 54.3768C281.641 54.3131 281.609 54.241 281.592 54.1649C281.575 54.0887 281.574 54.0099 281.588 53.933L282.588 48.2106L274.994 53.5573C274.809 53.6872 274.579 53.7385 274.356 53.7C274.132 53.6615 273.934 53.5363 273.803 53.3517C273.673 53.166 273.622 52.9364 273.66 52.7129C273.699 52.4893 273.824 52.2898 274.009 52.1578L281.603 46.8111L275.878 45.824C275.801 45.811 275.727 45.7829 275.661 45.7414C275.595 45.6998 275.538 45.6456 275.493 45.5818C275.448 45.518 275.417 45.446 275.4 45.3698C275.383 45.2936 275.381 45.2148 275.395 45.138C275.408 45.061 275.436 44.9874 275.478 44.9213C275.52 44.8552 275.574 44.7981 275.638 44.7531C275.702 44.7081 275.774 44.6761 275.85 44.6591C275.927 44.6421 276.006 44.6403 276.082 44.6539L281.806 45.6385L276.473 38.0652C276.343 37.8792 276.292 37.6492 276.332 37.4256C276.371 37.2019 276.498 37.0028 276.684 36.8719Z" fill="#0CB49B"/>
<path fill-rule="evenodd" clip-rule="evenodd" d="M294.684 166.48C294.871 166.351 295.101 166.3 295.324 166.339C295.548 166.378 295.747 166.504 295.878 166.688L301.21 174.262L302.211 168.539C302.242 168.386 302.331 168.25 302.459 168.159C302.587 168.069 302.745 168.031 302.901 168.053C303.054 168.084 303.19 168.173 303.28 168.301C303.371 168.429 303.408 168.587 303.385 168.742L302.383 174.462L309.972 169.119C310.158 168.988 310.389 168.937 310.613 168.975C310.837 169.014 311.036 169.14 311.168 169.325C311.298 169.511 311.349 169.741 311.31 169.965C311.271 170.189 311.145 170.389 310.959 170.521L303.37 175.864L309.095 176.851C309.248 176.882 309.383 176.97 309.473 177.098C309.563 177.225 309.6 177.382 309.578 177.537C309.547 177.691 309.458 177.827 309.33 177.917C309.201 178.007 309.043 178.045 308.888 178.023L303.161 177.037L308.493 184.611C308.623 184.796 308.674 185.026 308.635 185.25C308.597 185.473 308.471 185.673 308.287 185.805C308.1 185.935 307.869 185.987 307.645 185.948C307.421 185.909 307.222 185.784 307.09 185.598L301.758 178.025L300.755 183.749C300.723 183.902 300.635 184.037 300.507 184.127C300.379 184.217 300.222 184.255 300.067 184.233C299.99 184.22 299.917 184.192 299.851 184.151C299.785 184.109 299.727 184.055 299.683 183.991C299.638 183.927 299.606 183.855 299.589 183.779C299.572 183.703 299.571 183.624 299.584 183.547L300.585 177.825L292.996 183.168C292.81 183.298 292.58 183.348 292.356 183.309C292.133 183.27 291.934 183.145 291.803 182.96C291.673 182.774 291.622 182.545 291.66 182.321C291.699 182.098 291.824 181.898 292.009 181.766L299.603 176.419L293.88 175.435C293.802 175.422 293.729 175.393 293.662 175.352C293.596 175.31 293.539 175.256 293.494 175.192C293.449 175.128 293.417 175.055 293.4 174.979C293.383 174.903 293.381 174.823 293.395 174.746C293.427 174.594 293.515 174.458 293.643 174.368C293.771 174.278 293.928 174.24 294.082 174.262L299.807 175.249L294.475 167.676C294.345 167.49 294.294 167.26 294.333 167.036C294.372 166.812 294.498 166.612 294.684 166.48Z" fill="#DE5159"/>
<path fill-rule="evenodd" clip-rule="evenodd" d="M106.265 196.244L103.524 208.049C103.524 208.049 108.772 208.613 108.875 213.505C108.979 218.397 96.6767 223.623 96.6767 223.623L94.2403 233.81C94.2403 233.81 106.814 232.384 110.788 214.641C114.083 199.898 106.265 196.244 106.265 196.244Z" fill="#0CB49B"/>
<path fill-rule="evenodd" clip-rule="evenodd" d="M321.327 110.496L311.682 113.097C311.682 113.097 311.015 108.642 306.97 108.664C302.926 108.687 299.084 119.282 299.084 119.282L290.764 121.587C290.764 121.587 291.457 110.848 305.958 107.062C318.008 103.922 321.327 110.496 321.327 110.496Z" fill="#0CB49B"/>
<path fill-rule="evenodd" clip-rule="evenodd" d="M300.684 269.482C300.871 269.353 301.101 269.302 301.324 269.341C301.548 269.38 301.747 269.506 301.878 269.69L307.21 277.264L308.211 271.541C308.242 271.388 308.331 271.252 308.459 271.161C308.587 271.071 308.745 271.033 308.901 271.055C309.054 271.086 309.19 271.175 309.28 271.303C309.371 271.431 309.408 271.589 309.385 271.744L308.385 277.466L315.976 272.121C316.162 271.99 316.392 271.938 316.616 271.977C316.84 272.015 317.039 272.14 317.17 272.325C317.301 272.511 317.352 272.741 317.312 272.965C317.273 273.189 317.147 273.389 316.961 273.521L309.37 278.866L315.095 279.853C315.248 279.884 315.383 279.972 315.473 280.1C315.563 280.227 315.6 280.384 315.578 280.539C315.565 280.616 315.536 280.69 315.494 280.756C315.452 280.822 315.398 280.88 315.334 280.925C315.27 280.97 315.197 281.002 315.121 281.019C315.044 281.036 314.965 281.038 314.888 281.025L309.163 280.038L314.504 287.623C314.634 287.809 314.685 288.038 314.646 288.262C314.607 288.485 314.481 288.684 314.296 288.815C314.11 288.945 313.88 288.997 313.656 288.958C313.433 288.92 313.233 288.795 313.102 288.611L307.76 281.025L306.76 286.748C306.747 286.825 306.718 286.898 306.677 286.964C306.635 287.03 306.581 287.088 306.517 287.133C306.453 287.178 306.381 287.21 306.304 287.227C306.228 287.244 306.149 287.245 306.072 287.232C305.995 287.219 305.922 287.191 305.856 287.149C305.79 287.108 305.733 287.053 305.688 286.99C305.643 286.926 305.611 286.854 305.594 286.778C305.577 286.702 305.576 286.623 305.589 286.546L306.59 280.823L298.996 286.17C298.81 286.3 298.58 286.352 298.356 286.313C298.132 286.274 297.933 286.148 297.803 285.962C297.738 285.87 297.692 285.767 297.668 285.657C297.643 285.548 297.641 285.434 297.66 285.324C297.679 285.213 297.72 285.107 297.78 285.012C297.841 284.918 297.919 284.835 298.011 284.771L305.604 279.424L299.88 278.437C299.802 278.424 299.729 278.395 299.662 278.354C299.596 278.312 299.539 278.258 299.494 278.194C299.449 278.13 299.417 278.057 299.4 277.981C299.383 277.905 299.381 277.825 299.395 277.748C299.427 277.595 299.515 277.46 299.643 277.37C299.771 277.28 299.928 277.242 300.083 277.264L305.807 278.251L300.475 270.678C300.345 270.492 300.294 270.262 300.333 270.038C300.372 269.814 300.498 269.614 300.684 269.482Z" fill="#415DA6"/>
<path fill-rule="evenodd" clip-rule="evenodd" d="M160.247 133.925C160.926 133.448 161.449 132.78 161.749 132.007C162.049 131.233 162.112 130.389 161.932 129.58C161.751 128.772 161.334 128.035 160.734 127.464C160.134 126.893 159.378 126.514 158.56 126.373C157.743 126.232 156.902 126.337 156.144 126.674C155.385 127.012 154.743 127.566 154.299 128.267C153.855 128.968 153.629 129.784 153.649 130.613C153.67 131.442 153.935 132.245 154.413 132.922C155.054 133.825 156.028 134.438 157.121 134.626C158.214 134.814 159.338 134.562 160.247 133.925Z" fill="#FA9B23"/>
<path fill-rule="evenodd" clip-rule="evenodd" d="M253.247 348.925C253.926 348.448 254.449 347.78 254.749 347.007C255.049 346.233 255.112 345.389 254.932 344.58C254.751 343.772 254.334 343.035 253.734 342.464C253.134 341.893 252.378 341.514 251.56 341.373C250.743 341.232 249.902 341.337 249.144 341.674C248.385 342.012 247.743 342.566 247.299 343.267C246.855 343.968 246.629 344.784 246.649 345.613C246.67 346.442 246.935 347.245 247.413 347.922C248.054 348.825 249.028 349.438 250.121 349.626C251.214 349.814 252.338 349.562 253.247 348.925Z" fill="#0CB49B"/>
<path fill-rule="evenodd" clip-rule="evenodd" d="M86.6814 96.072L92.4531 97.936L98.2832 96.2314L98.2832 102.298L101.694 107.307L95.9201 109.193L92.1982 113.993L88.6276 109.093L82.9204 107.048L86.4882 102.136L86.6814 96.072Z" fill="#0CB49B"/>
<path fill-rule="evenodd" clip-rule="evenodd" d="M219.681 85.072L225.451 86.9335L231.283 85.2314L231.281 91.2954L234.692 96.3048L228.918 98.1907L225.196 102.991L221.63 98.091L215.92 96.0484L219.486 91.1335L219.681 85.072Z" fill="#415DA6"/>
<path fill-rule="evenodd" clip-rule="evenodd" d="M140.681 323.398L146.451 325.259L152.283 323.557L152.281 329.621L155.692 334.63L149.918 336.516L146.196 341.316L142.63 336.417L136.92 334.374L140.486 329.459L140.681 323.398Z" fill="#415DA6"/>
<defs>
<filter id="filter0_d_1763_29673" x="80" y="103.053" width="208" height="208" filterUnits="userSpaceOnUse" color-interpolation-filters="sRGB">
<feFlood flood-opacity="0" result="BackgroundImageFix"/>
<feColorMatrix in="SourceAlpha" type="matrix" values="0 0 0 0 0 0 0 0 0 0 0 0 0 0 0 0 0 0 127 0" result="hardAlpha"/>
<feOffset dy="2"/>
<feGaussianBlur stdDeviation="2"/>
<feComposite in2="hardAlpha" operator="out"/>
<feColorMatrix type="matrix" values="0 0 0 0 0.129412 0 0 0 0 0.129412 0 0 0 0 0.129412 0 0 0 0.5 0"/>
<feBlend mode="normal" in2="BackgroundImageFix" result="effect1_dropShadow_1763_29673"/>
<feBlend mode="normal" in="SourceGraphic" in2="effect1_dropShadow_1763_29673" result="shape"/>
</filter>
</defs>
</svg>
