<svg width="24" height="24" viewBox="0 0 24 24" fill="none" xmlns="http://www.w3.org/2000/svg">
<path fill-rule="evenodd" clip-rule="evenodd" d="M19.2 4.65217H22C23.1 4.65217 24 5.58152 24 6.71739V8.36957C24 9.95978 22.74 11.2609 21.2 11.2609H18.9C18.16 13.7495 16.12 15.6391 13.6 16.1038V18.6957H16.4C16.62 18.6957 16.8 18.8815 16.8 19.1087V21.587C16.8 21.8141 16.62 22 16.4 22H7.6C7.38 22 7.2 21.8141 7.2 21.587V19.1087C7.2 18.8815 7.38 18.6957 7.6 18.6957H10.4V16.1038C7.88 15.6391 5.84 13.7391 5.1 11.2609H2.8C1.26 11.2609 0 9.95978 0 8.36957V6.71739C0 5.58152 0.9 4.65217 2 4.65217H4.8V3.41304C4.8 3.18587 4.98 3 5.2 3H18.8C19.02 3 19.2 3.18587 19.2 3.41304V4.65217ZM2.8 10.4348H4.8V5.47826H2C1.34 5.47826 0.8 6.03587 0.8 6.71739V8.36957C0.8 9.50544 1.7 10.4348 2.8 10.4348ZM16 21.1739V19.5217H12.8V18.6957H12.8V16.2174H12.8V15.3777C15.924 15.1647 18.4 12.4748 18.4 9.19565V3.82609H5.6V9.19565C5.6 12.4748 8.07596 15.1646 11.2 15.3777V19.5217H8V21.1739H16ZM21.2 10.4348C22.3 10.4348 23.2 9.50544 23.2 8.36957V6.71739C23.2 6.03587 22.66 5.47826 22 5.47826H19.2V10.4348H21.2Z" fill="#C5C5C5"/>
<path d="M10.7199 9.61068C10.3599 9.65068 10.0399 9.86068 9.85985 10.1707C9.67985 10.4807 9.64985 10.8607 9.77985 11.2007C9.91985 11.5307 10.1999 11.7907 10.5499 11.8807C10.6499 11.9107 10.7499 11.9207 10.8599 11.9207C11.1099 11.9207 11.3599 11.8407 11.5599 11.6807C11.8499 11.4607 12.0199 11.1207 12.0199 10.7607C12.0199 10.4507 11.8999 10.1607 11.6899 9.94068C11.4399 9.69068 11.0799 9.56068 10.7199 9.61068ZM10.8599 10.1907C11.0099 10.1907 11.1599 10.2507 11.2699 10.3607C11.3799 10.4707 11.4299 10.6107 11.4299 10.7607C11.4299 10.9407 11.3399 11.1007 11.1999 11.2107C11.0599 11.3207 10.8799 11.3507 10.7099 11.3107C10.5399 11.2607 10.3999 11.1407 10.3299 10.9707C10.2599 10.8107 10.2799 10.6207 10.3699 10.4707C10.4599 10.3207 10.6199 10.2107 10.7899 10.1907C10.8099 10.1907 10.8399 10.1907 10.8599 10.1907Z" fill="#C5C5C5"/>
<path d="M16.1895 7.51627L15.7395 7.06627L15.9395 6.86627C16.1695 6.62627 16.1695 6.24627 15.9295 6.01627L15.5995 5.67627C15.3695 5.44627 14.9795 5.43627 14.7395 5.67627L11.9095 8.50627C11.2495 8.20627 10.4795 8.21627 9.82949 8.54627C9.13949 8.89627 8.65949 9.55627 8.52949 10.3163C8.40949 11.0763 8.6595 11.8563 9.2095 12.4063C9.6595 12.8563 10.2795 13.1063 10.9195 13.1063C11.0495 13.1063 11.1795 13.0963 11.2995 13.0763C12.0595 12.9563 12.7195 12.4663 13.0695 11.7763C13.3995 11.1263 13.4095 10.3563 13.1095 9.69627L14.1195 8.68627L14.5795 9.14627C14.7595 9.32627 15.0695 9.32627 15.2495 9.14627L16.1995 8.19627C16.3695 7.99627 16.3695 7.69627 16.1895 7.51627ZM12.5895 9.36627C12.4595 9.49627 12.4295 9.69627 12.5195 9.85627C12.7895 10.3763 12.7895 10.9863 12.5295 11.5063C12.2695 12.0263 11.7695 12.3863 11.1995 12.4863C10.6295 12.5763 10.0395 12.3863 9.6295 11.9763C9.2195 11.5663 9.02949 10.9763 9.11949 10.4063C9.19949 9.82627 9.5695 9.32627 10.0895 9.06627C10.3395 8.93627 10.6195 8.87627 10.9095 8.87627C11.1995 8.87627 11.4895 8.94627 11.7395 9.07627C11.8995 9.16627 12.0995 9.13627 12.2295 9.00627L15.1695 6.08627L15.4995 6.44627L15.1895 6.75627C15.0295 6.91627 15.0295 7.18627 15.1895 7.34627L15.6795 7.84627L14.8895 8.63627L14.3895 8.13627C14.2295 7.97627 13.9595 7.97627 13.7995 8.13627L12.5895 9.36627Z" fill="#C5C5C5"/>
</svg>
