<svg width="24" height="24" viewBox="0 0 24 24" fill="none" xmlns="http://www.w3.org/2000/svg">
<path d="M23.2552 12.3943L22.1952 11.5643L20.7452 10.4643L20.6052 10.3943L19.6052 9.61425L16.5052 7.20425L13.8352 5.07425C13.4052 4.73425 12.9852 4.38425 12.5352 4.07425C12.4554 4.02569 12.3637 4 12.2702 4C12.1768 4 12.0851 4.02569 12.0052 4.07425L10.9352 4.90425L8.37524 6.90425L5.25524 9.29425L2.59524 11.3943L1.30524 12.3943H1.25524C1.13757 12.4722 1.05301 12.591 1.01791 12.7277C0.98281 12.8644 0.999674 13.0093 1.06524 13.1343C1.09855 13.1955 1.14383 13.2494 1.1984 13.2928C1.25296 13.3362 1.31569 13.3682 1.38286 13.3868C1.45003 13.4055 1.52026 13.4104 1.58939 13.4014C1.65851 13.3924 1.72512 13.3695 1.78524 13.3343L2.84524 12.5043L3.59524 11.9243V21.6343C3.58964 21.9299 3.69916 22.2162 3.90067 22.4326C4.10219 22.6491 4.37992 22.7787 4.67524 22.7943C5.10524 22.7943 5.54524 22.7943 5.97524 22.7943H9.95524C10.0967 22.7916 10.2315 22.7336 10.3306 22.6326C10.4297 22.5316 10.4853 22.3958 10.4852 22.2543V16.5943H14.0452V22.2643C14.0452 22.4058 14.1007 22.5416 14.1998 22.6426C14.299 22.7436 14.4338 22.8016 14.5752 22.8043H19.6952C19.861 22.8173 20.0277 22.7936 20.1832 22.7348C20.3388 22.676 20.4795 22.5837 20.5952 22.4643C20.8069 22.2132 20.9174 21.8924 20.9052 21.5643V13.7743C20.9052 13.1643 20.9052 12.5543 20.9052 11.9443L21.3852 12.3243C21.8152 12.6543 22.2352 13.0143 22.6852 13.3243C22.7446 13.3593 22.8104 13.382 22.8788 13.3909C22.9472 13.3998 23.0166 13.3948 23.083 13.3761C23.1494 13.3574 23.2113 13.3255 23.2649 13.2822C23.3186 13.2389 23.3629 13.1852 23.3952 13.1243C23.4652 13.0065 23.4896 12.8672 23.4638 12.7327C23.438 12.5982 23.3638 12.4778 23.2552 12.3943ZM19.8752 21.6643C19.4252 21.6643 18.9752 21.6643 18.5252 21.6643H15.0852V16.6143C15.0887 16.3429 14.9927 16.0796 14.8152 15.8743C14.676 15.7304 14.5045 15.6219 14.315 15.5575C14.1254 15.4932 13.9233 15.4749 13.7252 15.5043H10.5252C10.2326 15.5069 9.95281 15.625 9.74681 15.8329C9.5408 16.0408 9.42523 16.3216 9.42524 16.6143V21.7243H4.69524V13.7243C4.69524 12.8643 4.69524 12.0043 4.69524 11.1443L5.45524 10.5443L8.53524 8.09425L11.2552 6.01425C11.6052 5.73425 11.9652 5.47425 12.3152 5.20425L13.1052 5.82425L15.6652 7.82425L18.7652 10.2443L19.8952 11.1243V21.6443L19.8752 21.6643Z" fill="#C5C5C5"/>
</svg>
