<svg width="24" height="24" viewBox="0 0 24 24" fill="none" xmlns="http://www.w3.org/2000/svg">
<path d="M14.6598 13.4547L14.4128 13.0489C14.2529 13.1462 14.1651 13.3284 14.1885 13.5141C14.2119 13.6998 14.3422 13.8544 14.5213 13.909L14.6598 13.4547ZM9.36629 13.4547L9.50483 13.909C9.68386 13.8544 9.81414 13.6998 9.83756 13.5141C9.86098 13.3284 9.77316 13.1462 9.61328 13.0489L9.36629 13.4547ZM3.00537 21.1257L3.47754 21.1774L3.00537 21.1257ZM21.0207 21.1257L21.4929 21.0739L21.0207 21.1257ZM16.6354 9.0974C16.6354 10.7708 15.7465 12.2371 14.4128 13.0489L14.9068 13.8604C16.5118 12.8833 17.5854 11.116 17.5854 9.0974H16.6354ZM12.013 4.475C14.5659 4.475 16.6354 6.54452 16.6354 9.0974H17.5854C17.5854 6.01985 15.0906 3.525 12.013 3.525V4.475ZM7.39064 9.0974C7.39064 6.54452 9.46016 4.475 12.013 4.475V3.525C8.93549 3.525 6.44064 6.01985 6.44064 9.0974H7.39064ZM9.61328 13.0489C8.27958 12.2371 7.39064 10.7708 7.39064 9.0974H6.44064C6.44064 11.116 7.51424 12.8833 9.11931 13.8604L9.61328 13.0489ZM9.22776 13.0003C5.64245 14.0935 2.95322 17.2414 2.5332 21.0739L3.47754 21.1774C3.85545 17.7292 6.27652 14.8934 9.50483 13.909L9.22776 13.0003ZM2.5332 21.0739C2.43841 21.9388 3.15205 22.5991 3.951 22.5991V21.6491C3.64538 21.6491 3.452 21.4105 3.47754 21.1774L2.5332 21.0739ZM3.951 22.5991H20.0751V21.6491H3.951V22.5991ZM20.0751 22.5991C20.874 22.5991 21.5877 21.9388 21.4929 21.0739L20.5485 21.1774C20.5741 21.4105 20.3807 21.6491 20.0751 21.6491V22.5991ZM21.4929 21.0739C21.0729 17.2414 18.3836 14.0935 14.7983 13.0003L14.5213 13.909C17.7496 14.8934 20.1706 17.7292 20.5485 21.1774L21.4929 21.0739Z" fill="#C5C5C5"/>
</svg>
