<svg width="24" height="24" viewBox="0 0 24 24" fill="none" xmlns="http://www.w3.org/2000/svg">
<g clip-path="url(#clip0_133_416)">
<path d="M22.2947 8.84204V5.65833C22.2976 5.30848 22.2284 4.96158 22.0912 4.63782C21.954 4.31407 21.7516 4.01994 21.4957 3.77255C21.2397 3.52516 20.9355 3.32946 20.6006 3.19684C20.2657 3.06422 19.9068 2.99734 19.5449 3.00008H3.74977C3.02295 2.99971 2.32554 3.27754 1.81001 3.77283C1.29411 4.27396 1.00311 4.95133 1 5.65833V18.352C1.00282 19.0552 1.29377 19.7287 1.80915 20.225C2.32452 20.7213 3.02233 20.9999 3.74977 20.9999H19.5449C19.9059 21.0026 20.2639 20.9361 20.5981 20.8041C20.9323 20.6721 21.2361 20.4774 21.4918 20.2311C21.7476 19.9848 21.9503 19.6919 22.0881 19.3693C22.2259 19.0468 22.2961 18.701 22.2947 18.352V17.1259H23.4458C23.5189 17.1271 23.5915 17.114 23.6593 17.0875C23.727 17.0609 23.7885 17.0214 23.8401 16.9713C23.9401 16.8676 23.997 16.7319 24 16.5901V10.5936C23.9996 10.4544 23.9421 10.321 23.8401 10.2227C23.7891 10.1712 23.7279 10.1301 23.6602 10.1018C23.5924 10.0735 23.5196 10.0586 23.4458 10.0578H22.2947V8.84204ZM3.74977 4.06132H19.5449C19.7623 4.05995 19.9777 4.10032 20.1788 4.1801C20.3799 4.25987 20.5626 4.37745 20.7162 4.52602C20.8699 4.67459 20.9916 4.85119 21.0741 5.04556C21.1566 5.23994 21.1984 5.44822 21.1969 5.65833V6.68866C20.7217 6.34031 20.1414 6.15212 19.5449 6.15289H3.74977C3.15633 6.15054 2.57893 6.33902 2.10843 6.68866V5.65833C2.10735 5.23416 2.27974 4.82678 2.58804 4.52497C2.74068 4.3777 2.92185 4.26094 3.12118 4.18139C3.32052 4.10183 3.53411 4.06103 3.74977 4.06132ZM22.9342 16.0646H18.8309C18.6152 16.0649 18.4016 16.0241 18.2023 15.9446C18.0029 15.865 17.8218 15.7483 17.6691 15.601C17.3618 15.3169 17.1787 14.9297 17.1576 14.5192V12.7676C17.1576 12.3468 17.3305 11.9432 17.6383 11.6456C17.9461 11.3481 18.3636 11.1809 18.7989 11.1809H22.8916L22.9342 16.0646ZM21.2076 10.0578H18.8309C18.1034 10.0606 17.4067 10.3418 16.8934 10.84C16.38 11.3383 16.0917 12.0128 16.0918 12.7161V14.5192C16.0917 15.2224 16.38 15.897 16.8934 16.3952C17.4067 16.8934 18.1034 17.1747 18.8309 17.1774H21.1969V18.3932C21.1984 18.6033 21.1566 18.8116 21.0741 19.006C20.9916 19.2003 20.8699 19.3769 20.7162 19.5255C20.5626 19.6741 20.3799 19.7916 20.1788 19.8714C19.9777 19.9512 19.7623 19.9916 19.5449 19.9902H3.74977C3.53411 19.9905 3.32052 19.9497 3.12118 19.8701C2.92185 19.7906 2.74068 19.6738 2.58804 19.5265C2.27974 19.2247 2.10735 18.8174 2.10843 18.3932V8.84204C2.10735 8.41788 2.27974 8.01049 2.58804 7.70868C2.74068 7.56141 2.92185 7.44466 3.12118 7.3651C3.32052 7.28555 3.53411 7.24475 3.74977 7.24503H19.5449C19.7623 7.24367 19.9777 7.28404 20.1788 7.36381C20.3799 7.44358 20.5626 7.56117 20.7162 7.70974C20.8699 7.85831 20.9916 8.0349 21.0741 8.22928C21.1566 8.42365 21.1984 8.63194 21.1969 8.84204L21.2076 10.0578Z" fill="#C5C5C5" stroke="white" stroke-width="0.15"/>
<circle cx="19.95" cy="13.75" r="1.25" fill="#C5C5C5"/>
</g>
<defs>
<clipPath id="clip0_133_416">
<rect width="24" height="24" fill="white"/>
</clipPath>
</defs>
</svg>
