<svg width="23" height="17" viewBox="0 0 23 17" fill="none" xmlns="http://www.w3.org/2000/svg">
<path d="M10.7144 6.02515C10.4215 5.73224 10.4215 5.25739 10.7144 4.96448C11.0073 4.67157 11.4822 4.67157 11.775 4.96448L14.25 7.43939L16.7249 4.96448C17.0177 4.67157 17.4926 4.67157 17.7855 4.96448C18.0784 5.25732 18.0784 5.73224 17.7855 6.02515L15.3105 8.5L17.7855 10.9749C18.0784 11.2678 18.0784 11.7427 17.7855 12.0355C17.4926 12.3284 17.0177 12.3284 16.7249 12.0355L14.25 9.56067L11.775 12.0355C11.4822 12.3284 11.0073 12.3284 10.7145 12.0355C10.4215 11.7426 10.4215 11.2678 10.7145 10.9749L13.1893 8.50006L10.7144 6.02515Z" fill="#212121"/>
<path fill-rule="evenodd" clip-rule="evenodd" d="M7.62134 0.878662L0 8.5L7.62134 16.1213C8.18396 16.684 8.94702 17 9.74268 17H20C21.6569 17 23 15.6569 23 14V3C23 1.34314 21.6569 0 20 0H9.74268C8.94702 0 8.18396 0.316101 7.62134 0.878662ZM20 15.7H9.74268C9.29175 15.7 8.85938 15.5209 8.54053 15.2021L1.8385 8.5L8.54053 1.79791C8.85938 1.47913 9.29175 1.29999 9.74268 1.29999H20C20.9388 1.29999 21.7 2.0611 21.7 3V14C21.7 14.9389 20.9388 15.7 20 15.7Z" fill="#212121"/>
</svg>
