<svg width="23" height="22" viewBox="0 0 23 22" fill="none" xmlns="http://www.w3.org/2000/svg">
<path opacity="0.8" d="M17.1291 13.1657V21.4086H5.9492V13.2512V12.5635L5.35089 12.9026L3.09738 14.1796L0.947302 11.1695L5.13252 7.38668L5.14002 7.3799L5.14717 7.37275C5.49258 7.02734 6.07179 6.80547 6.57544 6.80547H7.26009H8.1159H10.6833H11.0841V6.40473V5.37775V5.08892L10.8101 4.99758C9.94788 4.71019 9.37245 3.92276 9.37245 2.98147C9.37245 1.74791 10.3056 0.81477 11.5392 0.81477C12.6351 0.81477 13.4939 1.55133 13.6719 2.58074H12.7392C12.6828 2.39061 12.584 2.21866 12.443 2.07764C12.208 1.84261 11.887 1.72492 11.5392 1.72492C11.1913 1.72492 10.8704 1.84261 10.6353 2.07764C10.4003 2.31268 10.2826 2.63366 10.2826 2.98147C10.2826 3.32928 10.4003 3.65027 10.6353 3.8853C10.8704 4.12034 11.1913 4.23803 11.5392 4.23803H11.9942V6.40473V6.80547H12.395H12.85V7.71562H12.395H11.5392H8.62939H7.93169L8.28324 8.31828C8.94606 9.45454 10.0976 10.2287 11.5392 10.2287C13.508 10.2287 15.1404 8.7229 15.3422 6.80547H16.5885C17.0699 6.80547 17.5784 7.01194 18.0361 7.39104L22.133 11.1667L19.9862 14.1722L17.736 12.822L17.1291 12.4579V13.1657Z" fill="#329964" stroke="#666666" stroke-width="0.801477"/>
</svg>
