<svg width="23" height="22" viewBox="0 0 23 22" fill="none" xmlns="http://www.w3.org/2000/svg">
<path className="main" opacity="0.8" d="M17.1291 12.9703V21.2133H5.9492V13.0559V12.3682L5.35089 12.7072L3.09738 13.9842L0.947302 10.9741L5.13252 7.19134L5.14002 7.18455L5.14717 7.1774C5.49258 6.83199 6.07179 6.61013 6.57544 6.61013H7.26009H8.1159H10.6833H11.0841V6.20939V5.18241V4.89357L10.8101 4.80224C9.94788 4.51484 9.37245 3.72742 9.37245 2.78613C9.37245 1.55257 10.3056 0.619427 11.5392 0.619427C12.6351 0.619427 13.4939 1.35599 13.6719 2.38539H12.7392C12.6828 2.19527 12.584 2.02332 12.443 1.8823C12.208 1.64726 11.887 1.52958 11.5392 1.52958C11.1913 1.52958 10.8704 1.64726 10.6353 1.8823C10.4003 2.11734 10.2826 2.43832 10.2826 2.78613C10.2826 3.13394 10.4003 3.45492 10.6353 3.68996C10.8704 3.925 11.1913 4.04268 11.5392 4.04268H11.9942V6.20939V6.61013H12.395H12.85V7.52028H12.395H11.5392H8.62939H7.93169L8.28324 8.12294C8.94606 9.25919 10.0976 10.0334 11.5392 10.0334C13.508 10.0334 15.1404 8.52755 15.3422 6.61013H16.5885C17.0699 6.61013 17.5784 6.8166 18.0361 7.1957L22.133 10.9713L19.9862 13.9768L17.736 12.6267L17.1291 12.2625V12.9703Z" fill="#C5C5C5" stroke="#666666" stroke-width="0.801477"/>
</svg>
