<svg width="21" height="19" viewBox="0 0 21 19" fill="none" xmlns="http://www.w3.org/2000/svg">
<g opacity="0.8">
<path d="M18.7644 8.62878L10.5394 17.6763L2.31446 8.62878C0.672842 6.823 0.738919 4.04623 2.46457 2.32058C4.39136 0.393785 7.5652 0.569569 9.26743 2.69736L10.5394 4.28737L11.8115 2.69735C13.5137 0.569568 16.6875 0.393785 18.6143 2.32058C20.34 4.04623 20.406 6.823 18.7644 8.62878Z" fill="#329964"/>
<path d="M10.5394 17.6763L10.1529 18.0277C10.2519 18.1366 10.3922 18.1987 10.5394 18.1987C10.6866 18.1987 10.827 18.1366 10.926 18.0277L10.5394 17.6763ZM18.7644 8.62878L19.151 8.98022L19.151 8.98022L18.7644 8.62878ZM11.8115 2.69735L12.2194 3.02373L12.2194 3.02373L11.8115 2.69735ZM10.5394 4.28737L10.1315 4.61374C10.2306 4.73768 10.3807 4.80982 10.5394 4.80982C10.6982 4.80982 10.8483 4.73768 10.9474 4.61374L10.5394 4.28737ZM9.26743 2.69736L8.85947 3.02373L8.85947 3.02373L9.26743 2.69736ZM2.31446 8.62878L1.92788 8.98021L1.92788 8.98021L2.31446 8.62878ZM18.6143 2.32058L18.2449 2.69001L18.2449 2.69001L18.6143 2.32058ZM10.926 18.0277L19.151 8.98022L18.3778 8.27734L10.1529 17.3248L10.926 18.0277ZM11.4035 2.37098L10.1315 3.961L10.9474 4.61374L12.2194 3.02373L11.4035 2.37098ZM10.9474 3.961L9.6754 2.37098L8.85947 3.02373L10.1315 4.61374L10.9474 3.961ZM1.92788 8.98021L10.1529 18.0277L10.926 17.3248L2.70104 8.27734L1.92788 8.98021ZM2.09514 1.95115C0.172293 3.874 0.0986657 6.96808 1.92788 8.98021L2.70104 8.27734C1.24702 6.67791 1.30554 4.21846 2.834 2.69001L2.09514 1.95115ZM9.6754 2.37098C7.77864 4.51718e-05 4.24212 -0.195826 2.09514 1.95115L2.834 2.69001C4.54061 0.983396 7.35176 1.13909 8.85947 3.02373L9.6754 2.37098ZM18.9837 1.95115C16.8368 -0.195826 13.3002 4.4413e-05 11.4035 2.37098L12.2194 3.02373C13.7271 1.13909 16.5383 0.983396 18.2449 2.69001L18.9837 1.95115ZM19.151 8.98022C20.9802 6.96808 20.9066 3.874 18.9837 1.95115L18.2449 2.69001C19.7733 4.21846 19.8319 6.67792 18.3778 8.27734L19.151 8.98022Z" fill="#666666"/>
</g>
</svg>
