<svg width="20" height="19" viewBox="0 0 20 19" fill="none" xmlns="http://www.w3.org/2000/svg">
<g opacity="0.8">
<path className="main" d="M18.2385 8.43344L10.0136 17.4809L1.78858 8.43343C0.146963 6.62765 0.21304 3.85089 1.93869 2.12524C3.86549 0.198442 7.03932 0.374226 8.74155 2.50201L10.0136 4.09203L11.2856 2.50201C12.9878 0.374225 16.1616 0.198442 18.0884 2.12524C19.8141 3.85089 19.8802 6.62766 18.2385 8.43344Z" fill="#C5C5C5"/>
<path d="M10.0136 17.4809L9.62698 17.8324C9.726 17.9413 9.86637 18.0034 10.0136 18.0034C10.1608 18.0034 10.3011 17.9413 10.4001 17.8324L10.0136 17.4809ZM18.2385 8.43344L18.6251 8.78487L18.6251 8.78487L18.2385 8.43344ZM11.2856 2.50201L11.6935 2.82838L11.6935 2.82838L11.2856 2.50201ZM10.0136 4.09203L9.6056 4.4184C9.70475 4.54233 9.85485 4.61448 10.0136 4.61448C10.1723 4.61448 10.3224 4.54233 10.4215 4.4184L10.0136 4.09203ZM8.74155 2.50201L8.33359 2.82838L8.33359 2.82838L8.74155 2.50201ZM1.78858 8.43343L1.402 8.78487L1.402 8.78487L1.78858 8.43343ZM18.0884 2.12524L17.719 2.49466L17.719 2.49466L18.0884 2.12524ZM10.4001 17.8324L18.6251 8.78487L17.852 8.082L9.62698 17.1295L10.4001 17.8324ZM10.8776 2.17564L9.6056 3.76566L10.4215 4.4184L11.6935 2.82838L10.8776 2.17564ZM10.4215 3.76566L9.14952 2.17564L8.33359 2.82838L9.6056 4.4184L10.4215 3.76566ZM1.402 8.78487L9.62698 17.8324L10.4001 17.1295L2.17516 8.082L1.402 8.78487ZM1.56926 1.75581C-0.353586 3.67866 -0.427213 6.77274 1.402 8.78487L2.17516 8.082C0.72114 6.48257 0.779666 4.02312 2.30812 2.49466L1.56926 1.75581ZM9.14952 2.17564C7.25277 -0.195298 3.71624 -0.391169 1.56926 1.75581L2.30812 2.49466C4.01473 0.788053 6.82588 0.943749 8.33359 2.82838L9.14952 2.17564ZM18.4579 1.75581C16.3109 -0.391169 12.7744 -0.195299 10.8776 2.17564L11.6935 2.82838C13.2013 0.943749 16.0124 0.788053 17.719 2.49466L18.4579 1.75581ZM18.6251 8.78487C20.4543 6.77274 20.3807 3.67866 18.4579 1.75581L17.719 2.49466C19.2475 4.02312 19.306 6.48257 17.852 8.082L18.6251 8.78487Z" fill="#666666"/>
</g>
</svg>
