<svg width="13" height="22" viewBox="0 0 13 22" fill="none" xmlns="http://www.w3.org/2000/svg">
<g opacity="0.8">
<path fill-rule="evenodd" clip-rule="evenodd" d="M10.9271 21.3422C11.7068 21.3422 12.3344 20.6535 12.3344 19.7977H12.3154V2.84984C12.3154 1.9941 11.6878 1.30533 10.9081 1.30533H2.52111C1.74137 1.30533 1.11377 1.9941 1.11377 2.84984V19.7977C1.11377 20.6535 1.74137 21.3422 2.52111 21.3422H10.9271ZM3.51831 5.31273H9.93013C10.3728 5.31273 10.7316 5.67156 10.7316 6.11421V17.3349C10.7316 17.7775 10.3728 18.1364 9.93013 18.1364H3.51831C3.07567 18.1364 2.71684 17.7775 2.71684 17.3349V6.11421C2.71684 5.67156 3.07567 5.31273 3.51831 5.31273Z" fill="#329964"/>
<path d="M12.3344 19.7977H12.7352C12.7352 19.5764 12.5558 19.397 12.3344 19.397V19.7977ZM12.3154 19.7977H11.9147C11.9147 20.0191 12.0941 20.1985 12.3154 20.1985V19.7977ZM11.9337 19.7977C11.9337 20.468 11.4513 20.9415 10.9271 20.9415V21.743C11.9624 21.743 12.7352 20.8389 12.7352 19.7977H11.9337ZM12.3154 20.1985H12.3344V19.397H12.3154V20.1985ZM11.9147 2.84984V19.7977H12.7162V2.84984H11.9147ZM10.9081 1.70607C11.4322 1.70607 11.9147 2.17953 11.9147 2.84984H12.7162C12.7162 1.80867 11.9434 0.90459 10.9081 0.90459V1.70607ZM2.52111 1.70607H10.9081V0.90459H2.52111V1.70607ZM1.51451 2.84984C1.51451 2.17953 1.99695 1.70607 2.52111 1.70607V0.90459C1.48578 0.90459 0.713031 1.80867 0.713031 2.84984H1.51451ZM1.51451 19.7977V2.84984H0.713031V19.7977H1.51451ZM2.52111 20.9415C1.99695 20.9415 1.51451 20.468 1.51451 19.7977H0.713031C0.713031 20.8389 1.48578 21.743 2.52111 21.743V20.9415ZM10.9271 20.9415H2.52111V21.743H10.9271V20.9415ZM9.93013 4.91199H3.51831V5.71347H9.93013V4.91199ZM11.1323 6.11421C11.1323 5.45024 10.5941 4.91199 9.93013 4.91199V5.71347C10.1514 5.71347 10.3309 5.89288 10.3309 6.11421H11.1323ZM11.1323 17.3349V6.11421H10.3309V17.3349H11.1323ZM9.93013 18.5371C10.5941 18.5371 11.1323 17.9988 11.1323 17.3349H10.3309C10.3309 17.5562 10.1514 17.7356 9.93013 17.7356V18.5371ZM3.51831 18.5371H9.93013V17.7356H3.51831V18.5371ZM2.3161 17.3349C2.3161 17.9988 2.85435 18.5371 3.51831 18.5371V17.7356C3.29699 17.7356 3.11758 17.5562 3.11758 17.3349H2.3161ZM2.3161 6.11421V17.3349H3.11758V6.11421H2.3161ZM3.51831 4.91199C2.85435 4.91199 2.3161 5.45024 2.3161 6.11421H3.11758C3.11758 5.89288 3.29699 5.71347 3.51831 5.71347V4.91199Z" fill="#666666"/>
</g>
<path opacity="0.7" d="M5.12109 3.70978H8.327" stroke="#666666" stroke-width="0.801477" stroke-miterlimit="10" stroke-linecap="round" stroke-linejoin="round"/>
<path opacity="0.6" d="M6.72433 20.5408C7.16697 20.5408 7.5258 20.182 7.5258 19.7393C7.5258 19.2967 7.16697 18.9379 6.72433 18.9379C6.28169 18.9379 5.92285 19.2967 5.92285 19.7393C5.92285 20.182 6.28169 20.5408 6.72433 20.5408Z" fill="#666666"/>
</svg>
