<svg width="13" height="22" viewBox="0 0 13 22" fill="none" xmlns="http://www.w3.org/2000/svg">
<g opacity="0.8">
<path fill-rule="evenodd" clip-rule="evenodd" d="M10.8758 21.3422C11.6556 21.3422 12.2832 20.6534 12.2832 19.7977H12.2642V2.84981C12.2642 1.99407 11.6366 1.3053 10.8568 1.3053H2.46984C1.6901 1.3053 1.0625 1.99407 1.0625 2.84981V19.7977C1.0625 20.6534 1.6901 21.3422 2.46984 21.3422H10.8758ZM3.46696 5.31267H9.87877C10.3214 5.31267 10.6802 5.6715 10.6802 6.11415V17.3348C10.6802 17.7775 10.3214 18.1363 9.87877 18.1363H3.46696C3.02431 18.1363 2.66548 17.7775 2.66548 17.3348V6.11414C2.66548 5.6715 3.02431 5.31267 3.46696 5.31267Z" fill="#C5C5C5"/>
<path d="M12.2832 19.7977H12.6839C12.6839 19.5764 12.5045 19.397 12.2832 19.397V19.7977ZM12.2642 19.7977H11.8634C11.8634 20.019 12.0428 20.1984 12.2642 20.1984V19.7977ZM11.8824 19.7977C11.8824 20.468 11.4 20.9415 10.8758 20.9415V21.743C11.9112 21.743 12.6839 20.8389 12.6839 19.7977H11.8824ZM12.2642 20.1984H12.2832V19.397H12.2642V20.1984ZM11.8634 2.84981V19.7977H12.6649V2.84981H11.8634ZM10.8568 1.70604C11.381 1.70604 11.8634 2.1795 11.8634 2.84981H12.6649C12.6649 1.80864 11.8921 0.90456 10.8568 0.90456V1.70604ZM2.46984 1.70604H10.8568V0.90456H2.46984V1.70604ZM1.46324 2.84981C1.46324 2.1795 1.94568 1.70604 2.46984 1.70604V0.90456C1.43451 0.90456 0.661762 1.80864 0.661762 2.84981H1.46324ZM1.46324 19.7977V2.84981H0.661762V19.7977H1.46324ZM2.46984 20.9415C1.94568 20.9415 1.46324 20.468 1.46324 19.7977H0.661762C0.661762 20.8389 1.43451 21.743 2.46984 21.743V20.9415ZM10.8758 20.9415H2.46984V21.743H10.8758V20.9415ZM9.87877 4.91193H3.46696V5.71341H9.87877V4.91193ZM11.081 6.11415C11.081 5.45018 10.5427 4.91193 9.87877 4.91193V5.71341C10.1001 5.71341 10.2795 5.89282 10.2795 6.11415H11.081ZM11.081 17.3348V6.11415H10.2795V17.3348H11.081ZM9.87877 18.537C10.5427 18.537 11.081 17.9988 11.081 17.3348H10.2795C10.2795 17.5561 10.1001 17.7356 9.87877 17.7356V18.537ZM3.46696 18.537H9.87877V17.7356H3.46696V18.537ZM2.26474 17.3348C2.26474 17.9988 2.80299 18.537 3.46696 18.537V17.7356C3.24563 17.7356 3.06622 17.5561 3.06622 17.3348H2.26474ZM2.26474 6.11414V17.3348H3.06622V6.11414H2.26474ZM3.46696 4.91193C2.80299 4.91193 2.26474 5.45018 2.26474 6.11414H3.06622C3.06622 5.89282 3.24563 5.71341 3.46696 5.71341V4.91193Z" fill="#666666"/>
</g>
<path opacity="0.7" d="M5.07031 3.70978H8.27622" stroke="#666666" stroke-width="0.801477" stroke-miterlimit="10" stroke-linecap="round" stroke-linejoin="round"/>
<path opacity="0.6" d="M6.67306 20.5408C7.1157 20.5408 7.47454 20.1819 7.47454 19.7393C7.47454 19.2966 7.1157 18.9378 6.67306 18.9378C6.23042 18.9378 5.87158 19.2966 5.87158 19.7393C5.87158 20.1819 6.23042 20.5408 6.67306 20.5408Z" fill="#666666"/>
</svg>
