<svg width="20" height="21" viewBox="0 0 20 21" fill="none" xmlns="http://www.w3.org/2000/svg">
<path opacity="0.8" d="M1.06665 9.98209L1.06803 9.9807L9.79595 1.1672C9.79616 1.167 9.79637 1.16679 9.79658 1.16658C9.96963 0.993966 10.291 0.856671 10.6251 0.856671H18.3275C19.0619 0.856671 19.5528 1.37603 19.5528 1.9964V9.69872C19.5528 10.0333 19.4152 10.355 19.2422 10.5279L10.4274 19.3428C9.98479 19.7854 9.21155 19.7854 8.76898 19.3428L1.06665 11.6405C0.62408 11.1979 0.62408 10.4247 1.06665 9.98209ZM12.7063 5.59082C12.7063 6.75353 13.6559 7.70318 14.8186 7.70318C15.9814 7.70318 16.931 6.75353 16.931 5.59082C16.931 4.4281 15.9814 3.47845 14.8186 3.47845C13.6559 3.47845 12.7063 4.4281 12.7063 5.59082Z" fill="#C5C5C5" stroke="#666666" stroke-width="0.801477"/>
</svg>
