<svg width="20" height="20" viewBox="0 0 20 20" fill="none" xmlns="http://www.w3.org/2000/svg">
<path opacity="0.8" d="M1.06665 9.6518L1.06803 9.65041L9.79595 0.836913C9.79616 0.836705 9.79637 0.836498 9.79658 0.83629C9.96963 0.663674 10.291 0.526379 10.6251 0.526379H18.3275C19.0619 0.526379 19.5528 1.04573 19.5528 1.66611V9.36843C19.5528 9.703 19.4152 10.0247 19.2422 10.1976L10.4274 19.0125C9.98479 19.4551 9.21155 19.4551 8.76898 19.0125L1.06665 11.3102C0.62408 10.8676 0.62408 10.0944 1.06665 9.6518ZM12.7063 5.26052C12.7063 6.42324 13.6559 7.37289 14.8186 7.37289C15.9814 7.37289 16.931 6.42324 16.931 5.26052C16.931 4.09781 15.9814 3.14816 14.8186 3.14816C13.6559 3.14816 12.7063 4.09781 12.7063 5.26052Z" fill="#329964" stroke="#666666" stroke-width="0.801477"/>
</svg>
