<svg width="22" height="22" viewBox="0 0 22 22" fill="none" xmlns="http://www.w3.org/2000/svg">
<g opacity="0.8">
<path d="M18.9853 10.9673V20.8091H3.23828V10.9673" fill="#329964"/>
<path d="M18.9853 10.9673V20.8091H3.23828V10.9673" stroke="#666666" stroke-width="0.801477" stroke-linecap="round" stroke-linejoin="round"/>
<path d="M20.9533 6.04633H1.26953V10.9673H20.9533V6.04633Z" fill="#329964" stroke="#666666" stroke-width="0.801477" stroke-linecap="round" stroke-linejoin="round"/>
<path d="M11.1113 20.8091V6.04633" stroke="#666666" stroke-width="0.801477" stroke-linecap="round" stroke-linejoin="round"/>
<path d="M11.111 6.04633H6.68214C6.02959 6.04633 5.40376 5.7871 4.94233 5.32567C4.48091 4.86425 4.22168 4.23842 4.22168 3.58586C4.22168 2.93331 4.48091 2.30748 4.94233 1.84605C5.40376 1.38462 6.02959 1.1254 6.68214 1.1254C10.1268 1.1254 11.111 6.04633 11.111 6.04633Z" stroke="#666666" stroke-width="0.801477" stroke-linecap="round" stroke-linejoin="round"/>
<path d="M11.1113 6.04633H15.5402C16.1927 6.04633 16.8186 5.7871 17.28 5.32567C17.7414 4.86425 18.0006 4.23842 18.0006 3.58586C18.0006 2.93331 17.7414 2.30748 17.28 1.84605C16.8186 1.38462 16.1927 1.1254 15.5402 1.1254C12.0955 1.1254 11.1113 6.04633 11.1113 6.04633Z" stroke="#666666" stroke-width="0.801477" stroke-linecap="round" stroke-linejoin="round"/>
</g>
</svg>
