<svg width="20" height="21" viewBox="0 0 20 21" fill="none" xmlns="http://www.w3.org/2000/svg">
<g clip-path="url(#clip0_877_8366)">
<path  d="M17.2866 6.12082H2.05852C1.17323 6.12082 0.455566 6.83849 0.455566 7.72377V16.9408C0.455566 17.826 1.17323 18.5437 2.05852 18.5437H17.2866C18.1719 18.5437 18.8895 17.826 18.8895 16.9408V7.72377C18.8895 6.83849 18.1719 6.12082 17.2866 6.12082Z" fill="transparent"/>
<path opacity="0.8" d="M12.879 2.51416H6.46721C6.04208 2.51416 5.63436 2.68304 5.33375 2.98365C5.03314 3.28427 4.86426 3.69198 4.86426 4.11711V6.1208H6.26684V4.71822C6.26684 4.50566 6.35128 4.3018 6.50159 4.15149C6.65189 4.00119 6.85575 3.91674 7.06832 3.91674H12.2779C12.4905 3.91674 12.6943 4.00119 12.8446 4.15149C12.995 4.3018 13.0794 4.50566 13.0794 4.71822V6.1208H14.482V4.11711C14.482 3.69198 14.3131 3.28427 14.0125 2.98365C13.7119 2.68304 13.3042 2.51416 12.879 2.51416V2.51416Z" fill="#666666" stroke="#666666" stroke-width="0.801477" stroke-linecap="round" stroke-linejoin="round"/>
<g opacity="0.8">
<path className="main" fill-rule="evenodd" clip-rule="evenodd" d="M2.05901 6.12122H17.2871C18.1724 6.12122 18.89 6.83888 18.89 7.72417V16.9411C18.89 17.8264 18.1724 18.5441 17.2871 18.5441H2.05901C1.17372 18.5441 0.456055 17.8264 0.456055 16.9411V7.72417C0.456055 6.83888 1.17372 6.12122 2.05901 6.12122ZM13.079 14.136H11.2757V15.9393C11.2757 16.0988 11.2124 16.2516 11.0996 16.3644C10.9869 16.4771 10.834 16.5404 10.6746 16.5404H8.6709C8.51147 16.5404 8.35858 16.4771 8.24585 16.3644C8.13312 16.2516 8.06979 16.0988 8.06979 15.9393V14.136H6.26647C6.10704 14.136 5.95415 14.0727 5.84142 13.9599C5.72869 13.8472 5.66536 13.6943 5.66536 13.5349V11.5312C5.66536 11.3718 5.72869 11.2189 5.84142 11.1062C5.95415 10.9934 6.10704 10.9301 6.26647 10.9301H8.06979V9.12678C8.06979 8.96736 8.13312 8.81446 8.24585 8.70173C8.35858 8.589 8.51147 8.52567 8.6709 8.52567H10.6746C10.834 8.52567 10.9869 8.589 11.0996 8.70173C11.2124 8.81446 11.2757 8.96736 11.2757 9.12678V10.9301H13.079C13.2384 10.9301 13.3913 10.9934 13.5041 11.1062C13.6168 11.2189 13.6801 11.3718 13.6801 11.5312V13.5349C13.6801 13.6943 13.6168 13.8472 13.5041 13.9599C13.3913 14.0727 13.2384 14.136 13.079 14.136Z" fill="#C5C5C5"/>
<path d="M11.2757 14.136V13.7353C11.0544 13.7353 10.875 13.9147 10.875 14.136H11.2757ZM11.0996 16.3644L11.383 16.6477L11.383 16.6477L11.0996 16.3644ZM8.24585 16.3644L7.96248 16.6477L7.96249 16.6477L8.24585 16.3644ZM8.06979 14.136H8.47053C8.47053 13.9147 8.29111 13.7353 8.06979 13.7353V14.136ZM8.06979 10.9301V11.3308C8.29111 11.3308 8.47053 11.1514 8.47053 10.9301H8.06979ZM11.0996 8.70173L11.383 8.41837L11.383 8.41837L11.0996 8.70173ZM11.2757 10.9301H10.875C10.875 11.1514 11.0544 11.3308 11.2757 11.3308V10.9301ZM13.5041 11.1062L13.2207 11.3895L13.2207 11.3895L13.5041 11.1062ZM13.5041 13.9599L13.2207 13.6766L13.2207 13.6766L13.5041 13.9599ZM17.2871 5.72048H2.05901V6.52195H17.2871V5.72048ZM19.2908 7.72417C19.2908 6.61756 18.3937 5.72048 17.2871 5.72048V6.52195C17.951 6.52195 18.4893 7.0602 18.4893 7.72417H19.2908ZM19.2908 16.9411V7.72417H18.4893V16.9411H19.2908ZM17.2871 18.9448C18.3937 18.9448 19.2908 18.0478 19.2908 16.9411H18.4893C18.4893 17.6051 17.951 18.1434 17.2871 18.1434V18.9448ZM2.05901 18.9448H17.2871V18.1434H2.05901V18.9448ZM0.0553164 16.9411C0.0553164 18.0478 0.9524 18.9448 2.05901 18.9448V18.1434C1.39504 18.1434 0.856793 17.6051 0.856793 16.9411H0.0553164ZM0.0553164 7.72417V16.9411H0.856793V7.72417H0.0553164ZM2.05901 5.72048C0.9524 5.72048 0.0553164 6.61756 0.0553164 7.72417H0.856793C0.856793 7.0602 1.39504 6.52195 2.05901 6.52195V5.72048ZM11.2757 14.5367H13.079V13.7353H11.2757V14.5367ZM11.6764 15.9393V14.136H10.875V15.9393H11.6764ZM11.383 16.6477C11.5709 16.4599 11.6764 16.205 11.6764 15.9393H10.875C10.875 15.9925 10.8538 16.0434 10.8163 16.081L11.383 16.6477ZM10.6746 16.9412C10.9403 16.9412 11.1951 16.8356 11.383 16.6477L10.8163 16.081C10.7787 16.1186 10.7277 16.1397 10.6746 16.1397V16.9412ZM8.6709 16.9412H10.6746V16.1397H8.6709V16.9412ZM7.96249 16.6477C8.15037 16.8356 8.40519 16.9412 8.6709 16.9412V16.1397C8.61776 16.1397 8.56679 16.1186 8.52921 16.081L7.96249 16.6477ZM7.66905 15.9393C7.66905 16.205 7.7746 16.4599 7.96248 16.6477L8.52922 16.081C8.49164 16.0434 8.47053 15.9925 8.47053 15.9393H7.66905ZM7.66905 14.136V15.9393H8.47053V14.136H7.66905ZM6.26647 14.5367H8.06979V13.7353H6.26647V14.5367ZM5.55805 14.2433C5.74594 14.4312 6.00076 14.5367 6.26647 14.5367V13.7353C6.21333 13.7353 6.16236 13.7142 6.12478 13.6766L5.55805 14.2433ZM5.26462 13.5349C5.26462 13.8006 5.37017 14.0554 5.55805 14.2433L6.12478 13.6766C6.08721 13.639 6.0661 13.588 6.0661 13.5349H5.26462ZM5.26462 11.5312V13.5349H6.0661V11.5312H5.26462ZM5.55805 10.8228C5.37017 11.0107 5.26462 11.2655 5.26462 11.5312H6.0661C6.0661 11.4781 6.08721 11.4271 6.12478 11.3895L5.55805 10.8228ZM6.26647 10.5294C6.00076 10.5294 5.74594 10.6349 5.55805 10.8228L6.12478 11.3895C6.16236 11.352 6.21333 11.3308 6.26647 11.3308V10.5294ZM8.06979 10.5294H6.26647V11.3308H8.06979V10.5294ZM7.66905 9.12678V10.9301H8.47053V9.12678H7.66905ZM7.96249 8.41837C7.7746 8.60625 7.66905 8.86107 7.66905 9.12678H8.47053C8.47053 9.07364 8.49164 9.02268 8.52921 8.9851L7.96249 8.41837ZM8.6709 8.12493C8.40519 8.12493 8.15037 8.23049 7.96249 8.41837L8.52921 8.9851C8.56679 8.94752 8.61776 8.92641 8.6709 8.92641V8.12493ZM10.6746 8.12493H8.6709V8.92641H10.6746V8.12493ZM11.383 8.41837C11.1951 8.23049 10.9403 8.12493 10.6746 8.12493V8.92641C10.7277 8.92641 10.7787 8.94752 10.8163 8.9851L11.383 8.41837ZM11.6764 9.12678C11.6764 8.86107 11.5709 8.60625 11.383 8.41837L10.8163 8.9851C10.8538 9.02268 10.875 9.07364 10.875 9.12678H11.6764ZM11.6764 10.9301V9.12678H10.875V10.9301H11.6764ZM13.079 10.5294H11.2757V11.3308H13.079V10.5294ZM13.7874 10.8228C13.5995 10.6349 13.3447 10.5294 13.079 10.5294V11.3308C13.1322 11.3308 13.1831 11.352 13.2207 11.3895L13.7874 10.8228ZM14.0809 11.5312C14.0809 11.2655 13.9753 11.0107 13.7874 10.8228L13.2207 11.3895C13.2583 11.4271 13.2794 11.4781 13.2794 11.5312H14.0809ZM14.0809 13.5349V11.5312H13.2794V13.5349H14.0809ZM13.7874 14.2433C13.9753 14.0554 14.0809 13.8006 14.0809 13.5349H13.2794C13.2794 13.588 13.2583 13.639 13.2207 13.6766L13.7874 14.2433ZM13.079 14.5367C13.3447 14.5367 13.5995 14.4312 13.7874 14.2433L13.2207 13.6766C13.1831 13.7142 13.1322 13.7353 13.079 13.7353V14.5367Z" fill="#666666"/>
</g>
</g>
<defs>
<clipPath id="clip0_877_8366">
<rect width="19.2354" height="19.2354" fill="white" transform="translate(0.0551758 0.911469)"/>
</clipPath>
</defs>
</svg>
