<svg width="20" height="20" viewBox="0 0 20 20" fill="none" xmlns="http://www.w3.org/2000/svg">
<g clip-path="url(#clip0_877_8139)">
<path d="M17.3378 5.31604H2.10979C1.2245 5.31604 0.506836 6.03371 0.506836 6.91899V16.136C0.506836 17.0213 1.2245 17.7389 2.10979 17.7389H17.3378C18.2231 17.7389 18.9408 17.0213 18.9408 16.136V6.91899C18.9408 6.03371 18.2231 5.31604 17.3378 5.31604Z" fill="#329964" fill-opacity="0.4"/>
<path opacity="0.8" d="M12.9303 1.70953H6.51848C6.09335 1.70953 5.68563 1.87842 5.38502 2.17903C5.08441 2.47964 4.91553 2.88736 4.91553 3.31249V5.31618H6.31811V3.91359C6.31811 3.70103 6.40255 3.49717 6.55286 3.34686C6.70316 3.19656 6.90702 3.11212 7.11959 3.11212H12.3292C12.5418 3.11212 12.7456 3.19656 12.8959 3.34686C13.0462 3.49717 13.1307 3.70103 13.1307 3.91359V5.31618H14.5332V3.31249C14.5332 2.88736 14.3644 2.47964 14.0638 2.17903C13.7631 1.87842 13.3554 1.70953 12.9303 1.70953V1.70953Z" fill="#666666" stroke="#666666" stroke-width="0.801477" stroke-linecap="round" stroke-linejoin="round"/>
<g opacity="0.8">
<path fill-rule="evenodd" clip-rule="evenodd" d="M2.11028 5.31635H17.3383C18.2236 5.31635 18.9413 6.03401 18.9413 6.9193V16.1363C18.9413 17.0216 18.2236 17.7392 17.3383 17.7392H2.11028C1.22499 17.7392 0.507324 17.0216 0.507324 16.1363V6.9193C0.507324 6.03401 1.22499 5.31635 2.11028 5.31635ZM13.1305 13.3312H11.3271V15.1345C11.3271 15.2939 11.2638 15.4468 11.1511 15.5595C11.0383 15.6723 10.8855 15.7356 10.726 15.7356H8.72234C8.56291 15.7356 8.41002 15.6723 8.29729 15.5595C8.18456 15.4468 8.12123 15.2939 8.12123 15.1345V13.3312H6.31791C6.15848 13.3312 6.00559 13.2678 5.89286 13.1551C5.78013 13.0424 5.7168 12.8895 5.7168 12.73V10.7264C5.7168 10.5669 5.78013 10.414 5.89286 10.3013C6.00559 10.1886 6.15848 10.1252 6.31791 10.1252H8.12123V8.32192C8.12123 8.1625 8.18456 8.0096 8.29729 7.89688C8.41002 7.78415 8.56291 7.72081 8.72234 7.72081H10.726C10.8855 7.72081 11.0383 7.78415 11.1511 7.89688C11.2638 8.0096 11.3271 8.1625 11.3271 8.32192V10.1252H13.1305C13.2899 10.1252 13.4428 10.1886 13.5555 10.3013C13.6682 10.414 13.7316 10.5669 13.7316 10.7264V12.73C13.7316 12.8895 13.6682 13.0424 13.5555 13.1551C13.4428 13.2678 13.2899 13.3312 13.1305 13.3312Z" fill="#329964"/>
<path d="M11.3271 13.3312V12.9304C11.1058 12.9304 10.9264 13.1098 10.9264 13.3312H11.3271ZM11.1511 15.5595L10.8677 15.2762L10.8677 15.2762L11.1511 15.5595ZM8.29729 15.5595L8.58066 15.2762L8.58065 15.2762L8.29729 15.5595ZM8.12123 13.3312H8.52197C8.52197 13.1098 8.34255 12.9304 8.12123 12.9304V13.3312ZM5.89286 13.1551L5.60949 13.4385L5.6095 13.4385L5.89286 13.1551ZM8.12123 10.1252V10.526C8.34255 10.526 8.52197 10.3466 8.52197 10.1252H8.12123ZM11.1511 7.89688L10.8677 8.18024L10.8677 8.18024L11.1511 7.89688ZM11.3271 10.1252H10.9264C10.9264 10.3466 11.1058 10.526 11.3271 10.526V10.1252ZM13.5555 10.3013L13.8389 10.0179L13.8389 10.0179L13.5555 10.3013ZM13.5555 13.1551L13.8389 13.4385L13.8389 13.4385L13.5555 13.1551ZM17.3383 4.91561H2.11028V5.71708H17.3383V4.91561ZM19.342 6.9193C19.342 5.81269 18.4449 4.91561 17.3383 4.91561V5.71708C18.0023 5.71708 18.5405 6.25533 18.5405 6.9193H19.342ZM19.342 16.1363V6.9193H18.5405V16.1363H19.342ZM17.3383 18.14C18.4449 18.14 19.342 17.2429 19.342 16.1363H18.5405C18.5405 16.8002 18.0023 17.3385 17.3383 17.3385V18.14ZM2.11028 18.14H17.3383V17.3385H2.11028V18.14ZM0.106586 16.1363C0.106586 17.2429 1.00367 18.14 2.11028 18.14V17.3385C1.44631 17.3385 0.908063 16.8002 0.908063 16.1363H0.106586ZM0.106586 6.9193V16.1363H0.908063V6.9193H0.106586ZM2.11028 4.91561C1.00367 4.91561 0.106586 5.81269 0.106586 6.9193H0.908063C0.908063 6.25533 1.44631 5.71708 2.11028 5.71708V4.91561ZM11.3271 13.7319H13.1305V12.9304H11.3271V13.7319ZM11.7279 15.1345V13.3312H10.9264V15.1345H11.7279ZM11.4344 15.8429C11.6223 15.655 11.7279 15.4002 11.7279 15.1345H10.9264C10.9264 15.1876 10.9053 15.2386 10.8677 15.2762L11.4344 15.8429ZM10.726 16.1363C10.9917 16.1363 11.2466 16.0308 11.4344 15.8429L10.8677 15.2762C10.8301 15.3137 10.7792 15.3348 10.726 15.3348V16.1363ZM8.72234 16.1363H10.726V15.3348H8.72234V16.1363ZM8.01392 15.8429C8.20181 16.0308 8.45663 16.1363 8.72234 16.1363V15.3348C8.66919 15.3348 8.61823 15.3137 8.58066 15.2762L8.01392 15.8429ZM7.72049 15.1345C7.72049 15.4002 7.82604 15.655 8.01393 15.8429L8.58065 15.2762C8.54308 15.2386 8.52197 15.1876 8.52197 15.1345H7.72049ZM7.72049 13.3312V15.1345H8.52197V13.3312H7.72049ZM6.31791 13.7319H8.12123V12.9304H6.31791V13.7319ZM5.6095 13.4385C5.79738 13.6263 6.0522 13.7319 6.31791 13.7319V12.9304C6.26477 12.9304 6.2138 12.9093 6.17622 12.8717L5.6095 13.4385ZM5.31606 12.73C5.31606 12.9957 5.42161 13.2506 5.60949 13.4385L6.17622 12.8717C6.13865 12.8342 6.11754 12.7832 6.11754 12.73H5.31606ZM5.31606 10.7264V12.73H6.11754V10.7264H5.31606ZM5.60949 10.0179C5.42161 10.2058 5.31606 10.4606 5.31606 10.7264H6.11754C6.11754 10.6732 6.13865 10.6222 6.17622 10.5847L5.60949 10.0179ZM6.31791 9.72451C6.0522 9.72451 5.79738 9.83006 5.60949 10.0179L6.17622 10.5847C6.2138 10.5471 6.26477 10.526 6.31791 10.526V9.72451ZM8.12123 9.72451H6.31791V10.526H8.12123V9.72451ZM7.72049 8.32192V10.1252H8.52197V8.32192H7.72049ZM8.01393 7.61351C7.82604 7.80139 7.72049 8.05622 7.72049 8.32192H8.52197C8.52197 8.26878 8.54308 8.21782 8.58065 8.18024L8.01393 7.61351ZM8.72234 7.32008C8.45663 7.32008 8.20181 7.42563 8.01393 7.61351L8.58065 8.18024C8.61823 8.14266 8.6692 8.12155 8.72234 8.12155V7.32008ZM10.726 7.32008H8.72234V8.12155H10.726V7.32008ZM11.4344 7.61351C11.2466 7.42563 10.9917 7.32008 10.726 7.32008V8.12155C10.7792 8.12155 10.8301 8.14266 10.8677 8.18024L11.4344 7.61351ZM11.7279 8.32192C11.7279 8.05622 11.6223 7.80139 11.4344 7.61351L10.8677 8.18024C10.9053 8.21782 10.9264 8.26878 10.9264 8.32192H11.7279ZM11.7279 10.1252V8.32192H10.9264V10.1252H11.7279ZM13.1305 9.72451H11.3271V10.526H13.1305V9.72451ZM13.8389 10.0179C13.651 9.83006 13.3962 9.72451 13.1305 9.72451V10.526C13.1836 10.526 13.2346 10.5471 13.2721 10.5847L13.8389 10.0179ZM14.1323 10.7264C14.1323 10.4606 14.0268 10.2058 13.8389 10.0179L13.2721 10.5847C13.3097 10.6222 13.3308 10.6732 13.3308 10.7264H14.1323ZM14.1323 12.73V10.7264H13.3308V12.73H14.1323ZM13.8389 13.4385C14.0268 13.2506 14.1323 12.9957 14.1323 12.73H13.3308C13.3308 12.7832 13.3097 12.8342 13.2721 12.8717L13.8389 13.4385ZM13.1305 13.7319C13.3962 13.7319 13.651 13.6263 13.8389 13.4385L13.2721 12.8717C13.2346 12.9093 13.1836 12.9304 13.1305 12.9304V13.7319Z" fill="#666666"/>
</g>
</g>
<defs>
<clipPath id="clip0_877_8139">
<rect width="19.2354" height="19.2354" fill="white" transform="translate(0.106445 0.106842)"/>
</clipPath>
</defs>
</svg>
