<svg width="20" height="23" viewBox="0 0 20 23" fill="none" xmlns="http://www.w3.org/2000/svg">
<g clip-path="url(#clip0_1200_8108)">
<path className="main" d="M0.5 10.9772L3.5 6.79541L6 7L8.5 9H12.5L14.5 7L17 7.31814L19.5 11.5C19.3333 12.8939 19.1 16.309 19.5 18.8181C19.9 21.3272 18.6667 22.303 18 22.4772C14.5 22.303 7 22.059 5 22.4772C3 22.8954 1 21.9545 0.5 21.4318V10.9772Z" fill="#F4C5C4"/>
<path className="main" d="M14.5 5.22725C14.5 7.53681 12.4853 9.40907 10 9.40907C7.51472 9.40907 6 7.53681 6 5.22725C6 2.9177 7.51472 0.522705 10 0.522705C12.4853 0.522705 14.5 2.9177 14.5 5.22725Z" fill="#F4C5C4"/>
<path d="M16.0837 6.48609H14.8102C15.0743 5.75749 15.1554 4.97771 15.0466 4.21223C14.9378 3.44674 14.6422 2.7179 14.1847 2.08689C13.7273 1.45588 13.1212 0.941128 12.4175 0.585857C11.7138 0.230586 10.933 0.045166 10.1406 0.045166C9.3482 0.045166 8.56737 0.230586 7.86367 0.585857C7.15997 0.941128 6.55394 1.45588 6.09647 2.08689C5.639 2.7179 5.34344 3.44674 5.23461 4.21223C5.12578 4.97771 5.20686 5.75749 5.47104 6.48609H3.96182C3.30137 6.48609 2.73552 6.80815 2.35844 7.36001C-0.377078 11.6839 0.424393 10.212 7.51039e-06 11.1321V20.884C-0.000743687 21.1621 0.0548638 21.4376 0.163634 21.6946C0.272404 21.9517 0.432191 22.1853 0.633813 22.3819C0.835435 22.5785 1.07492 22.7344 1.33849 22.8405C1.60207 22.9465 1.88454 23.0008 2.16967 23H17.8759C19.0549 23 19.9983 22.08 19.9983 20.884V11.1321C19.9983 10.948 20.1397 11.2239 17.6398 7.36001C17.4845 7.09181 17.2581 6.86924 16.9844 6.71557C16.7106 6.56191 16.3996 6.48237 16.0837 6.48609ZM10.1406 0.920074C10.6672 0.919624 11.1887 1.02045 11.6754 1.21679C12.162 1.41313 12.6041 1.70112 12.9765 2.06429C13.3489 2.42745 13.6442 2.85867 13.8455 3.33325C14.0468 3.80784 14.1502 4.31648 14.1497 4.83008C14.1497 6.94611 12.4044 8.74009 10.1406 8.74009H10.0933C7.82947 8.74009 6.08419 6.94611 6.08419 4.83008C6.13149 2.66792 7.92363 0.920074 10.1406 0.920074ZM19.0549 20.8836C19.0549 21.5277 18.5832 22.0796 17.9232 22.0796H2.16967C2.00833 22.0806 1.84837 22.0504 1.69909 21.9907C1.54981 21.931 1.41418 21.8429 1.30009 21.7317C1.18599 21.6204 1.09571 21.4881 1.03447 21.3425C0.973237 21.1969 0.942273 21.0409 0.943379 20.8836V11.5916H19.0549V20.8836ZM1.3682 10.672L3.20765 7.82003C3.29372 7.68979 3.41269 7.58331 3.55311 7.51083C3.69354 7.43835 3.85072 7.4023 4.00956 7.40614H5.99046C6.32069 7.9123 6.79237 8.37232 7.26406 8.74009H6.22652C5.9436 8.74009 5.75484 8.92418 5.75484 9.20011C5.75484 9.47604 5.94316 9.66014 6.22652 9.66014H13.8195C14.1028 9.66014 14.2912 9.47647 14.2912 9.20011C14.2912 8.92375 14.1028 8.74009 13.8195 8.74009H13.0649C13.5716 8.37731 14.0037 7.92461 14.3385 7.40571H16.0837C16.2426 7.40196 16.3998 7.43809 16.5402 7.51065C16.6807 7.5832 16.7996 7.68974 16.8857 7.82003L18.7251 10.672H1.3682Z" fill="#666666"/>
<path d="M11.9971 4.0793C12.1097 4.09331 12.2135 4.13896 12.2941 4.20936C12.389 4.29233 12.467 4.42683 12.4469 4.58665C12.4334 4.71809 12.3708 4.83964 12.2716 4.92702C12.1722 5.01462 12.0433 5.06134 11.911 5.05805H11.7075L11.6892 5.12894L11.6887 5.13089L11.6887 5.13089L11.5551 5.63087L11.5535 5.63686L11.5535 5.63683L11.3698 6.26181L11.3667 6.27234L11.3665 6.27227C11.3297 6.37972 11.2596 6.47258 11.1664 6.53741C11.0746 6.60131 10.965 6.63471 10.8533 6.63301C10.8517 6.63299 10.85 6.63296 10.8484 6.63292L10.8545 6.38299C10.7954 6.38384 10.7374 6.36677 10.6882 6.33404C10.6391 6.30131 10.601 6.25445 10.579 6.19966L11.9971 4.0793ZM11.9971 4.0793L12.0275 3.98439L12.0312 3.97274L12.0338 3.96078C12.0483 3.89377 12.0488 3.8245 12.0353 3.75729C12.0218 3.69008 11.9947 3.62637 11.9555 3.5701C11.9164 3.51384 11.8661 3.46624 11.8078 3.43023C11.7528 3.39622 11.6917 3.37323 11.628 3.36247C11.5021 3.33511 11.3704 3.35343 11.2566 3.41438C11.1396 3.47708 11.0496 3.58056 11.0038 3.70527L11.0006 3.71385L10.9981 3.72262L10.8997 4.0664H10.7714L10.751 4.00052L10.7477 3.98988L10.7434 3.97958C10.6981 3.86941 10.6166 3.77799 10.5125 3.72024C10.416 3.66676 10.3054 3.64507 10.1964 3.65782C10.0931 3.65837 9.99196 3.68838 9.90491 3.7446C9.81057 3.80554 9.73745 3.8943 9.69576 3.99864L9.6921 4.00778L9.68918 4.01719L9.6687 4.08306H9.54332L9.45135 3.74284L9.44789 3.73004L9.44309 3.71767C9.39488 3.59337 9.30315 3.49087 9.18506 3.42912C9.07029 3.36911 8.93814 3.35152 8.81187 3.37918C8.74825 3.38996 8.68727 3.41294 8.63231 3.4469C8.57403 3.48291 8.52376 3.53051 8.48462 3.58677C8.44549 3.64303 8.41833 3.70674 8.40486 3.77395C8.39138 3.84117 8.39189 3.91043 8.40634 3.97745L8.40607 3.97751L8.40911 3.98896L8.43426 4.08358C8.31146 4.09111 8.19528 4.14215 8.10669 4.22765C8.0177 4.31352 7.96243 4.42847 7.95102 4.55167L7.94892 4.57431L7.95094 4.59697C7.96315 4.73358 8.02837 4.85991 8.13253 4.94904C8.2343 5.03612 8.36538 5.08096 8.4989 5.07471H8.69921L8.71754 5.14561L8.71754 5.14561L8.71779 5.14657L8.85135 5.65488L8.85123 5.65492L8.85355 5.66271L9.03719 6.27935L9.037 6.27941L9.04026 6.28893C9.07702 6.39638 9.14713 6.48924 9.24031 6.55407C9.33072 6.61698 9.43831 6.65033 9.54826 6.64973C9.65843 6.65384 9.76723 6.62323 9.85917 6.56204C9.95394 6.49897 10.0257 6.40682 10.0635 6.29939L10.0636 6.2994L10.0649 6.29551L10.2082 5.86631L11.9971 4.0793Z" fill="#F8F8F8" stroke="#666666" stroke-width="0.5"/>
</g>
<defs>
<clipPath id="clip0_1200_8108">
<rect width="20" height="23" fill="white"/>
</clipPath>
</defs>
</svg>
