<svg width="22" height="21" viewBox="0 0 22 21" fill="none" xmlns="http://www.w3.org/2000/svg">
<path opacity="0.8" d="M16.4176 16.0589L14.7666 19.9612L13.9891 19.1837L13.9762 19.1709L13.9623 19.1592C13.5806 18.8412 13.4463 18.3249 13.5776 17.8656L13.5778 17.8656L13.581 17.8527L14.1801 15.4564L14.2408 15.2134L14.0491 15.0523L9.76999 11.4579L9.42717 11.17L9.17881 11.5425L4.48624 18.5813L4.15358 18.2487C3.31072 17.3245 3.01567 15.9485 3.46571 14.8234L3.46577 14.8234L3.46827 14.8168L6.03572 8.05588L6.12774 7.81354L5.94444 7.63025L3.03468 4.72048C2.62189 4.30769 2.23469 3.83659 2.00709 3.30552L2.00245 3.2947L1.99718 3.28416L1.22695 1.7437C1.05347 1.39674 1.09471 1.06201 1.3253 0.75365C1.63366 0.52305 1.96839 0.481817 2.31535 0.655297L2.31531 0.655378L2.32302 0.659028L3.94512 1.42739C4.41875 1.66483 4.9796 2.06545 5.37571 2.46102L8.28341 5.45423L8.46691 5.64314L8.71311 5.54964L15.4725 2.98279C15.4727 2.98269 15.473 2.98259 15.4733 2.98249C16.7086 2.51955 17.9937 2.75527 18.8996 3.66116L19.2339 3.99546L12.1186 8.60424L11.7377 8.85091L12.0296 9.19834L15.624 13.4774L15.7851 13.6692L16.028 13.6084L18.4032 13.0146C18.8989 12.9496 19.4384 13.1004 19.7554 13.4174L20.5329 14.1949L16.6305 15.8459L16.4809 15.9092L16.4176 16.0589Z" fill="#329964" stroke="#666666" stroke-width="0.801477"/>
</svg>
