<svg width="22" height="21" viewBox="0 0 22 21" fill="none" xmlns="http://www.w3.org/2000/svg">
<path opacity="0.8" className="main" d="M16.4181 16.0588L14.7671 19.9612L13.9896 19.1837L13.9767 19.1709L13.9628 19.1592C13.5811 18.8411 13.4468 18.3249 13.5781 17.8655L13.5783 17.8656L13.5815 17.8526L14.1806 15.4564L14.2413 15.2134L14.0496 15.0523L9.77048 11.4579L9.42765 11.1699L9.1793 11.5425L4.48672 18.5813L4.15407 18.2487C3.31121 17.3245 3.01616 15.9484 3.4662 14.8233L3.46626 14.8234L3.46876 14.8168L6.0362 8.05585L6.12823 7.81351L5.94493 7.63022L3.03516 4.72045C2.62237 4.30766 2.23518 3.83656 2.00758 3.30549L2.00294 3.29466L1.99767 3.28413L1.22744 1.74367C1.05396 1.39671 1.09519 1.06198 1.32579 0.753619C1.63415 0.523019 1.96888 0.481786 2.31584 0.655266L2.3158 0.655347L2.32351 0.658997L3.94561 1.42736C4.41923 1.6648 4.98009 2.06542 5.3762 2.46099L8.28389 5.4542L8.4674 5.64311L8.7136 5.54961L15.473 2.98276C15.4732 2.98266 15.4735 2.98256 15.4738 2.98246C16.7091 2.51952 17.9942 2.75524 18.9001 3.66113L19.2344 3.99543L12.1191 8.60421L11.7382 8.85088L12.0301 9.19831L15.6245 13.4774L15.7856 13.6691L16.0285 13.6084L18.4037 13.0146C18.8994 12.9496 19.4389 13.1004 19.7559 13.4174L20.5334 14.1949L16.631 15.8459L16.4814 15.9092L16.4181 16.0588Z" fill="var(--Blue)" stroke="#666666" stroke-width="0.801477"/>
</svg>
