<svg width="24" height="24" viewBox="0 0 24 24" fill="none" xmlns="http://www.w3.org/2000/svg">
<g clip-path="url(#clip0_437_5384)">
<path d="M15.7124 14.041C15.6565 13.7097 15.5614 13.3864 15.429 13.078C15.0445 12.1622 14.3851 11.3909 13.5435 10.8724C12.8788 10.4775 12.1203 10.2717 11.3488 10.2772C10.5772 10.2827 9.82164 10.4991 9.16251 10.9035C8.54846 11.2746 8.0508 11.813 7.72682 12.4567C7.61654 12.6767 7.52382 12.9053 7.44955 13.1401C7.24899 13.7501 7.17237 14.3945 7.22424 15.035C7.27611 15.6755 7.45542 16.2988 7.75147 16.8679C7.95401 17.2161 8.26323 17.4887 8.6326 17.6445C8.81695 17.7219 9.01682 17.7544 9.21597 17.7393C9.41511 17.7242 9.60791 17.6619 9.77869 17.5575C9.96659 17.4072 10.1069 17.2049 10.1824 16.9753C10.258 16.7458 10.2654 16.499 10.2038 16.2652C10.0607 15.6713 10.0756 15.0498 10.247 14.4635C10.315 14.2718 10.4244 14.0978 10.5674 13.954C10.6562 13.8678 10.7581 13.7965 10.8693 13.7428C11.1015 13.6251 11.3638 13.5818 11.621 13.6185C11.8443 13.6671 12.0529 13.7686 12.2296 13.9144C12.4064 14.0602 12.5463 14.2463 12.6377 14.4573C12.8088 14.8708 12.8988 15.3139 12.9027 15.762C12.9059 17.7854 12.6089 19.7978 12.0216 21.7326C11.9661 21.9314 11.9106 22.124 11.8614 22.3228C11.8121 22.5217 11.7381 22.6646 11.8614 22.8137C11.9044 22.8753 11.9644 22.9228 12.0339 22.9504C12.3296 23.0684 12.5638 22.8882 12.761 22.6894C13.8802 21.4806 14.7051 20.0256 15.1702 18.4398C15.3638 17.8586 15.5182 17.265 15.6323 16.6629C15.8084 15.794 15.8396 14.9016 15.7248 14.0224" fill="#008375"/>
<path d="M23.9937 4.83332C23.9914 4.76499 23.9754 4.69783 23.9465 4.63596C23.9177 4.57409 23.8767 4.5188 23.8259 4.47345C23.7752 4.4281 23.7158 4.39365 23.6514 4.3722C23.587 4.35075 23.519 4.34276 23.4515 4.34871C23.1676 4.38831 22.8925 4.47655 22.6381 4.60964C17.4472 6.48284 11.8731 7.01263 6.42655 6.15046C5.50845 6.01377 4.57802 5.8336 3.65376 5.68449C3.07456 5.59129 2.50152 5.46082 1.92231 5.41733C1.39861 5.31601 0.856297 5.42048 0.406524 5.70934C0.175477 5.96554 0.032193 6.28981 -0.00219875 6.63434C-0.0365905 6.97888 0.0397318 7.32544 0.215511 7.62292C0.607971 8.30065 1.17692 8.85714 1.8607 9.23207C2.49531 9.68553 3.24635 9.94444 4.02347 9.97763C6.07738 9.84094 8.1313 9.63384 10.1852 9.35633C13.6666 8.90279 17.3082 8.47409 20.5801 7.11345C21.6625 6.67939 22.6822 6.10055 23.6117 5.39248C23.778 5.26822 24.0183 5.05698 24.0183 4.81468" fill="#008375"/>
<path d="M9.39062 3.07517C9.39062 3.6107 9.60161 4.12429 9.97716 4.50296C10.3527 4.88164 10.8621 5.09438 11.3932 5.09438C11.9243 5.09438 12.4337 4.88164 12.8092 4.50296C13.1848 4.12429 13.3958 3.6107 13.3958 3.07517C13.3955 2.90796 13.3597 2.74274 13.291 2.59056C13.1185 2.224 12.9213 2.04383 12.9459 1.60271C12.9459 1.01248 12.2127 0.981417 11.806 0.981417C11.3539 0.966564 10.9046 1.05804 10.4936 1.24859C10.1744 1.41239 9.90427 1.65901 9.71103 1.96307C9.50843 2.27342 9.39733 2.63535 9.39062 3.00684V3.05653" fill="#D50037"/>
</g>
<defs>
<clipPath id="clip0_437_5384">
<rect width="24" height="22" fill="white" transform="translate(0 1)"/>
</clipPath>
</defs>
</svg>
