<svg width="24" height="24" viewBox="0 0 24 24" fill="none" xmlns="http://www.w3.org/2000/svg">
<path d="M16.872 0L12.0002 2.38062L7.12842 0L12.0002 8.99654L16.872 0Z" fill="#FFB71B"/>
<path d="M18.6098 6.92036L22.0856 5.50856V0.747314L16.0457 3.26636L12.6838 9.41169C13.9772 9.55656 15.1645 10.1765 16.0025 11.1446C16.8405 12.1126 17.2658 13.3554 17.1911 14.6183C17.1165 15.8812 16.5475 17.0685 15.6009 17.9369C14.6543 18.8054 13.4017 19.2892 12.0998 19.2892C10.7979 19.2892 9.54535 18.8054 8.59874 17.9369C7.65213 17.0685 7.0832 15.8812 7.00852 14.6183C6.93385 13.3554 7.35904 12.1126 8.19706 11.1446C9.03508 10.1765 10.2224 9.55656 11.5157 9.41169L8.15393 3.26636L2.14258 0.747314V5.50856L5.67531 6.92036C4.14315 8.22162 3.05609 9.94609 2.55922 11.8635C2.06235 13.7809 2.17929 15.7999 2.89456 17.651C3.60983 19.502 4.88932 21.0971 6.56215 22.223C8.23498 23.3489 10.2215 23.9522 12.2565 23.9522C14.2915 23.9522 16.278 23.3489 17.9509 22.223C19.6237 21.0971 20.9032 19.502 21.6184 17.651C22.3337 15.7999 22.4508 13.7809 21.9539 11.8635C21.457 9.94609 20.3699 8.22162 18.8377 6.92036H18.6098Z" fill="#FFB71B"/>
</svg>
