<svg width="24" height="24" viewBox="0 0 24 24" fill="none" xmlns="http://www.w3.org/2000/svg">
<g clip-path="url(#clip0_437_4038)">
<path d="M11.4646 0.172696C9.1251 0.278794 6.86962 1.07639 4.98348 2.46456C3.09733 3.85274 1.66526 5.76914 0.868441 7.97134C0.071624 10.1735 -0.0541552 12.5626 0.507025 14.8363C1.06821 17.11 2.29114 19.1661 4.0211 20.7447C5.75107 22.3232 7.91033 23.3532 10.2258 23.7044C12.5412 24.0556 14.9088 23.7121 17.029 22.7175C19.1492 21.7228 20.9268 20.1217 22.1369 18.1167C23.347 16.1116 23.9352 13.7927 23.8272 11.4533C23.7577 9.89981 23.3828 8.37528 22.7237 6.96683C22.0647 5.55838 21.1345 4.29364 19.9864 3.24492C18.8382 2.19619 17.4946 1.38405 16.0324 0.85492C14.5702 0.325793 13.018 0.0900572 11.4646 0.161192V0.172696Z" fill="url(#paint0_radial_437_4038)"/>
<path d="M11.4591 0.0115263C9.08793 0.118717 6.80183 0.926679 4.88992 2.33322C2.97801 3.73975 1.52616 5.68168 0.717995 7.91341C-0.0901747 10.1451 -0.218353 12.5664 0.349659 14.871C0.91767 17.1756 2.15636 19.26 3.90907 20.8605C5.66178 22.4611 7.84977 23.5059 10.1963 23.8628C12.5429 24.2198 14.9426 23.8728 17.092 22.8658C19.2413 21.8589 21.0438 20.2371 22.2714 18.2057C23.499 16.1742 24.0965 13.8243 23.9885 11.4533C23.8437 8.27418 22.4427 5.28266 20.0932 3.13612C17.7438 0.98958 14.6382 -0.136359 11.4591 0.00576529V0.0115263ZM12.8634 11.6547C14.9986 13.623 16.167 14.682 16.167 14.682C19.9252 17.813 18.6418 20.6734 17.2029 21.6691C16.0465 22.4403 14.6907 22.8583 13.3008 22.872C13.2527 22.8792 13.2036 22.8768 13.1564 22.8647C13.1093 22.8526 13.0651 22.8311 13.0264 22.8016C12.9878 22.7721 12.9554 22.735 12.9314 22.6927C12.9073 22.6504 12.892 22.6038 12.8864 22.5554C12.8864 22.2849 13.272 22.2159 13.272 22.2159C16.8231 21.5194 15.7814 19.1885 14.5267 18.0029C14.0029 17.5022 9.05905 13.2374 9.05905 13.2374C4.35114 9.20865 4.72524 6.0144 4.72524 6.0144C4.9497 2.118 8.36265 1.15109 10.9468 1.37555C11.2461 1.40433 11.413 1.58851 11.3612 1.83599C11.3094 2.08348 10.9065 2.13527 10.9065 2.13527C10.1684 2.1161 9.43815 2.29073 8.78854 2.64175C6.71085 4.04031 7.32667 6.42303 10.1008 9.07051C10.4461 9.40433 10.8202 9.75542 11.2001 10.1123C11.2001 10.1123 11.7583 10.6015 12.8634 11.6547ZM11.2519 21.7266C11.2519 22.1123 10.3483 22.2734 9.29502 22.1698C7.72015 22.0578 6.22027 21.4538 5.00725 20.4432C3.83993 19.3921 2.99559 18.0308 2.57273 16.518C2.18136 15.1597 1.99719 13.577 2.66481 13.6979C2.8605 13.7381 3.20581 14.613 3.57416 15.2461C3.82066 15.7205 4.15913 16.1411 4.56985 16.4835C4.70222 16.5813 5.14537 15.5741 5.813 15.0043C6.19285 14.6878 6.613 14.5784 6.68207 15.5223C6.76264 16.6734 6.55546 18.0547 6.88927 18.0547C7.22308 18.0547 7.91949 17.813 9.4792 17.6806C10.0547 17.6346 10.4 17.7439 9.84177 18.5324C9.43376 19.1536 8.91246 19.6925 8.30509 20.1209C9.63459 21.3525 11.2231 21.2029 11.2519 21.7266ZM12.2993 9.64031C12.1931 9.14652 12.1775 8.63751 12.2533 8.13814C12.4106 7.11708 12.7211 6.1256 13.1742 5.19714C13.7497 3.83311 12.4029 3.03311 12.5986 2.53239C12.8979 1.85326 13.8418 2.71656 14.9008 2.77987C15.8044 2.83167 16.3511 2.77988 17.0533 2.87772C17.9857 3.00434 19.1022 3.31513 19.5972 3.90218C20.0921 4.48923 19.3612 5.08779 18.5209 4.67916C17.9108 4.37988 17.1396 4.56405 17.5885 5.2029C17.9263 5.62674 18.4153 5.90317 18.9526 5.97412C20.4778 6.377 20.5123 7.83887 19.4763 8.59858C18.2965 9.45614 17.1108 9.10506 16.6332 7.41297C16.3914 6.56693 15.7929 6.14102 15.1828 6.37699C14.5727 6.61296 14.9353 7.72951 15.4015 8.75397C16.3224 11.1137 14.026 11.0561 13.7612 11.0043C13.4149 10.9331 13.095 10.7674 12.837 10.5257C12.579 10.2839 12.393 9.9755 12.2993 9.63455V9.64031Z" fill="url(#paint1_radial_437_4038)"/>
</g>
<defs>
<radialGradient id="paint0_radial_437_4038" cx="0" cy="0" r="1" gradientUnits="userSpaceOnUse" gradientTransform="translate(13.8482 8.12413) scale(11.2483)">
<stop stop-color="white"/>
<stop offset="1" stop-color="#CF9C51"/>
</radialGradient>
<radialGradient id="paint1_radial_437_4038" cx="0" cy="0" r="1" gradientUnits="userSpaceOnUse" gradientTransform="translate(11.0638 4.69941) scale(25.1962)">
<stop stop-color="#00C0F3"/>
<stop offset="0.22" stop-color="#0097D6"/>
<stop offset="0.28" stop-color="#0086CA"/>
<stop offset="0.37" stop-color="#0074BD"/>
<stop offset="0.46" stop-color="#0069B5"/>
<stop offset="0.57" stop-color="#0066B3"/>
</radialGradient>
<clipPath id="clip0_437_4038">
<rect width="24" height="24" fill="white"/>
</clipPath>
</defs>
</svg>
