<svg width="24" height="24" viewBox="0 0 24 24" fill="none" xmlns="http://www.w3.org/2000/svg">
<g clip-path="url(#clip0_437_4473)">
<path d="M23.6107 12.2351L23.4046 12.0965C23.0015 11.7106 22.5229 11.4226 22.0026 11.2528C21.4822 11.083 20.9328 11.0356 20.3931 11.1139C19.4537 11.1956 18.5484 11.5229 17.7595 12.0663V12.0181C17.7669 11.6391 17.7937 11.2608 17.8397 10.8848C17.874 10.493 17.9141 10.1011 17.9141 9.7274C17.9263 9.36958 17.8698 9.01283 17.7481 8.67849C17.7335 8.63894 17.7073 8.60533 17.6734 8.58256C17.6394 8.55978 17.5994 8.54904 17.5592 8.55191C17.1296 8.59445 16.7146 8.73871 16.3454 8.97389L16.2538 9.17884C16.2523 9.75251 16.1928 10.3244 16.0763 10.8848C16.0637 10.9339 16.0484 10.9822 16.0305 11.0295C15.8875 12.4723 15.8875 13.9269 16.0305 15.3697C16.0305 15.4903 16.2767 15.6772 16.4485 15.7495C16.8418 15.7597 17.2326 15.6794 17.5935 15.5144H17.7252C17.7514 15.5108 17.7767 15.5016 17.7995 15.4873C17.8222 15.473 17.842 15.4541 17.8575 15.4315C17.8731 15.4089 17.8841 15.3832 17.8899 15.356C17.8957 15.3288 17.8961 15.3007 17.8912 15.2733V14.9176C18.0479 14.2988 18.3596 13.7357 18.7936 13.2872C19.2277 12.8386 19.7683 12.521 20.3588 12.3677C20.6539 12.3004 20.9607 12.3163 21.2482 12.4136C21.5356 12.511 21.7936 12.6865 21.9962 12.9223C22.1273 13.5216 22.0307 14.1511 21.7271 14.6765C21.2995 15.4137 20.6354 15.9653 19.855 16.2317C18.9379 16.5758 17.9639 16.7194 16.9924 16.6537C16.9408 16.6236 15.9332 15.9062 15.9332 15.9062C15.0018 15.1572 13.9913 14.5241 12.9218 14.0194C12.676 13.875 12.4456 13.7033 12.2347 13.507L12.1374 13.4166C11.5649 12.9223 10.4485 12.1507 9.56107 11.5298L9.08588 11.1862V11.0837C9.08588 11.0536 9.6584 10.704 9.6584 10.704C10.0938 10.4775 10.5014 10.1962 10.8721 9.86604L10.9809 9.79974L12.916 8.64233C14.771 7.56932 16.8779 6.35165 17.9828 5.14602L18.0344 4.95915V4.79638C18.1 4.57457 18.1 4.33702 18.0344 4.11521C18.0271 4.07649 18.0091 4.0409 17.9826 4.01299C17.9561 3.98508 17.9223 3.96611 17.8855 3.95848C17.021 3.86805 15.9103 4.41059 14.8969 5.41126C14.7095 5.59292 14.4996 5.74702 14.2729 5.86938L14.1183 5.95379C12.9733 6.62291 10.4828 8.26859 9.16603 9.16076C9.2905 7.35228 9.51416 5.5529 9.83588 3.77161L9.80153 3.56062L9.66413 3.29538L9.56107 3.10247C9.36282 3.00068 9.1344 2.98552 8.92558 3.06029L8.66222 3.16276L8.31298 3.29538C8.2797 3.30283 8.24869 3.31884 8.22272 3.34198C8.19674 3.36512 8.17661 3.39467 8.16412 3.428C7.45094 5.46616 7.02093 7.60205 6.8874 9.76958C5.92216 9.13188 4.92449 8.55031 3.89886 8.02746H3.83015C3.57942 7.96164 3.34255 7.84716 3.13168 7.68989L2.65649 7.36437L1.92366 6.87006L1.72901 6.82184C1.30207 6.96396 0.922644 7.23169 0.635497 7.59344C0.613644 7.63171 0.601795 7.67538 0.601147 7.72002C0.606508 7.78141 0.618021 7.84204 0.635497 7.90088L0.669851 8.0576L0.7042 8.15405C1.35351 8.7274 2.06679 9.21526 2.82825 9.60683L3.83015 10.1674L5.37023 11.0476L5.63359 11.2706L5.81107 11.3791H5.84542C5.43321 11.6624 3.05153 13.3443 3.05153 13.3443L1.55153 14.4293C1.27662 14.588 0.993768 14.7309 0.7042 14.8573C0.425727 14.96 0.190559 15.1628 0.0400762 15.43L0 15.5204L0.0400762 15.5807L0.154583 15.6711L0.303434 15.7736L0.469465 15.8882L0.618322 15.9183C1.09491 15.8502 1.55515 15.6887 1.97519 15.4421C2.63359 15.1346 4.41985 14.0013 5.18703 13.5191L5.51336 13.3081C5.66866 13.286 5.81313 13.212 5.92558 13.0971C6.14157 12.929 6.3715 12.7817 6.6126 12.6571C6.6126 12.6571 6.73855 12.5847 6.84733 12.5244V12.6209C6.83396 14.507 6.97572 16.3908 7.271 18.2512V18.3115C7.44787 18.7246 7.58036 19.1573 7.66603 19.6015L7.95229 20.6263L8.03817 20.7227C8.34227 20.9145 8.69137 21.0127 9.0458 21.006H9.13168L9.18321 20.8794C9.21152 20.7245 9.22494 20.567 9.22328 20.4092C9.22328 20.2224 9.22328 20.0174 9.22328 19.7642V19.3965C9.1145 17.6785 9.01145 15.1768 9.01145 13.5492V13.4166L10.5 14.4052C12.5611 15.8098 15.6527 17.9437 17.5592 18.5044C17.6065 18.5192 17.6567 18.5209 17.7049 18.5093C17.753 18.4977 17.7975 18.4731 17.834 18.438L18.126 18.2451H18.1775C18.2419 18.1903 18.293 18.1202 18.3268 18.0406C18.3607 17.961 18.3762 17.8741 18.3721 17.787C19.958 17.7086 22.1737 17.0636 23.3588 15.4963C23.7821 14.9283 24.0156 14.229 24.0229 13.507C24.0482 13.067 23.9084 12.634 23.6336 12.3014" fill="#FCAF17"/>
</g>
<defs>
<clipPath id="clip0_437_4473">
<rect width="24" height="18" fill="white" transform="translate(0 3)"/>
</clipPath>
</defs>
</svg>
