<svg width="24" height="24" viewBox="0 0 24 24" fill="none" xmlns="http://www.w3.org/2000/svg">
<path d="M24 0H0V24H24V0Z" fill="#0091D0"/>
<path d="M0 6V18L6 12.007L0 6Z" fill="#009AD8"/>
<path d="M12 15L6 9L0 15H12Z" fill="#0091D0"/>
<path d="M12 18V6L6 12L12 18Z" fill="#0082C9"/>
<path d="M12 6V18L18 12.007L12 6Z" fill="#0071BB"/>
<path d="M24 15L18 9L12 15H24Z" fill="#004C98"/>
<path d="M24 18V6L18 12L24 18Z" fill="#00529C"/>
<path d="M23.9999 11.1761L16.3168 3.85217L4.65479 15.5494L8.90831 19.8029L16.3168 12.5071L23.9999 20.1479V11.1761Z" fill="white"/>
</svg>
