<svg width="24" height="23" viewBox="0 0 24 23" fill="none" xmlns="http://www.w3.org/2000/svg">
<g clip-path="url(#clip0_437_4076)">
<path d="M5.83873 0.281945C5.19467 0.600845 4.70496 1.15973 4.47725 1.83574L0.139518 14.736C-0.0851224 15.4124 -0.0300548 16.1492 0.292689 16.7855C0.615433 17.4218 1.17961 17.9058 1.86195 18.1318L16.091 22.8559C16.4297 22.9682 16.7876 23.0133 17.144 22.9885C17.5004 22.9638 17.8484 22.8698 18.168 22.7118C18.487 22.555 18.7711 22.3368 19.0038 22.07C19.2365 21.8032 19.413 21.4931 19.5232 21.158L23.8672 8.2577C24.0936 7.58139 24.0394 6.84383 23.7164 6.20708C23.3934 5.57033 22.8281 5.08649 22.1448 4.86189L7.9221 0.137836C7.58357 0.0241628 7.22554 -0.0216368 6.86892 0.00310496C6.5123 0.0278467 6.16424 0.122641 5.84506 0.281945" fill="white"/>
<path d="M12.7977 12.6747C12.0147 13.5428 11.0364 14.2167 9.94174 14.642L9.3085 14.8864V8.90924L9.94174 9.15359C11.0378 9.57664 12.0182 10.2483 12.804 11.1146C13.3013 10.3096 13.6149 9.40682 13.7229 8.46939C13.8308 7.53196 13.7305 6.58251 13.4289 5.68743C13.1274 4.79235 12.6319 3.97325 11.977 3.28738C11.3222 2.60152 10.5238 2.06545 9.63778 1.71665L7.56074 1.01494C7.34079 0.943526 7.10877 0.915727 6.87796 0.933144C6.64714 0.95056 6.42206 1.01285 6.21561 1.11644C6.00915 1.22003 5.82537 1.36289 5.67479 1.53684C5.52421 1.71079 5.40977 1.91241 5.33805 2.13017L0.987654 15.043C0.845614 15.4875 0.886249 15.9695 1.10077 16.3846C1.31529 16.7998 1.68643 17.1146 2.13383 17.2609L12.0061 20.5189C12.9907 19.4787 13.6008 18.146 13.7416 16.7276C13.8825 15.3093 13.5462 13.8846 12.785 12.6747H12.7977ZM7.0858 8.55212V15.256H6.10427V8.57092L7.0858 8.55212Z" fill="#2293C8"/>
<path d="M12.2281 11.8915C11.6721 11.249 10.9972 10.7174 10.2397 10.3252V13.4579C11.0004 13.0625 11.6759 12.524 12.2281 11.8727" fill="#E43D30"/>
<path d="M21.8279 5.72029L12.7661 2.72546C13.9044 3.957 14.5868 5.53411 14.7018 7.19906C14.8168 8.864 14.3577 10.5183 13.3994 11.8916C14.3305 13.2239 14.7929 14.8223 14.715 16.4403C14.6372 18.0583 14.0236 19.606 12.9688 20.8448L16.3756 21.9663C16.5955 22.0385 16.8277 22.067 17.0588 22.05C17.2899 22.033 17.5153 21.9708 17.7219 21.8671C17.9286 21.7634 18.1125 21.6202 18.2629 21.4458C18.4133 21.2714 18.5273 21.0693 18.5983 20.851L22.9677 7.94448C23.1117 7.50078 23.0728 7.01875 22.8593 6.60334C22.6458 6.18793 22.2751 5.87279 21.8279 5.72656V5.72029ZM19.4279 15.2436H18.1994L15.6664 11.8916L18.1994 8.54595H19.4659L16.9329 11.9042L19.4279 15.2436Z" fill="#215C9C"/>
</g>
<defs>
<clipPath id="clip0_437_4076">
<rect width="24" height="23" fill="white"/>
</clipPath>
</defs>
</svg>
