<svg width="72" height="72" viewBox="0 0 72 72" fill="none" xmlns="http://www.w3.org/2000/svg">
<g clip-path="url(#clip0_627_5400)">
<path d="M71.9907 35.2477C71.8231 28.0375 69.5074 20.809 65.2247 14.9814C64.0814 13.4062 62.8225 11.9184 61.4585 10.5302C61.4552 10.5259 61.4511 10.5223 61.4463 10.5196C56.2678 5.35961 49.4805 1.74383 42.2513 0.544159C38.7365 -0.0396699 35.2034 -0.189057 31.6627 0.269775C29.7313 0.499822 27.821 0.881582 25.9495 1.41152C24.1156 1.95825 22.3251 2.64102 20.5927 3.45416C13.9014 6.55471 8.1942 11.9479 4.59561 18.3761C1.09148 24.6443 -0.546318 32.0389 0.162126 39.2004C0.843234 46.7294 3.86776 53.8549 8.80971 59.5734C13.6579 65.1965 20.133 69.173 27.3389 70.9528C34.2802 72.6448 41.7866 72.3125 48.4856 69.7699C50.2888 69.098 52.0383 68.2897 53.719 67.3522C55.4279 66.3656 57.0579 65.2479 58.5943 64.0093C61.5207 61.6619 64.0596 58.8681 66.1175 55.7305C70.0909 49.7459 72.1568 42.4335 71.9907 35.2477ZM65.1043 39.8879C64.7345 42.3944 64.076 44.8497 63.142 47.2048C62.1111 49.5956 60.7997 51.8553 59.2357 53.9364C57.6816 55.883 55.9162 57.651 53.9719 59.2076C51.8824 60.7767 49.6155 62.0942 47.218 63.1328C44.8642 64.0668 42.4102 64.7251 39.9051 65.0947C37.3167 65.3965 34.7021 65.3965 32.1137 65.0947C29.6086 64.7251 27.1546 64.0668 24.8007 63.1328C22.4109 62.1013 20.1524 60.7888 18.0728 59.2228C16.127 57.6675 14.3596 55.9012 12.8029 53.9562C11.2371 51.8656 9.92236 49.598 8.88589 47.2002C7.95209 44.8452 7.29411 42.3898 6.9251 39.8833C6.62348 37.293 6.62348 34.6765 6.9251 32.0862C7.29433 29.5797 7.9523 27.1244 8.88589 24.7693C9.91678 22.3777 11.2286 20.1174 12.7938 18.0362C14.3487 16.0902 16.114 14.3224 18.0576 12.7649C20.1471 11.195 22.4139 9.87652 24.8114 8.83667C27.1654 7.90307 29.6193 7.24476 32.1244 6.87482C34.7132 6.57304 37.3284 6.57304 39.9173 6.87482C42.4225 7.24478 44.8764 7.90362 47.2302 8.8382C49.6161 9.86661 51.871 11.1756 53.9475 12.7375C54.9282 13.5196 55.8651 14.3552 56.7538 15.2405C57.6321 16.1221 58.4607 17.0519 59.2357 18.0255C60.8014 20.1126 62.1166 22.3766 63.1542 24.7708C64.087 27.1262 64.7449 29.5814 65.115 32.0877C65.4135 34.6794 65.4099 37.297 65.1043 39.8879Z" fill="#329964" stroke="#F8F8F8" stroke-width="1.5"/>
<path d="M54.1158 24.9516C52.727 23.7321 50.5747 23.6345 49.2034 24.9516L31.6902 41.7713C29.5126 39.6758 27.3355 37.5788 25.1589 35.4803C24.7431 35.0718 24.3177 34.6724 23.9002 34.2608C22.6162 33.0276 20.2497 32.9346 18.9879 34.2608C17.726 35.587 17.6165 37.654 18.9879 38.9787L27.9714 47.6325C28.3889 48.041 28.8142 48.4404 29.2301 48.852C29.888 49.4657 30.7691 49.809 31.6863 49.809C32.6035 49.809 33.4845 49.4657 34.1425 48.852L54.1158 29.6694C55.4014 28.4362 55.4967 26.168 54.1158 24.9516Z" fill="#329964" stroke="#F8F8F8" stroke-width="1.5"/>
</g>
<defs>
<clipPath id="clip0_627_5400">
<rect width="72" height="72" fill="white"/>
</clipPath>
</defs>
</svg>
