<svg width="24" height="24" viewBox="0 0 24 24" fill="none" xmlns="http://www.w3.org/2000/svg">
<g clip-path="url(#clip0_437_4421)">
<path d="M0.033747 11.9592C0.0244646 11.9622 0.0163094 11.9682 0.0103751 11.9763C0.00444072 11.9843 0.00100975 11.994 0.000543117 12.0042C7.64802e-05 12.0143 0.00259693 12.0243 0.00776468 12.0329C0.0129324 12.0415 0.0205012 12.0483 0.0294574 12.0523L3.73218 14.5981L4.79282 9.40186L0.033747 11.9592Z" fill="#E42313"/>
<path d="M21.9578 9.40112H21.0216C20.9637 9.40352 20.9068 9.41783 20.8543 9.44322L16.1614 11.961C16.152 11.9638 16.1437 11.9696 16.1377 11.9776C16.1316 11.9856 16.1281 11.9953 16.1275 12.0054C16.127 12.0156 16.1295 12.0256 16.1347 12.0342C16.1399 12.0429 16.1475 12.0496 16.1565 12.0535L19.801 14.547C19.8502 14.5778 19.906 14.5954 19.9634 14.598H20.899C20.9474 14.598 20.9542 14.5751 20.9143 14.5476L17.1981 12.0018L21.9676 9.44386C22.0105 9.42026 22.0068 9.40112 21.9578 9.40112Z" fill="#EF7D00"/>
<path d="M19.9524 9.40112H13.4287L12.3687 14.5993H18.8912C18.9396 14.5993 18.9463 14.5763 18.9059 14.5483L15.1958 12.0031L19.9622 9.44386C20.0051 9.42026 20.0008 9.40112 19.9524 9.40112Z" fill="#E42313"/>
<path d="M23.9601 9.40112H23.0245C22.9666 9.40344 22.9097 9.41775 22.8572 9.44322L18.1643 11.961C18.155 11.9638 18.1467 11.9696 18.1406 11.9776C18.1345 11.9856 18.131 11.9953 18.1304 12.0054C18.1299 12.0156 18.1324 12.0256 18.1376 12.0342C18.1428 12.0429 18.1504 12.0496 18.1594 12.0535L21.8003 14.547C21.8495 14.5778 21.9053 14.5953 21.9626 14.598H22.8989C22.9473 14.598 22.954 14.5751 22.9136 14.5476L19.1974 12.0018L23.9675 9.44386C24.0134 9.42026 24.0092 9.40112 23.9601 9.40112Z" fill="#FBBA00"/>
<path d="M19.6631 5.99927H4.30684C3.44902 5.99927 2.84977 6.56125 2.70823 7.25527C2.6707 7.43147 2.68315 7.61522 2.74406 7.78418C2.80498 7.95314 2.91174 8.10004 3.05136 8.20701L8.56899 11.9993H8.57328L19.6729 6.04201C19.7164 6.01904 19.7121 5.99927 19.6631 5.99927Z" fill="#E42313"/>
<path d="M17.2272 17.9496L8.57359 12H8.56991L1.50207 15.7935C1.12586 16.0245 0.848903 16.3638 0.771086 16.7453C0.62832 17.4374 0.99841 18 1.85623 18H17.2125C17.2615 18 17.2676 17.9777 17.2272 17.9496Z" fill="#E42313"/>
</g>
<defs>
<clipPath id="clip0_437_4421">
<rect width="24" height="12" fill="white" transform="translate(0 6)"/>
</clipPath>
</defs>
</svg>
