<svg width="49" height="49" viewBox="0 0 49 49" fill="none" xmlns="http://www.w3.org/2000/svg">
<path d="M0 9.8C0 4.38761 4.38761 0 9.8 0H39.2C44.6124 0 49 4.38761 49 9.8V39.2C49 44.6124 44.6124 49 39.2 49H9.8C4.38761 49 0 44.6124 0 39.2V9.8Z" fill="#4CAF5B" fill-opacity="0.15"/>
<g opacity="0.8">
<g clip-path="url(#clip0_1281_14760)">
<path d="M13.5 13.5243C13.5 10.3021 19 9.9999 24 11.007C25.6 10.2014 32.5 9.9999 36 11.5104C36 19.0625 36.5 35.0729 36.5 36.684C36.5 38.6979 36 38.1945 26 38.6979C18 39.1007 14.3333 37.5232 13.5 36.684V13.5243Z" fill="#006C36" fill-opacity="0.75"/>
<path d="M23 18.5C22.2 16.9 23.5 15.1667 24.5 14.5C28.5 14.5 28 18 27 19.5C31.4 24.3 30.8334 25.8333 30 26L20 25.5C19 22.5 24 19.5 23.5 19.5C23.1 19.5 23 19 23 18.5Z" fill="#F8F8F8"/>
<path d="M37.0136 13.1926C37.0136 12.7722 36.9287 12.356 36.7636 11.9677C36.5984 11.5795 36.3565 11.227 36.0515 10.9304C35.7466 10.6337 35.3847 10.3989 34.9865 10.2392C34.5884 10.0795 34.162 9.99827 33.7316 10H16.2683C15.4015 10 14.5702 10.3364 13.9573 10.9351C13.3443 11.5338 13 12.3459 13 13.1926V35.8075C12.9927 36.2312 13.0719 36.6521 13.2329 37.0456C13.3939 37.4392 13.6335 37.7974 13.9377 38.0996C14.2419 38.4017 14.6047 38.6417 15.0048 38.8054C15.405 38.9692 15.8345 39.0535 16.2683 39.0535H33.7316C34.1666 39.0553 34.5976 38.9723 34.9993 38.8093C35.4011 38.6463 35.7654 38.4067 36.0711 38.1044C36.3768 37.802 36.6176 37.4432 36.7795 37.0487C36.9413 36.6543 37.0209 36.2323 37.0136 35.8075V13.1926ZM35.7829 35.8075C35.7829 36.3389 35.5668 36.8486 35.1821 37.2243C34.7974 37.6001 34.2756 37.8112 33.7316 37.8112H16.2683C15.7243 37.8112 15.2026 37.6001 14.8179 37.2243C14.4332 36.8486 14.2171 36.3389 14.2171 35.8075V13.1926C14.2171 12.6612 14.4332 12.1515 14.8179 11.7757C15.2026 11.4 15.7243 11.1889 16.2683 11.1889H33.7316C34.2756 11.1889 34.7974 11.4 35.1821 11.7757C35.5668 12.1515 35.7829 12.6612 35.7829 13.1926V35.8075Z" fill="#666666"/>
<path d="M32.5966 29.4758H17.4035C17.2439 29.4758 17.0908 29.5378 16.978 29.648C16.8652 29.7582 16.8018 29.9077 16.8018 30.0636C16.8018 30.2195 16.8652 30.369 16.978 30.4792C17.0908 30.5894 17.2439 30.6513 17.4035 30.6513H32.5966C32.7562 30.6513 32.9093 30.5894 33.0221 30.4792C33.1349 30.369 33.1983 30.2195 33.1983 30.0636C33.1983 29.9077 33.1349 29.7582 33.0221 29.648C32.9093 29.5378 32.7562 29.4758 32.5966 29.4758Z" fill="#666666"/>
<path d="M32.5965 33.176H17.4033C17.2576 33.1974 17.1246 33.2692 17.0284 33.3783C16.9323 33.4874 16.8794 33.6265 16.8794 33.7705C16.8794 33.9144 16.9323 34.0536 17.0284 34.1626C17.1246 34.2717 17.2576 34.3435 17.4033 34.3649H32.5965C32.7422 34.3435 32.8752 34.2717 32.9713 34.1626C33.0675 34.0536 33.1204 33.9144 33.1204 33.7705C33.1204 33.6265 33.0675 33.4874 32.9713 33.3783C32.8752 33.2692 32.7422 33.1974 32.5965 33.176Z" fill="#666666"/>
<path d="M28.1111 20.0187L27.4411 19.5912L27.9607 18.9367C28.2779 18.5387 28.4932 18.0724 28.5887 17.5767C28.6841 17.081 28.6568 16.5702 28.5093 16.0869C28.3617 15.6036 28.098 15.1617 27.7402 14.798C27.3824 14.4343 26.9408 14.1595 26.4522 13.9962C25.9636 13.833 25.4422 13.7862 24.9313 13.8597C24.4204 13.9332 23.9349 14.1248 23.5153 14.4187C23.0956 14.7125 22.7538 15.1001 22.5185 15.549C22.2832 15.998 22.1611 16.4954 22.1624 16.9998C22.1589 17.7025 22.4001 18.3854 22.8462 18.9367L23.3658 19.5912L22.6274 20.0187C21.7619 20.4958 21.0414 21.1885 20.5393 22.0262C20.0372 22.8639 19.7715 23.8167 19.7693 24.7874V25.9496C19.7674 26.008 19.7777 26.0661 19.7997 26.1204C19.8218 26.1748 19.8549 26.2241 19.8972 26.2654C19.9395 26.3067 19.99 26.3391 20.0456 26.3606C20.1012 26.3821 20.1608 26.3922 20.2205 26.3904H30.5864C30.645 26.3904 30.703 26.3789 30.757 26.3566C30.811 26.3343 30.8599 26.3016 30.9007 26.2605C30.9415 26.2194 30.9735 26.1707 30.9947 26.1173C31.0158 26.0638 31.0258 26.0068 31.024 25.9496V24.7874C31.0163 23.8114 30.7423 22.855 30.2303 22.0168C29.7183 21.1786 28.9868 20.4889 28.1111 20.0187ZM22.9966 16.9998C22.9993 16.5486 23.1388 16.1083 23.3973 15.7344C23.6559 15.3605 24.0221 15.0698 24.4496 14.899C24.8771 14.7282 25.3469 14.6848 25.7996 14.7745C26.2523 14.8641 26.6677 15.0827 26.9934 15.4027C27.3191 15.7227 27.5404 16.1297 27.6296 16.5724C27.7187 17.0151 27.6716 17.4737 27.4942 17.8903C27.3168 18.3069 27.0171 18.6629 26.6328 18.9133C26.2486 19.1637 25.797 19.2973 25.3351 19.2973C25.0268 19.2973 24.7216 19.2378 24.437 19.1222C24.1524 19.0066 23.894 18.8371 23.6767 18.6236C23.4594 18.4101 23.2874 18.1567 23.1707 17.878C23.054 17.5993 22.9948 17.3009 22.9966 16.9998ZM30.0667 25.5221H20.6035V24.7874C20.6035 23.5617 21.102 22.3861 21.9893 21.5193C22.8767 20.6525 24.0802 20.1656 25.3351 20.1656C26.59 20.1656 27.7935 20.6525 28.6808 21.5193C29.5682 22.3861 30.0667 23.5617 30.0667 24.7874V25.5221Z" fill="#666666" stroke="#666666" stroke-width="0.16"/>
</g>
</g>
<defs>
<clipPath id="clip0_1281_14760">
<rect width="24" height="29" fill="white" transform="translate(13 10)"/>
</clipPath>
</defs>
</svg>
