<svg width="49" height="49" viewBox="0 0 49 49" fill="none" xmlns="http://www.w3.org/2000/svg">
<path d="M0 9.8C0 4.38761 4.38761 0 9.8 0H39.2C44.6124 0 49 4.38761 49 9.8V39.2C49 44.6124 44.6124 49 39.2 49H9.8C4.38761 49 0 44.6124 0 39.2V9.8Z" fill="#EDEFED"/>
<g opacity="0.8" clip-path="url(#clip0_1281_14756)">
<path d="M31 32.5H14H11.5L10.5 35.5L12 38L32 38.5L31 36.5V32.5Z" fill="#C5C5C5"/>
<path d="M15.5 32V11H35.5L36 35.5L35.5 38H34H31.5L30.5 32.5L15.5 32Z" fill="#C5C5C5"/>
<circle cx="26.5" cy="18.5" r="3.5" fill="#F8F8F8"/>
<path d="M34.2533 9.92236H16.9046C16.3085 9.926 15.7379 10.1597 15.3164 10.5729C14.8949 10.9861 14.6565 11.5455 14.6528 12.1298V31.5665H12.1886C11.891 31.5665 11.5963 31.6239 11.3214 31.7356C11.0465 31.8472 10.7967 32.0108 10.5863 32.2171C10.3759 32.4234 10.209 32.6682 10.0951 32.9377C9.98122 33.2072 9.92261 33.4961 9.92261 33.7878V36.1063C9.92635 36.8956 10.2488 37.6512 10.8194 38.208C11.39 38.7648 12.1624 39.0774 12.9675 39.0774H33.4602C34.2678 39.0774 35.0423 38.7629 35.6133 38.2031C36.1843 37.6433 36.5051 36.8841 36.5051 36.0924V12.1298C36.5051 11.5444 36.2679 10.9829 35.8456 10.5689C35.4233 10.1549 34.8505 9.92236 34.2533 9.92236ZM13.01 37.689C12.5641 37.6854 12.1376 37.5102 11.8224 37.2011C11.5071 36.8921 11.3284 36.474 11.3247 36.0369V33.7739C11.3284 33.5407 11.4255 33.3182 11.5951 33.1546C11.7647 32.991 11.9931 32.8993 12.2311 32.8993H29.5373C29.6545 32.8993 29.7705 32.9219 29.8787 32.9659C29.987 33.0098 30.0853 33.0742 30.1682 33.1555C30.251 33.2367 30.3168 33.3331 30.3616 33.4392C30.4064 33.5453 30.4295 33.6591 30.4295 33.7739V36.0924C30.4282 36.6147 30.5701 37.1278 30.8402 37.578L30.9394 37.7446L13.01 37.689ZM35.2022 36.0924C35.2022 36.3094 35.1586 36.5242 35.0739 36.7247C34.9892 36.9251 34.8651 37.1073 34.7086 37.2607C34.5521 37.4141 34.3663 37.5358 34.1618 37.6188C33.9573 37.7018 33.7382 37.7446 33.5169 37.7446C33.2956 37.7446 33.0764 37.7018 32.8719 37.6188C32.6675 37.5358 32.4817 37.4141 32.3252 37.2607C32.1687 37.1073 32.0446 36.9251 31.9599 36.7247C31.8752 36.5242 31.8316 36.3094 31.8316 36.0924V33.7739C31.8316 33.4799 31.7721 33.1887 31.6564 32.9174C31.5408 32.6461 31.3713 32.3999 31.1579 32.1933C30.9445 31.9867 30.6913 31.8236 30.4131 31.7136C30.1349 31.6037 29.8372 31.5489 29.5373 31.5526H16.0832V12.1159C16.0868 11.8851 16.182 11.6647 16.3485 11.5014C16.5151 11.3382 16.7399 11.2449 16.9754 11.2413H34.2533C34.4899 11.2413 34.7169 11.3334 34.8842 11.4975C35.0515 11.6615 35.1455 11.884 35.1455 12.1159L35.2022 36.0924Z" fill="#666666"/>
<path d="M30.9534 24.2052H20.7424C20.588 24.2277 20.4469 24.3039 20.3449 24.4199C20.2429 24.5358 20.1868 24.6838 20.1868 24.8369C20.1868 24.99 20.2429 25.138 20.3449 25.254C20.4469 25.3699 20.588 25.4461 20.7424 25.4686H30.9534C31.1251 25.4688 31.2903 25.4038 31.4143 25.2874C31.5384 25.171 31.6117 25.0121 31.619 24.8439C31.6191 24.7588 31.6017 24.6746 31.5681 24.5962C31.5345 24.5178 31.4852 24.4468 31.4232 24.3873C31.3612 24.3278 31.2877 24.2811 31.2071 24.2498C31.1264 24.2185 31.0401 24.2034 30.9534 24.2052Z" fill="#666666"/>
<g filter="url(#filter0_d_1281_14756)">
<path d="M27.8376 17.306C27.7092 17.1845 27.5103 17.1748 27.3836 17.306L25.7652 18.9825C25.5639 18.7737 25.3627 18.5646 25.1616 18.3555C25.1231 18.3148 25.0838 18.2749 25.0453 18.2339C24.9266 18.111 24.7079 18.1017 24.5913 18.2339C24.4747 18.3661 24.4646 18.5721 24.5913 18.7042L25.4215 19.5667C25.4601 19.6075 25.4994 19.6473 25.5378 19.6883C25.5986 19.7495 25.68 19.7837 25.7648 19.7837C25.8495 19.7837 25.931 19.7495 25.9918 19.6883L27.8376 17.7763C27.9564 17.6534 27.9652 17.4273 27.8376 17.306Z" fill="#666666"/>
<path d="M27.8376 17.306C27.7092 17.1845 27.5103 17.1748 27.3836 17.306L25.7652 18.9825C25.5639 18.7737 25.3627 18.5646 25.1616 18.3555C25.1231 18.3148 25.0838 18.2749 25.0453 18.2339C24.9266 18.111 24.7079 18.1017 24.5913 18.2339C24.4747 18.3661 24.4646 18.5721 24.5913 18.7042L25.4215 19.5667C25.4601 19.6075 25.4994 19.6473 25.5378 19.6883C25.5986 19.7495 25.68 19.7837 25.7648 19.7837C25.8495 19.7837 25.931 19.7495 25.9918 19.6883L27.8376 17.7763C27.9564 17.6534 27.9652 17.4273 27.8376 17.306Z" stroke="#666666" stroke-width="0.1715"/>
</g>
<path d="M27.1154 27.5371H20.7424C20.588 27.5596 20.4469 27.6358 20.3449 27.7517C20.2429 27.8677 20.1868 28.0157 20.1868 28.1688C20.1868 28.3219 20.2429 28.4699 20.3449 28.5859C20.4469 28.7018 20.588 28.778 20.7424 28.8005H27.0871C27.2589 28.8006 27.424 28.7357 27.548 28.6193C27.6721 28.5029 27.7454 28.3439 27.7527 28.1757C27.7528 28.0087 27.6861 27.8484 27.567 27.729C27.4478 27.6096 27.2858 27.5407 27.1154 27.5371Z" fill="#666666"/>
<circle cx="26.2152" cy="18.4974" r="3.43" stroke="#666666" stroke-width="1.029"/>
</g>
<defs>
<filter id="filter0_d_1281_14756" x="20.9843" y="17.1255" width="10.4616" height="9.6039" filterUnits="userSpaceOnUse" color-interpolation-filters="sRGB">
<feFlood flood-opacity="0" result="BackgroundImageFix"/>
<feColorMatrix in="SourceAlpha" type="matrix" values="0 0 0 0 0 0 0 0 0 0 0 0 0 0 0 0 0 0 127 0" result="hardAlpha"/>
<feOffset dy="3.43"/>
<feGaussianBlur stdDeviation="1.715"/>
<feComposite in2="hardAlpha" operator="out"/>
<feColorMatrix type="matrix" values="0 0 0 0 0 0 0 0 0 0 0 0 0 0 0 0 0 0 0.25 0"/>
<feBlend mode="normal" in2="BackgroundImageFix" result="effect1_dropShadow_1281_14756"/>
<feBlend mode="normal" in="SourceGraphic" in2="effect1_dropShadow_1281_14756" result="shape"/>
</filter>
<clipPath id="clip0_1281_14756">
<rect width="26.5825" height="29.155" fill="white" transform="translate(9.92261 9.92236)"/>
</clipPath>
</defs>
</svg>
