<svg width="49" height="49" viewBox="0 0 49 49" fill="none" xmlns="http://www.w3.org/2000/svg">
<path d="M0 9.8C0 4.38761 4.38761 0 9.8 0H39.2C44.6124 0 49 4.38761 49 9.8V39.2C49 44.6124 44.6124 49 39.2 49H9.8C4.38761 49 0 44.6124 0 39.2V9.8Z" fill="#4CAF5B" fill-opacity="0.15"/>
<g opacity="0.8" clip-path="url(#clip0_666_5040)">
<path d="M31 32.5H14H11.5L10.5 35.5L12 38L32 38.5L31 36.5V32.5Z" fill="#4CAF5B" fill-opacity="0.5"/>
<path d="M15.5 32V11H35.5L36 35.5L35.5 38H34H31.5L30.5 32.5L15.5 32Z" fill="#329964"/>
<circle cx="26.5" cy="18.5" r="3.5" fill="#F8F8F8"/>
<path d="M34.2531 9.92236H16.9043C16.3083 9.926 15.7377 10.1597 15.3162 10.5729C14.8947 10.9861 14.6563 11.5455 14.6525 12.1298V31.5665H12.1883C11.8907 31.5665 11.5961 31.6239 11.3212 31.7356C11.0463 31.8472 10.7965 32.0108 10.586 32.2171C10.3756 32.4234 10.2087 32.6682 10.0948 32.9377C9.98097 33.2072 9.92236 33.4961 9.92236 33.7878V36.1063C9.92611 36.8956 10.2486 37.6512 10.8192 38.208C11.3898 38.7648 12.1621 39.0774 12.9672 39.0774H33.46C34.2675 39.0774 35.042 38.7629 35.613 38.2031C36.1841 37.6433 36.5049 36.8841 36.5049 36.0924V12.1298C36.5049 11.5444 36.2676 10.9829 35.8453 10.5689C35.423 10.1549 34.8503 9.92236 34.2531 9.92236ZM13.0097 37.689C12.5639 37.6854 12.1374 37.5102 11.8221 37.2011C11.5069 36.8921 11.3281 36.474 11.3244 36.0369V33.7739C11.3281 33.5407 11.4253 33.3182 11.5949 33.1546C11.7644 32.991 11.9929 32.8993 12.2308 32.8993H29.537C29.6542 32.8993 29.7702 32.9219 29.8785 32.9659C29.9867 33.0098 30.0851 33.0742 30.1679 33.1555C30.2508 33.2367 30.3165 33.3331 30.3613 33.4392C30.4062 33.5453 30.4293 33.6591 30.4293 33.7739V36.0924C30.428 36.6147 30.5698 37.1278 30.84 37.578L30.9391 37.7446L13.0097 37.689ZM35.2019 36.0924C35.2019 36.3094 35.1583 36.5242 35.0737 36.7247C34.989 36.9251 34.8648 37.1073 34.7083 37.2607C34.5518 37.4141 34.366 37.5358 34.1616 37.6188C33.9571 37.7018 33.7379 37.7446 33.5166 37.7446C33.2953 37.7446 33.0762 37.7018 32.8717 37.6188C32.6672 37.5358 32.4814 37.4141 32.3249 37.2607C32.1684 37.1073 32.0443 36.9251 31.9596 36.7247C31.8749 36.5242 31.8313 36.3094 31.8313 36.0924V33.7739C31.8314 33.4799 31.7718 33.1887 31.6562 32.9174C31.5405 32.6461 31.3711 32.3999 31.1577 32.1933C30.9442 31.9867 30.6911 31.8236 30.4129 31.7136C30.1347 31.6037 29.837 31.5489 29.537 31.5526H16.0829V12.1159C16.0866 11.8851 16.1818 11.6647 16.3483 11.5014C16.5148 11.3382 16.7397 11.2449 16.9752 11.2413H34.2531C34.4897 11.2413 34.7166 11.3334 34.884 11.4975C35.0513 11.6615 35.1453 11.884 35.1453 12.1159L35.2019 36.0924Z" fill="#666666"/>
<path d="M30.9532 24.2052H20.7422C20.5877 24.2277 20.4466 24.3039 20.3446 24.4199C20.2426 24.5358 20.1865 24.6838 20.1865 24.8369C20.1865 24.99 20.2426 25.138 20.3446 25.254C20.4466 25.3699 20.5877 25.4461 20.7422 25.4686H30.9532C31.1249 25.4688 31.29 25.4038 31.4141 25.2874C31.5381 25.171 31.6115 25.0121 31.6188 24.8439C31.6188 24.7588 31.6015 24.6746 31.5679 24.5962C31.5343 24.5178 31.485 24.4468 31.423 24.3873C31.361 24.3278 31.2875 24.2811 31.2068 24.2498C31.1261 24.2185 31.0399 24.2034 30.9532 24.2052Z" fill="#666666"/>
<g filter="url(#filter0_d_666_5040)">
<path d="M27.8376 17.306C27.7092 17.1845 27.5103 17.1748 27.3836 17.306L25.7652 18.9825C25.5639 18.7737 25.3627 18.5646 25.1616 18.3555C25.1231 18.3148 25.0838 18.2749 25.0453 18.2339C24.9266 18.111 24.7079 18.1017 24.5913 18.2339C24.4747 18.3661 24.4646 18.5721 24.5913 18.7042L25.4215 19.5667C25.4601 19.6075 25.4994 19.6473 25.5378 19.6883C25.5986 19.7495 25.68 19.7837 25.7648 19.7837C25.8495 19.7837 25.931 19.7495 25.9918 19.6883L27.8376 17.7763C27.9564 17.6534 27.9652 17.4273 27.8376 17.306Z" fill="#666666"/>
<path d="M27.8376 17.306C27.7092 17.1845 27.5103 17.1748 27.3836 17.306L25.7652 18.9825C25.5639 18.7737 25.3627 18.5646 25.1616 18.3555C25.1231 18.3148 25.0838 18.2749 25.0453 18.2339C24.9266 18.111 24.7079 18.1017 24.5913 18.2339C24.4747 18.3661 24.4646 18.5721 24.5913 18.7042L25.4215 19.5667C25.4601 19.6075 25.4994 19.6473 25.5378 19.6883C25.5986 19.7495 25.68 19.7837 25.7648 19.7837C25.8495 19.7837 25.931 19.7495 25.9918 19.6883L27.8376 17.7763C27.9564 17.6534 27.9652 17.4273 27.8376 17.306Z" stroke="#666666" stroke-width="0.1715"/>
</g>
<path d="M27.1152 27.5371H20.7422C20.5877 27.5596 20.4466 27.6358 20.3446 27.7517C20.2426 27.8677 20.1865 28.0157 20.1865 28.1688C20.1865 28.3219 20.2426 28.4699 20.3446 28.5859C20.4466 28.7018 20.5877 28.778 20.7422 28.8005H27.0869C27.2586 28.8006 27.4238 28.7357 27.5478 28.6193C27.6718 28.5029 27.7452 28.3439 27.7525 28.1757C27.7525 28.0087 27.6858 27.8484 27.5667 27.729C27.4476 27.6096 27.2855 27.5407 27.1152 27.5371Z" fill="#666666"/>
<circle cx="26.2147" cy="18.4974" r="3.43" stroke="#666666" stroke-width="1.029"/>
</g>
<defs>
<filter id="filter0_d_666_5040" x="20.9841" y="17.1254" width="10.4616" height="9.60402" filterUnits="userSpaceOnUse" color-interpolation-filters="sRGB">
<feFlood flood-opacity="0" result="BackgroundImageFix"/>
<feColorMatrix in="SourceAlpha" type="matrix" values="0 0 0 0 0 0 0 0 0 0 0 0 0 0 0 0 0 0 127 0" result="hardAlpha"/>
<feOffset dy="3.43"/>
<feGaussianBlur stdDeviation="1.715"/>
<feComposite in2="hardAlpha" operator="out"/>
<feColorMatrix type="matrix" values="0 0 0 0 0 0 0 0 0 0 0 0 0 0 0 0 0 0 0.25 0"/>
<feBlend mode="normal" in2="BackgroundImageFix" result="effect1_dropShadow_666_5040"/>
<feBlend mode="normal" in="SourceGraphic" in2="effect1_dropShadow_666_5040" result="shape"/>
</filter>
<clipPath id="clip0_666_5040">
<rect width="26.5825" height="29.155" fill="white" transform="translate(9.92236 9.92236)"/>
</clipPath>
</defs>
</svg>
