<svg width="49" height="49" viewBox="0 0 49 49" fill="none" xmlns="http://www.w3.org/2000/svg">
<path d="M0 9.8C0 4.38761 4.38761 0 9.8 0H39.2C44.6124 0 49 4.38761 49 9.8V39.2C49 44.6124 44.6124 49 39.2 49H9.8C4.38761 49 0 44.6124 0 39.2V9.8Z" fill="#EDEFED"/>
<g opacity="0.8">
<g clip-path="url(#clip0_666_5039)">
<path d="M13.5 13.5243C13.5 10.3021 19 9.9999 24 11.007C25.6 10.2014 32.5 9.9999 36 11.5104C36 19.0625 36.5 35.0729 36.5 36.684C36.5 38.6979 36 38.1945 26 38.6979C18 39.1007 14.3333 37.5232 13.5 36.684V13.5243Z" fill="#C5C5C5"/>
<path d="M22.9998 18.5C22.1998 16.9 23.4998 15.1667 24.4998 14.5C28.4998 14.5 27.9998 18 26.9998 19.5C31.3998 24.3 30.8331 25.8333 29.9998 26L19.9998 25.5C18.9998 22.5 23.9998 19.5 23.4998 19.5C23.0998 19.5 22.9998 19 22.9998 18.5Z" fill="#F8F8F8"/>
<path d="M37.0136 13.1926C37.0136 12.7722 36.9287 12.356 36.7636 11.9677C36.5984 11.5795 36.3565 11.227 36.0515 10.9304C35.7466 10.6337 35.3847 10.3989 34.9865 10.2392C34.5884 10.0795 34.162 9.99827 33.7316 10H16.2683C15.4015 10 14.5702 10.3364 13.9573 10.9351C13.3443 11.5338 13 12.3459 13 13.1926V35.8075C12.9927 36.2312 13.0719 36.6521 13.2329 37.0456C13.3939 37.4392 13.6335 37.7974 13.9377 38.0996C14.2419 38.4017 14.6047 38.6417 15.0048 38.8054C15.405 38.9692 15.8345 39.0535 16.2683 39.0535H33.7316C34.1666 39.0553 34.5976 38.9723 34.9993 38.8093C35.4011 38.6463 35.7654 38.4067 36.0711 38.1044C36.3768 37.802 36.6176 37.4432 36.7795 37.0487C36.9413 36.6543 37.0209 36.2323 37.0136 35.8075V13.1926ZM35.7829 35.8075C35.7829 36.3389 35.5668 36.8486 35.1821 37.2243C34.7974 37.6001 34.2756 37.8112 33.7316 37.8112H16.2683C15.7243 37.8112 15.2026 37.6001 14.8179 37.2243C14.4332 36.8486 14.2171 36.3389 14.2171 35.8075V13.1926C14.2171 12.6612 14.4332 12.1515 14.8179 11.7757C15.2026 11.4 15.7243 11.1889 16.2683 11.1889H33.7316C34.2756 11.1889 34.7974 11.4 35.1821 11.7757C35.5668 12.1515 35.7829 12.6612 35.7829 13.1926V35.8075Z" fill="#666666"/>
<path d="M32.5966 29.4758H17.4035C17.2439 29.4758 17.0908 29.5378 16.978 29.648C16.8652 29.7582 16.8018 29.9077 16.8018 30.0636C16.8018 30.2195 16.8652 30.369 16.978 30.4792C17.0908 30.5894 17.2439 30.6513 17.4035 30.6513H32.5966C32.7562 30.6513 32.9093 30.5894 33.0221 30.4792C33.1349 30.369 33.1983 30.2195 33.1983 30.0636C33.1983 29.9077 33.1349 29.7582 33.0221 29.648C32.9093 29.5378 32.7562 29.4758 32.5966 29.4758Z" fill="#666666"/>
<path d="M32.5965 33.176H17.4033C17.2576 33.1974 17.1246 33.2692 17.0284 33.3783C16.9323 33.4874 16.8794 33.6265 16.8794 33.7705C16.8794 33.9144 16.9323 34.0536 17.0284 34.1626C17.1246 34.2717 17.2576 34.3435 17.4033 34.3649H32.5965C32.7422 34.3435 32.8752 34.2717 32.9713 34.1626C33.0675 34.0536 33.1204 33.9144 33.1204 33.7705C33.1204 33.6265 33.0675 33.4874 32.9713 33.3783C32.8752 33.2692 32.7422 33.1974 32.5965 33.176Z" fill="#666666"/>
<path d="M28.1111 20.0185L27.4411 19.5911L27.9607 18.9366C28.2779 18.5386 28.4932 18.0723 28.5887 17.5766C28.6841 17.0809 28.6568 16.5701 28.5093 16.0868C28.3617 15.6034 28.098 15.1615 27.7402 14.7979C27.3824 14.4342 26.9408 14.1593 26.4522 13.9961C25.9636 13.8329 25.4422 13.7861 24.9313 13.8596C24.4204 13.9331 23.9349 14.1247 23.5153 14.4186C23.0956 14.7124 22.7538 15.0999 22.5185 15.5489C22.2832 15.9979 22.1611 16.4953 22.1624 16.9997C22.1589 17.7023 22.4001 18.3853 22.8462 18.9366L23.3658 19.5911L22.6274 20.0185C21.7619 20.4956 21.0414 21.1884 20.5393 22.0261C20.0372 22.8638 19.7715 23.8166 19.7693 24.7873V25.9495C19.7674 26.0078 19.7777 26.066 19.7997 26.1203C19.8218 26.1746 19.8549 26.224 19.8972 26.2653C19.9395 26.3066 19.99 26.339 20.0456 26.3605C20.1012 26.382 20.1608 26.3921 20.2205 26.3903H30.5864C30.645 26.3903 30.703 26.3788 30.757 26.3565C30.811 26.3342 30.8599 26.3015 30.9007 26.2604C30.9415 26.2193 30.9735 26.1705 30.9947 26.1171C31.0158 26.0637 31.0258 26.0067 31.024 25.9495V24.7873C31.0163 23.8113 30.7423 22.8549 30.2303 22.0167C29.7183 21.1785 28.9868 20.4887 28.1111 20.0185ZM22.9966 16.9997C22.9993 16.5485 23.1388 16.1082 23.3973 15.7343C23.6559 15.3604 24.0221 15.0697 24.4496 14.8989C24.8771 14.728 25.3469 14.6847 25.7996 14.7743C26.2523 14.864 26.6677 15.0826 26.9934 15.4026C27.3191 15.7225 27.5404 16.1296 27.6296 16.5723C27.7187 17.015 27.6716 17.4736 27.4942 17.8902C27.3168 18.3068 27.0171 18.6628 26.6328 18.9132C26.2486 19.1636 25.797 19.2972 25.3351 19.2972C25.0268 19.2972 24.7216 19.2377 24.437 19.1221C24.1524 19.0064 23.894 18.837 23.6767 18.6235C23.4594 18.41 23.2874 18.1566 23.1707 17.8779C23.054 17.5992 22.9948 17.3007 22.9966 16.9997ZM30.0667 25.522H20.6035V24.7873C20.6035 23.5615 21.102 22.3859 21.9893 21.5192C22.8767 20.6524 24.0802 20.1655 25.3351 20.1655C26.59 20.1655 27.7935 20.6524 28.6808 21.5192C29.5682 22.3859 30.0667 23.5615 30.0667 24.7873V25.522Z" fill="#666666" stroke="#666666" stroke-width="0.16"/>
</g>
</g>
<defs>
<clipPath id="clip0_666_5039">
<rect width="24" height="29" fill="white" transform="translate(13 10)"/>
</clipPath>
</defs>
</svg>
