<svg width="49" height="49" viewBox="0 0 49 49" fill="none" xmlns="http://www.w3.org/2000/svg">
<rect width="49" height="49" rx="9.8" fill="#4CAF5B" fill-opacity="0.15"/>
<g opacity="0.8">
<g clip-path="url(#clip0_1480_10123)">
<path d="M22.0403 17.2209C18.8403 16.0209 18.7069 13.3875 19.0403 12.2208C22.2069 12.0542 29.8403 11.8209 31.0403 12.2209C32.2403 12.6209 30.2069 16.3875 28.5403 17.7208C29.8736 18.2208 32.1996 20.0928 35.0403 26.7208C38.0403 33.7207 35.0403 36.7209 32.0403 37.7209C24.5403 38.7209 13.2403 39.7209 14.0403 31.7209C14.8403 23.7209 19.7069 18.3876 22.0403 17.2209Z" fill="#006C36" fill-opacity="0.75"/>
<path d="M36.8198 30.8763C35.6927 26.1275 33.5738 19.9003 29.8317 16.9136L29.5312 16.6896L31.59 14.6736C31.8974 14.3758 32.1087 13.9938 32.197 13.5763C32.2853 13.1588 32.2467 12.7247 32.086 12.3291C31.9364 11.9248 31.6665 11.5753 31.3121 11.3272C30.9577 11.0791 30.5357 10.9442 30.1022 10.9403H19.8981C19.4691 10.9365 19.0489 11.0613 18.6924 11.2984C18.3358 11.5355 18.0595 11.8738 17.8994 12.2693C17.7254 12.6725 17.6796 13.1189 17.7683 13.5487C17.8569 13.9784 18.0757 14.371 18.3953 14.6736L20.4992 16.7344L20.1987 16.9584C16.4116 19.9451 14.2926 26.1573 13.1805 30.8763C12.95 31.8413 12.9438 32.8459 13.1626 33.8137C13.3813 34.7814 13.8192 35.6869 14.4429 36.4613C15.065 37.2532 15.8609 37.8935 16.7698 38.3335C17.6787 38.7734 18.6767 39.0014 19.6877 39H30.3427C31.3456 38.9993 32.3353 38.7734 33.2381 38.3392C34.1408 37.9051 34.9331 37.2738 35.5559 36.4927C36.1787 35.7116 36.6159 34.8008 36.8347 33.8282C37.0536 32.8557 37.0485 31.8466 36.8198 30.8763ZM19.312 13.7328C19.2186 13.6428 19.147 13.5328 19.1027 13.4112C19.0585 13.2896 19.0427 13.1595 19.0565 13.0309V12.8219C19.1189 12.6596 19.2305 12.5207 19.3759 12.4243C19.5214 12.328 19.6934 12.279 19.8681 12.2843H30.0722C30.2549 12.2807 30.4336 12.3374 30.5804 12.4455C30.7273 12.5535 30.8339 12.7069 30.8837 12.8816C30.9453 13.0356 30.9566 13.2049 30.9162 13.3657C30.8757 13.5264 30.7855 13.6705 30.6583 13.7776L28.0584 16.2864C27.0991 16.6539 26.0809 16.8461 25.0528 16.8539C24.0245 16.8484 23.0058 16.6561 22.0471 16.2864H21.957L19.312 13.7328ZM34.5506 35.6699C34.0444 36.3044 33.4001 36.8168 32.6662 37.1686C31.9322 37.5203 31.1275 37.7023 30.3126 37.7008H19.6877C18.8717 37.7052 18.0653 37.5262 17.3287 37.1771C16.5922 36.828 15.9447 36.3178 15.4347 35.6848C14.9359 35.0629 14.586 34.3363 14.4115 33.5602C14.2371 32.784 14.2427 31.9785 14.4279 31.2048C15.555 26.4411 17.6739 20.2139 21.461 17.6752L21.6113 17.5856H21.7616C22.8014 17.9427 23.8926 18.1293 24.9927 18.1381C26.0928 18.1303 27.1842 17.9437 28.2237 17.5856H28.389L28.5243 17.6752C32.3114 20.2139 34.4454 26.4411 35.5575 31.2197C35.739 31.9889 35.7427 32.7889 35.5683 33.5597C35.3939 34.3305 35.046 35.052 34.5506 35.6699Z" fill="#666666"/>
<path d="M30.0381 25.6616H29.9394L29.5641 24.5814L29.9206 24.3085C29.9206 24.3085 29.9206 24.3085 29.9206 24.3085C29.8282 24.1878 29.7118 24.0885 29.5805 24.0147C29.4547 23.9441 29.3167 23.8976 29.1745 23.8765C28.8913 23.8192 28.5936 23.8554 28.3333 23.9821C28.0669 24.1118 27.8508 24.3316 27.7385 24.6099L27.7319 24.6263L27.7265 24.6432L27.4125 25.6408H26.6869L26.5844 25.341L26.5774 25.3207L26.5685 25.301C26.4581 25.0571 26.2642 24.864 26.0284 24.7452C25.8059 24.633 25.5535 24.5902 25.307 24.6194C25.0714 24.6178 24.8374 24.6786 24.6336 24.7983C24.4172 24.9254 24.2418 25.1151 24.1397 25.3472L24.1321 25.3647L24.1259 25.3827L24.0234 25.6825H23.3034L23.0088 24.6918L23.0015 24.6671L22.9914 24.6434C22.873 24.366 22.6528 24.1481 22.3835 24.0201C22.1202 23.8949 21.8205 23.86 21.5354 23.9182C21.3933 23.9393 21.2555 23.9858 21.1298 24.0564C20.9985 24.1302 20.882 24.2295 20.7896 24.3502L20.7896 24.3502C20.6972 24.471 20.631 24.6106 20.5979 24.7606C20.5648 24.9108 20.5661 25.0659 20.6016 25.2155L20.6043 25.2268L20.6075 25.2379L20.7375 25.6825H20.4885H20.4766L20.4647 25.6831C20.1933 25.6975 19.9299 25.7997 19.724 25.9804C19.5171 26.1618 19.3805 26.4126 19.3521 26.691L19.3476 26.7358L19.352 26.7806C19.3824 27.0901 19.5439 27.3651 19.7851 27.5527C20.0211 27.7363 20.3183 27.8256 20.615 27.8116H21.3653L21.456 28.1305L21.456 28.1305L21.4565 28.1323L21.8238 29.4031L21.826 29.4107L21.8285 29.4183L22.3335 30.9599L22.3365 30.9692L22.34 30.9783C22.4302 31.218 22.599 31.417 22.8129 31.5523C23.0216 31.6843 23.2659 31.7514 23.5121 31.7491C23.7577 31.7586 24.0036 31.6974 24.2147 31.5696C24.431 31.4387 24.6032 31.2422 24.6958 31.0032L24.6959 31.0032L24.6986 30.9958L25.3259 29.2881L25.9184 30.9501L25.9239 30.9655L25.9305 30.9804C26.0303 31.2069 26.2 31.3931 26.4096 31.5199C26.6167 31.6452 26.8563 31.709 27.0978 31.7073C27.3468 31.7113 27.5944 31.6442 27.8056 31.5106C28.0194 31.3753 28.1883 31.1764 28.2785 30.9366L28.2822 30.9267L28.2855 30.9165L28.7906 29.3541L28.7907 29.3541L28.7941 29.3426L29.1614 28.0926L29.1614 28.0926L29.1625 28.0888L29.2532 27.7699H30.0089C30.302 27.7773 30.5934 27.6841 30.8237 27.4996C31.0542 27.3151 31.2091 27.0496 31.2422 26.7515C31.2915 26.4017 31.1029 26.1136 30.8861 25.9415C30.6615 25.7631 30.3595 25.6616 30.0381 25.6616Z" fill="#F8F8F8" stroke="#666666" stroke-width="0.9"/>
</g>
</g>
<defs>
<clipPath id="clip0_1480_10123">
<rect width="24" height="28" fill="white" transform="matrix(-1 0 0 1 37 11)"/>
</clipPath>
</defs>
</svg>
