<svg width="24" height="25" viewBox="0 0 24 25" fill="none" xmlns="http://www.w3.org/2000/svg">
<path d="M17.1855 7.3124C17.4365 7.56426 17.6716 7.83154 17.8894 8.11268C17.8459 8.05628 17.8021 8.00026 17.7583 7.94386C18.1832 8.49969 18.5366 9.10668 18.8103 9.7506C18.7829 9.68391 18.7539 9.61722 18.7269 9.55053C19.0056 10.2168 19.1954 10.9169 19.2914 11.6328C19.2807 11.5596 19.2704 11.4846 19.262 11.4118C19.3558 12.1328 19.3558 12.8629 19.262 13.584C19.2727 13.5112 19.283 13.4361 19.2914 13.3633C19.1954 14.0791 19.0056 14.7791 18.7269 15.4452C18.7539 15.3785 18.7829 15.3118 18.8103 15.2451C18.5381 15.8898 18.1845 16.497 17.7583 17.0519C17.802 16.9957 17.8457 16.9394 17.8894 16.883C17.4538 17.4463 16.9485 17.952 16.3857 18.388L16.5544 18.2565C15.999 18.6818 15.3924 19.0355 14.7487 19.3091C14.8153 19.282 14.882 19.2527 14.9486 19.2256C14.2828 19.5047 13.583 19.6945 12.8675 19.7904C12.9406 19.7801 13.0157 19.7698 13.0884 19.7614C12.3678 19.8552 11.638 19.8552 10.9174 19.7614C10.9902 19.7717 11.0652 19.782 11.1379 19.7904C10.4226 19.6945 9.72294 19.5046 9.05722 19.2256C9.12388 19.2527 9.19053 19.282 9.25718 19.3091C8.61296 19.036 8.00636 18.6815 7.45221 18.2542L7.62094 18.3857C7.05809 17.9502 6.5527 17.445 6.11686 16.8823L6.24827 17.0511C5.82302 16.4953 5.46957 15.888 5.19629 15.2436C5.22333 15.3103 5.25266 15.377 5.2797 15.4437C5.0008 14.7776 4.81101 14.0776 4.71524 13.3618C4.72553 13.4346 4.73581 13.5097 4.74419 13.5824C4.65043 12.8614 4.65043 12.1313 4.74419 11.4102C4.7339 11.483 4.72362 11.5581 4.71524 11.6313C4.81101 10.9154 5.0008 10.2152 5.2797 9.549C5.25266 9.61569 5.22333 9.68239 5.19629 9.74908C5.46914 9.10488 5.82318 8.49822 6.24979 7.94386L6.11839 8.11268C6.55366 7.54963 7.05854 7.04409 7.62094 6.60815L7.45221 6.73924C8.00792 6.31403 8.61484 5.96041 9.25871 5.68668C9.19205 5.71411 9.1254 5.74308 9.05875 5.77013C9.72452 5.49126 10.4241 5.30137 11.1395 5.20536C11.0667 5.21603 10.9917 5.22632 10.9189 5.2347C11.6396 5.14089 12.3693 5.14089 13.0899 5.2347C13.0172 5.22403 12.9422 5.21374 12.869 5.20536C13.5845 5.30137 14.2842 5.49126 14.9501 5.77013C14.8835 5.74308 14.8168 5.71411 14.7502 5.68668C15.3944 5.95923 16.0012 6.31295 16.5559 6.73924L16.3872 6.60815C16.6682 6.82604 16.9353 7.06124 17.187 7.3124C17.4951 7.6207 18.0596 7.64394 18.3677 7.3124C18.6759 6.98085 18.6968 6.46219 18.3677 6.13293C17.0728 4.84295 15.3748 3.93634 13.5668 3.63604C12.6881 3.49008 11.8049 3.45274 10.9197 3.56744C10.4355 3.62474 9.95648 3.72018 9.48723 3.85288C9.02878 3.98956 8.58116 4.16025 8.14807 4.36354C6.47527 5.13867 5.04851 6.48696 4.14888 8.09401C3.27286 9.66104 2.86342 11.5097 3.04053 13.3001C3.2108 15.1823 3.96692 16.9637 5.20238 18.3933C6.41441 19.7991 8.03313 20.7932 9.83459 21.2381C11.5699 21.6611 13.4464 21.5781 15.1211 20.9424C15.5719 20.7744 16.0093 20.5724 16.4295 20.338C16.8567 20.0913 17.2642 19.8119 17.6483 19.5023C18.3799 18.9154 19.0146 18.217 19.529 17.4326C20.5227 15.9364 21.0392 14.1083 20.9977 12.3119C20.9558 10.5093 20.3769 8.70223 19.3062 7.24533C19.0204 6.85155 18.7057 6.47959 18.3647 6.13255C18.0566 5.82425 17.4887 5.801 17.184 6.13255C16.8793 6.46409 16.8549 6.98276 17.184 7.31392L17.1855 7.3124Z" fill="#E5E5E5"/>
<path d="M15.5663 9.75735L10.7231 14.9607H11.9143L9.73591 12.6133C9.63507 12.5025 9.53193 12.3941 9.43071 12.2825C9.11935 11.948 8.54551 11.9228 8.23954 12.2825C7.93357 12.6422 7.90701 13.2029 8.23954 13.5622L10.4179 15.9096C10.5191 16.0204 10.6223 16.1287 10.7231 16.2404C10.8826 16.4069 11.0963 16.5 11.3187 16.5C11.5411 16.5 11.7547 16.4069 11.9143 16.2404L16.7575 11.0371C17.0692 10.7026 17.0923 10.0861 16.7575 9.75735C16.4226 9.42863 15.8988 9.4001 15.5663 9.75735Z" fill="#E5E5E5"/>
</svg>
