<svg width="24" height="24" viewBox="0 0 24 24" fill="none" xmlns="http://www.w3.org/2000/svg">
<path d="M16.2477 8.33088L10.3282 15.0208H11.7841L9.12167 12.0028C8.99842 11.8603 8.87236 11.721 8.74864 11.5775C8.36809 11.1474 7.66674 11.115 7.29277 11.5775C6.91881 12.04 6.88635 12.7609 7.29277 13.2229L9.95521 16.2409C10.0789 16.3834 10.205 16.5227 10.3282 16.6662C10.5232 16.8803 10.7843 17 11.0562 17C11.328 17 11.5891 16.8803 11.7841 16.6662L17.7036 9.97626C18.0846 9.54617 18.1128 8.75352 17.7036 8.33088C17.2943 7.90824 16.6541 7.87156 16.2477 8.33088Z" fill="#E5E5E5"/>
</svg>
