<svg width="52" height="38" viewBox="0 0 52 38" fill="none" xmlns="http://www.w3.org/2000/svg">
<g clip-path="url(#clip0_1564_2562)">
<path d="M8.06891 7.10742C7.83113 7.10742 7.60309 7.20245 7.43496 7.3716C7.26682 7.54075 7.17236 7.77017 7.17236 8.00939V29.8823C7.17236 30.1215 7.26682 30.3509 7.43496 30.5201C7.60309 30.6892 7.83113 30.7842 8.06891 30.7842C8.3067 30.7842 8.53474 30.6892 8.70287 30.5201C8.87101 30.3509 8.96547 30.1215 8.96547 29.8823V8.01454C8.96628 7.89562 8.94368 7.77772 8.89897 7.66763C8.85427 7.55754 8.78834 7.45745 8.705 7.37312C8.62165 7.28879 8.52253 7.22189 8.41336 7.17629C8.30419 7.13069 8.18712 7.10728 8.06891 7.10742Z" fill="#333333"/>
<path d="M10.4984 7.10742C10.3806 7.10796 10.264 7.13186 10.1554 7.17775C10.0468 7.22365 9.94819 7.29063 9.8653 7.37488C9.78242 7.45913 9.71685 7.55898 9.67235 7.66874C9.62785 7.7785 9.6053 7.89601 9.60597 8.01454V29.8823C9.60597 30.1215 9.70043 30.3509 9.86857 30.5201C10.0367 30.6892 10.2647 30.7842 10.5025 30.7842C10.7403 30.7842 10.9683 30.6892 11.1365 30.5201C11.3046 30.3509 11.3991 30.1215 11.3991 29.8823V8.01454C11.3992 7.89605 11.3761 7.77871 11.3311 7.66921C11.2861 7.55972 11.2201 7.46023 11.1368 7.37645C11.0535 7.29267 10.9546 7.22624 10.8458 7.18096C10.7369 7.13568 10.6203 7.11244 10.5025 7.11258L10.4984 7.10742Z" fill="#333333"/>
<path d="M12.9288 7.10742C12.691 7.10742 12.463 7.20245 12.2948 7.3716C12.1267 7.54075 12.0322 7.77017 12.0322 8.00939V29.8823C12.0322 30.1215 12.1267 30.3509 12.2948 30.5201C12.463 30.6892 12.691 30.7842 12.9288 30.7842C13.1666 30.7842 13.3946 30.6892 13.5627 30.5201C13.7309 30.3509 13.8253 30.1215 13.8253 29.8823V8.01454C13.8255 7.89605 13.8024 7.77871 13.7574 7.66921C13.7124 7.55972 13.6463 7.46023 13.563 7.37645C13.4798 7.29267 13.3809 7.22624 13.272 7.18096C13.1632 7.13568 13.0466 7.11244 12.9288 7.11258V7.10742Z" fill="#333333"/>
<path d="M33.1724 7.10742C32.9346 7.10742 32.7066 7.20245 32.5385 7.3716C32.3703 7.54075 32.2759 7.77017 32.2759 8.00939V29.8823C32.2759 30.1215 32.3703 30.3509 32.5385 30.5201C32.7066 30.6892 32.9346 30.7842 33.1724 30.7842C33.4102 30.7842 33.6382 30.6892 33.8064 30.5201C33.9745 30.3509 34.069 30.1215 34.069 29.8823V8.01454C34.0698 7.89562 34.0472 7.77772 34.0025 7.66763C33.9578 7.55754 33.8919 7.45745 33.8085 7.37312C33.7252 7.28879 33.626 7.22189 33.5169 7.17629C33.4077 7.13069 33.2906 7.10728 33.1724 7.10742Z" fill="#333333"/>
<path d="M35.6017 7.10742C35.4839 7.10796 35.3673 7.13186 35.2587 7.17775C35.15 7.22365 35.0515 7.29063 34.9686 7.37488C34.8857 7.45913 34.8201 7.55898 34.7756 7.66874C34.7311 7.7785 34.7086 7.89601 34.7092 8.01454V29.8823C34.7092 30.1215 34.8037 30.3509 34.9718 30.5201C35.14 30.6892 35.368 30.7842 35.6058 30.7842C35.8436 30.7842 36.0716 30.6892 36.2398 30.5201C36.4079 30.3509 36.5023 30.1215 36.5023 29.8823V8.01454C36.5025 7.89605 36.4794 7.77871 36.4344 7.66921C36.3894 7.55972 36.3233 7.46023 36.2401 7.37645C36.1568 7.29267 36.0579 7.22624 35.949 7.18096C35.8402 7.13568 35.7236 7.11244 35.6058 7.11258L35.6017 7.10742Z" fill="#333333"/>
<path d="M38.0323 7.10742C37.7945 7.10742 37.5665 7.20245 37.3983 7.3716C37.2302 7.54075 37.1357 7.77017 37.1357 8.00939V29.8823C37.1357 30.1215 37.2302 30.3509 37.3983 30.5201C37.5665 30.6892 37.7945 30.7842 38.0323 30.7842C38.2701 30.7842 38.4981 30.6892 38.6663 30.5201C38.8344 30.3509 38.9289 30.1215 38.9289 29.8823V8.01454C38.929 7.89605 38.9059 7.77871 38.8609 7.66921C38.8159 7.55972 38.7498 7.46023 38.6666 7.37645C38.5833 7.29267 38.4844 7.22624 38.3756 7.18096C38.2667 7.13568 38.1501 7.11244 38.0323 7.11258V7.10742Z" fill="#333333"/>
<path d="M16.2547 7.10742C16.0169 7.10742 15.7889 7.20245 15.6207 7.3716C15.4526 7.54075 15.3582 7.77017 15.3582 8.00939V29.8823C15.3582 30.1215 15.4526 30.3509 15.6207 30.5201C15.7889 30.6892 16.0169 30.7842 16.2547 30.7842C16.4925 30.7842 16.7205 30.6892 16.8887 30.5201C17.0568 30.3509 17.1513 30.1215 17.1513 29.8823V8.01454C17.1514 7.89605 17.1283 7.77871 17.0833 7.66921C17.0383 7.55972 16.9722 7.46023 16.889 7.37645C16.8057 7.29267 16.7068 7.22624 16.598 7.18096C16.4891 7.13568 16.3725 7.11244 16.2547 7.11258V7.10742Z" fill="#333333"/>
<path d="M18.6842 7.10742C18.4464 7.10742 18.2183 7.20245 18.0502 7.3716C17.8821 7.54075 17.7876 7.77017 17.7876 8.00939V29.8823C17.7876 30.1215 17.8821 30.3509 18.0502 30.5201C18.2183 30.6892 18.4464 30.7842 18.6842 30.7842C18.9219 30.7842 19.15 30.6892 19.3181 30.5201C19.4862 30.3509 19.5807 30.1215 19.5807 29.8823V8.01454C19.5808 7.89605 19.5577 7.77871 19.5127 7.66921C19.4677 7.55972 19.4017 7.46023 19.3184 7.37645C19.2351 7.29267 19.1362 7.22624 19.0274 7.18096C18.9186 7.13568 18.8019 7.11244 18.6842 7.11258V7.10742Z" fill="#333333"/>
<path d="M21.1771 7.10742C20.9393 7.10742 20.7113 7.20245 20.5431 7.3716C20.375 7.54075 20.2805 7.77017 20.2805 8.00939V29.8823C20.2805 30.1215 20.375 30.3509 20.5431 30.5201C20.7113 30.6892 20.9393 30.7842 21.1771 30.7842C21.4149 30.7842 21.6429 30.6892 21.811 30.5201C21.9792 30.3509 22.0736 30.1215 22.0736 29.8823V8.01454C22.0738 7.89605 22.0507 7.77871 22.0057 7.66921C21.9606 7.55972 21.8946 7.46023 21.8113 7.37645C21.7281 7.29267 21.6292 7.22624 21.5203 7.18096C21.4115 7.13568 21.2948 7.11244 21.1771 7.11258V7.10742Z" fill="#333333"/>
<path d="M23.6065 7.10742C23.3687 7.10742 23.1407 7.20245 22.9726 7.3716C22.8044 7.54075 22.71 7.77017 22.71 8.00939V29.8823C22.71 30.1215 22.8044 30.3509 22.9726 30.5201C23.1407 30.6892 23.3687 30.7842 23.6065 30.7842C23.8443 30.7842 24.0723 30.6892 24.2405 30.5201C24.4086 30.3509 24.5031 30.1215 24.5031 29.8823V8.01454C24.5032 7.89605 24.4801 7.77871 24.4351 7.66921C24.3901 7.55972 24.3241 7.46023 24.2408 7.37645C24.1575 7.29267 24.0586 7.22624 23.9498 7.18096C23.8409 7.13568 23.7243 7.11244 23.6065 7.11258V7.10742Z" fill="#333333"/>
<path d="M27.1568 7.10742C26.919 7.10742 26.691 7.20245 26.5228 7.3716C26.3547 7.54075 26.2603 7.77017 26.2603 8.00939V29.8823C26.2603 30.1215 26.3547 30.3509 26.5228 30.5201C26.691 30.6892 26.919 30.7842 27.1568 30.7842C27.3946 30.7842 27.6226 30.6892 27.7908 30.5201C27.9589 30.3509 28.0534 30.1215 28.0534 29.8823V8.01454C28.0535 7.89605 28.0304 7.77871 27.9854 7.66921C27.9404 7.55972 27.8743 7.46023 27.7911 7.37645C27.7078 7.29267 27.6089 7.22624 27.5001 7.18096C27.3912 7.13568 27.2746 7.11244 27.1568 7.11258V7.10742Z" fill="#333333"/>
<path d="M29.5862 7.10742C29.3485 7.10742 29.1204 7.20245 28.9523 7.3716C28.7842 7.54075 28.6897 7.77017 28.6897 8.00939V29.8823C28.6897 30.1215 28.7842 30.3509 28.9523 30.5201C29.1204 30.6892 29.3485 30.7842 29.5862 30.7842C29.824 30.7842 30.0521 30.6892 30.2202 30.5201C30.3883 30.3509 30.4828 30.1215 30.4828 29.8823V8.01454C30.4836 7.89562 30.461 7.77772 30.4163 7.66763C30.3716 7.55754 30.3057 7.45745 30.2223 7.37312C30.139 7.28879 30.0399 7.22189 29.9307 7.17629C29.8215 7.13069 29.7045 7.10728 29.5862 7.10742Z" fill="#333333"/>
<path d="M41.5015 7.10742C41.2638 7.10742 41.0357 7.20245 40.8676 7.3716C40.6994 7.54075 40.605 7.77017 40.605 8.00939V29.8823C40.605 30.1215 40.6994 30.3509 40.8676 30.5201C41.0357 30.6892 41.2638 30.7842 41.5015 30.7842C41.7393 30.7842 41.9674 30.6892 42.1355 30.5201C42.3036 30.3509 42.3981 30.1215 42.3981 29.8823V8.01454C42.3982 7.89605 42.3751 7.77871 42.3301 7.66921C42.2851 7.55972 42.2191 7.46023 42.1358 7.37645C42.0525 7.29267 41.9536 7.22624 41.8448 7.18096C41.736 7.13568 41.6193 7.11244 41.5015 7.11258V7.10742Z" fill="#333333"/>
<path d="M43.931 30.784C44.0487 30.7841 44.1654 30.7609 44.2742 30.7156C44.3831 30.6703 44.4819 30.6039 44.5652 30.5201C44.6485 30.4363 44.7145 30.3368 44.7595 30.2273C44.8045 30.1178 44.8276 30.0005 44.8275 29.882V8.01427C44.8275 7.77505 44.7331 7.54564 44.5649 7.37648C44.3968 7.20733 44.1687 7.1123 43.931 7.1123C43.6932 7.1123 43.4651 7.20733 43.297 7.37648C43.1289 7.54564 43.0344 7.77505 43.0344 8.01427V29.882C43.0343 30.0005 43.0574 30.1178 43.1024 30.2273C43.1474 30.3368 43.2134 30.4363 43.2967 30.5201C43.38 30.6039 43.4789 30.6703 43.5877 30.7156C43.6965 30.7609 43.8132 30.7841 43.931 30.784Z" fill="#333333"/>
<path d="M8.06896 0H0.896552C0.658771 0 0.43073 0.0950278 0.262594 0.264179C0.0944576 0.43333 0 0.662748 0 0.901964V8.11768C0 8.35689 0.0944576 8.58631 0.262594 8.75546C0.43073 8.92461 0.658771 9.01964 0.896552 9.01964C1.13433 9.01964 1.36237 8.92461 1.53051 8.75546C1.69865 8.58631 1.7931 8.35689 1.7931 8.11768V1.80393H8.06896C8.30675 1.80393 8.53479 1.7089 8.70292 1.53975C8.87106 1.3706 8.96552 1.14118 8.96552 0.901964C8.96552 0.662748 8.87106 0.43333 8.70292 0.264179C8.53479 0.0950278 8.30675 0 8.06896 0Z" fill="#333333"/>
<path d="M8.06897 36.1962H1.7931V29.8824C1.7931 29.6432 1.69865 29.4138 1.53051 29.2446C1.36237 29.0755 1.13433 28.9805 0.896552 28.9805C0.658772 28.9805 0.43073 29.0755 0.262594 29.2446C0.0944581 29.4138 5.86894e-07 29.6432 5.86894e-07 29.8824V37.0982C-0.000134244 37.2166 0.0229639 37.334 0.0679721 37.4435C0.11298 37.553 0.179015 37.6525 0.262294 37.7362C0.345573 37.82 0.444462 37.8865 0.553297 37.9317C0.662133 37.977 0.778778 38.0003 0.896552 38.0001H8.06897C8.30675 38.0001 8.53479 37.9051 8.70292 37.7359C8.87106 37.5668 8.96552 37.3374 8.96552 37.0982C8.96552 36.8589 8.87106 36.6295 8.70292 36.4604C8.53479 36.2912 8.30675 36.1962 8.06897 36.1962Z" fill="#333333"/>
<path d="M51.1034 5.90436e-07H43.931C43.6932 5.90436e-07 43.4652 0.0950284 43.297 0.264179C43.1289 0.43333 43.0344 0.662749 43.0344 0.901964C43.0344 1.14118 43.1289 1.3706 43.297 1.53975C43.4652 1.7089 43.6932 1.80393 43.931 1.80393H50.2068V8.11768C50.2068 8.35689 50.3013 8.58631 50.4694 8.75546C50.6376 8.92461 50.8656 9.01964 51.1034 9.01964C51.3412 9.01964 51.5692 8.92461 51.7374 8.75546C51.9055 8.58631 51.9999 8.35689 51.9999 8.11768V0.901964C52.0001 0.783479 51.977 0.66613 51.932 0.556637C51.887 0.447145 51.8209 0.34766 51.7377 0.263877C51.6544 0.180095 51.5555 0.113662 51.4466 0.0683824C51.3378 0.0231025 51.2212 -0.000135054 51.1034 5.90436e-07Z" fill="#333333"/>
<path d="M51.1034 28.9805C50.8656 28.9805 50.6376 29.0755 50.4694 29.2446C50.3013 29.4138 50.2068 29.6432 50.2068 29.8824V36.1962H43.931C43.6932 36.1962 43.4652 36.2912 43.297 36.4604C43.1289 36.6295 43.0344 36.8589 43.0344 37.0982C43.0344 37.3374 43.1289 37.5668 43.297 37.7359C43.4652 37.9051 43.6932 38.0001 43.931 38.0001H51.1034C51.2212 38.0003 51.3378 37.977 51.4466 37.9317C51.5555 37.8865 51.6544 37.82 51.7377 37.7362C51.8209 37.6525 51.887 37.553 51.932 37.4435C51.977 37.334 52.0001 37.2166 51.9999 37.0982V29.8824C52.0001 29.7639 51.977 29.6466 51.932 29.5371C51.887 29.4276 51.8209 29.3281 51.7377 29.2443C51.6544 29.1606 51.5555 29.0941 51.4466 29.0488C51.3378 29.0036 51.2212 28.9803 51.1034 28.9805Z" fill="#333333"/>
</g>
<defs>
<clipPath id="clip0_1564_2562">
<rect width="52" height="38" fill="white"/>
</clipPath>
</defs>
</svg>
