<svg width="55" height="51" viewBox="0 0 55 51" fill="none" xmlns="http://www.w3.org/2000/svg">
<g style="mix-blend-mode:luminosity" clip-path="url(#clip0_1315_11691)">
<path d="M9.48826 31.1756C9.48826 31.1756 14.2592 23.7698 18.1725 22.4223C18.1725 22.4223 31.5312 21.2257 38.5429 22.4223C38.5429 22.4223 45.9083 31.7146 49.5321 32.2213C49.5998 32.0085 49.7106 31.8122 49.8575 31.6446C50.0045 31.477 50.1843 31.3419 50.3858 31.2477C50.5873 31.1535 50.806 31.1023 51.0281 31.0973C51.2502 31.0923 51.4709 31.1337 51.6764 31.2188C53.306 31.8117 55.4181 33.7736 54.2816 36.4686C53.1452 39.1636 52.8879 39.2822 48.921 38.2473C49.2367 38.4597 49.5073 38.7331 49.7169 39.0517C49.9264 39.3702 50.0709 39.7276 50.1417 40.1028C50.2126 40.478 50.2084 40.8637 50.1295 41.2373C50.0507 41.611 49.8986 41.9651 49.6822 42.279C48.2563 44.9848 41.6949 51.097 28.4756 50.2023C15.2563 49.3075 9.28457 46.7743 9.09158 39.8104C9.09158 39.8104 4.80308 40.5542 4.80308 37.6544C4.80308 34.7546 4.24558 32.0919 6.6793 32.1997C9.11303 32.3075 9.2524 33.5365 9.2524 33.5365L8.55552 32.1027L9.48826 31.1756Z" fill="#F7E2C4"/>
<path d="M32.8071 0.905503C32.8071 0.905503 10.4641 2.06974 1.26522 20.2124C1.26522 20.2124 -2.4765 32.7926 13.3373 23.2524C29.1512 13.7121 50.4865 21.409 51.5264 24.8047C51.5264 24.8047 58.6775 12.052 46.4017 3.41723C44.4963 1.94429 42.2697 0.948311 39.9059 0.511568C37.5421 0.0748253 35.1088 0.209856 32.8071 0.905503Z" fill="#323836"/>
<path d="M38.9932 22.0666C38.9932 22.0666 43.7641 31.1541 49.7144 31.9518C49.7144 31.9518 50.0575 30.8738 50.5292 30.7876C51.001 30.7013 50.8294 26.2169 50.2505 25.9905C49.6715 25.7641 44.6004 21.8726 38.9932 22.0666Z" fill="#606060"/>
<path d="M19.4805 21.7755L20.0058 20.6221L24.7124 17.9379C24.7124 17.9379 46.8089 18.3906 50.9366 25.1065L51.0545 26.1845C51.0545 26.1845 31.0273 18.272 19.4805 21.7648" fill="#282828"/>
<path d="M46.187 10.8338C46.187 10.8338 43.571 10.4673 43.571 14.0678C43.571 17.6683 48.2884 17.3018 48.4707 14.9518C48.6529 12.6017 47.1519 10.3811 46.187 10.8338Z" fill="#C6B366"/>
<path d="M9.03803 26.2707C9.03803 26.2707 13.3265 23.3709 15.6423 23.2523C15.6423 23.2523 8.31971 30.3024 8.13745 32.232C8.13745 32.232 7.92303 31.4559 7.30119 31.499C6.67936 31.5421 9.03803 26.2707 9.03803 26.2707Z" fill="#606060"/>
<path d="M4.64236 28.1034C3.73505 28.0693 2.85661 27.7737 2.11154 27.252C1.36647 26.7303 0.786153 26.0043 0.439633 25.1605C-0.557443 22.8212 -0.718266 17.6792 9.38115 9.48642C19.4806 1.29365 31.1453 0.0647363 37.2564 5.65308e-05C39.8464 -0.07498 42.4177 0.46355 44.7625 1.57215C47.1073 2.68074 49.1598 4.32832 50.7544 6.38179C52.3885 8.61964 53.3889 11.2609 53.6492 14.0248C54.7213 24.2442 52.0517 25.2144 51.5049 25.3006C51.399 25.322 51.2894 25.3143 51.1875 25.2782C51.0856 25.2422 50.9952 25.1792 50.926 25.0958C50.8616 25.0311 44.3646 17.9918 23.1472 19.3285C21.4962 20.1478 19.4698 21.215 17.3899 22.3254C12.3081 25.0203 7.05464 27.8016 5.06049 28.0711L4.64236 28.1034ZM37.4601 1.26131H37.2886C31.3168 1.32599 19.8665 2.60881 10.1745 10.4674C0.48252 18.326 0.91137 23.0476 1.59753 24.6646C1.85748 25.3338 2.31815 25.9051 2.91563 26.2992C3.51312 26.6933 4.21778 26.8906 4.93184 26.8637C6.70084 26.6373 12.0829 23.7807 16.8324 21.2581C19.7882 19.5582 22.8542 18.06 26.0098 16.7737C29.22 15.948 32.4736 15.3038 35.7554 14.8441C35.8364 14.8318 35.919 14.8358 35.9984 14.8558C36.0779 14.8758 36.1526 14.9113 36.2184 14.9604C36.2841 15.0095 36.3396 15.0711 36.3815 15.1418C36.4235 15.2125 36.4512 15.2908 36.463 15.3723C36.4877 15.538 36.4464 15.7068 36.348 15.842C36.2497 15.9772 36.1022 16.068 35.9377 16.0945C32.7196 16.533 29.5272 17.1447 26.3743 17.9271C43.2496 17.5067 49.8967 22.4547 51.4728 23.8992C51.9552 23.371 53.081 21.3552 52.3626 14.1973C52.1255 11.6556 51.2065 9.22637 49.7038 7.16873C48.2614 5.2934 46.4034 3.78273 44.2777 2.75712C42.152 1.7315 39.8175 1.2193 37.4601 1.26131Z" fill="#212121"/>
<path d="M8.4483 32.3183C8.34427 32.3243 8.24056 32.302 8.14811 32.2536C8.00563 32.1683 7.9022 32.03 7.86009 31.8687C7.81798 31.7074 7.84055 31.536 7.92296 31.3912C9.84484 28.0123 12.4456 25.0729 15.5596 22.7603C18.6736 20.4478 22.2326 18.8127 26.0097 17.9594C26.1741 17.9374 26.3405 17.98 26.4744 18.0785C26.6082 18.1769 26.6991 18.3235 26.728 18.4876C26.7527 18.6533 26.7114 18.8221 26.613 18.9573C26.5147 19.0926 26.3672 19.1833 26.2027 19.2099C22.6301 20.0693 19.268 21.6482 16.3195 23.8513C13.3711 26.0543 10.8976 28.8357 9.04869 32.0273C8.98738 32.129 8.89802 32.2107 8.79144 32.2623C8.68487 32.314 8.56566 32.3334 8.4483 32.3183Z" fill="#212121"/>
<path d="M28.5184 51C19.7163 51 13.6588 49.1674 10.5174 45.5453C9.77374 44.7673 9.19907 43.8423 8.82994 42.829C8.4608 41.8158 8.30527 40.7364 8.37318 39.6595C8.41282 39.5071 8.50725 39.375 8.63822 39.2886C8.76919 39.2022 8.92736 39.1678 9.08213 39.1919C9.23691 39.2161 9.37727 39.2971 9.47605 39.4193C9.57482 39.5415 9.62499 39.6962 9.61684 39.8535C9.58027 40.7558 9.72894 41.6561 10.0536 42.4981C10.3782 43.3401 10.8719 44.1059 11.5038 44.7476C13.573 47.1084 18.3761 49.9328 29.5155 49.728C41.2016 49.48 45.9833 46.494 47.9346 44.1224C48.4701 43.5217 48.8762 42.816 49.1271 42.0498C49.378 41.2836 49.4685 40.4734 49.3927 39.6703C49.3827 39.5156 49.4293 39.3626 49.5237 39.24C49.618 39.1174 49.7537 39.0337 49.9051 39.0046C50.0565 38.9755 50.2132 39.003 50.3459 39.0819C50.4786 39.1608 50.578 39.2857 50.6256 39.4331C50.7391 40.4092 50.649 41.3985 50.361 42.3376C50.0731 43.2768 49.5935 44.1453 48.9531 44.8878C45.8761 48.7254 39.304 50.7844 29.5369 50.9892L28.5184 51Z" fill="#212121"/>
<path d="M7.61213 40.7267C6.90138 40.7163 6.2102 40.4909 5.62869 40.0799C4.98823 39.5737 4.48536 38.9131 4.16672 38.1592C3.84809 37.4054 3.72403 36.5828 3.80608 35.7679C3.79698 34.9879 3.98988 34.219 4.36583 33.5367C4.74178 32.8544 5.28784 32.2822 5.95033 31.8764C6.3026 31.6735 6.6964 31.5544 7.10154 31.5282C7.50667 31.502 7.91239 31.5695 8.28757 31.7254C9.93865 32.4369 10.6462 34.7223 10.7213 34.9594C10.7682 35.1195 10.7499 35.2918 10.6705 35.4384C10.5911 35.585 10.457 35.6938 10.2978 35.741C10.1386 35.7881 9.96723 35.7698 9.82146 35.6899C9.67569 35.6101 9.56743 35.4753 9.52051 35.3152C9.25499 34.318 8.64252 33.4498 7.79439 32.8681C7.58924 32.7882 7.36867 32.7564 7.14946 32.7751C6.93024 32.7938 6.71815 32.8624 6.52929 32.9759C6.06085 33.2813 5.67795 33.7021 5.41708 34.1984C5.15622 34.6947 5.02608 35.2499 5.03904 35.811C4.96701 36.4123 5.04383 37.0221 5.26267 37.5863C5.48151 38.1505 5.83558 38.6516 6.29342 39.045C6.75159 39.3813 7.32362 39.5213 7.88425 39.4344C8.44488 39.3476 8.94843 39.0409 9.28464 38.5815C9.38326 38.4464 9.53093 38.3559 9.69556 38.3296C9.86018 38.3034 10.0284 38.3435 10.1638 38.4414C10.23 38.4895 10.2861 38.5502 10.3289 38.6202C10.3717 38.6901 10.4004 38.7678 10.4134 38.8489C10.4263 38.93 10.4232 39.0129 10.4043 39.0927C10.3854 39.1726 10.351 39.248 10.3032 39.3145C9.99127 39.7405 9.58669 40.0892 9.1203 40.334C8.6539 40.5787 8.13805 40.713 7.61213 40.7267Z" fill="#212121"/>
<path d="M51.1832 39.7997C50.6523 39.7843 50.1319 39.6472 49.6618 39.3987C49.1917 39.1502 48.7843 38.797 48.4707 38.3659C48.4119 38.2996 48.3676 38.2216 48.3406 38.137C48.3136 38.0523 48.3046 37.963 48.3141 37.8746C48.3235 37.7863 48.3513 37.7009 48.3956 37.624C48.4399 37.5471 48.4998 37.4804 48.5713 37.4282C48.6428 37.376 48.7244 37.3394 48.8108 37.3208C48.8972 37.3022 48.9866 37.3021 49.073 37.3204C49.1595 37.3386 49.2413 37.3749 49.3129 37.4269C49.3846 37.4789 49.4447 37.5454 49.4892 37.6221C49.8255 38.0815 50.329 38.3882 50.8896 38.4751C51.4503 38.5619 52.0223 38.4219 52.4805 38.0856C52.9402 37.6941 53.2949 37.193 53.5122 36.628C53.7294 36.063 53.8023 35.4523 53.7241 34.8517C53.7435 34.2906 53.6172 33.7342 53.3578 33.2371C53.0984 32.74 52.7147 32.3193 52.2446 32.0165C52.0572 31.8998 51.8454 31.8283 51.6259 31.8077C51.4064 31.7871 51.1851 31.818 50.9795 31.8979C50.1187 32.4955 49.5048 33.3888 49.2534 34.4097C49.2314 34.4902 49.1934 34.5654 49.1415 34.6306C49.0897 34.6959 49.0252 34.7498 48.952 34.7892C48.8787 34.8285 48.7983 34.8524 48.7155 34.8595C48.6328 34.8665 48.5495 34.8565 48.4707 34.8301C48.3919 34.8079 48.3183 34.77 48.2543 34.7186C48.1903 34.6672 48.1372 34.6035 48.0982 34.5311C48.0592 34.4587 48.035 34.3791 48.0272 34.2972C48.0194 34.2152 48.028 34.1325 48.0526 34.0539C48.1277 33.7952 48.8353 31.4991 50.4863 30.8199C50.8622 30.6672 51.2675 30.6014 51.6721 30.6275C52.0766 30.6537 52.4702 30.771 52.8236 30.9709C53.4876 31.3777 54.0347 31.9516 54.4107 32.6359C54.7868 33.3203 54.9788 34.0914 54.9678 34.8732C55.0478 35.688 54.9229 36.5099 54.6044 37.2633C54.2859 38.0168 53.7841 38.6777 53.1452 39.1852C52.5633 39.575 51.8823 39.7883 51.1832 39.7997Z" fill="#212121"/>
<path d="M7.29038 32.1674C7.12627 32.1675 6.96854 32.1034 6.85051 31.9888C6.73248 31.8741 6.66339 31.7178 6.65783 31.5529C6.64586 29.1859 7.56724 26.9105 9.22021 25.2251C9.28004 25.1685 9.35038 25.1242 9.42722 25.0949C9.50405 25.0657 9.58588 25.0519 9.66801 25.0544C9.75014 25.0569 9.83098 25.0756 9.90591 25.1095C9.98084 25.1434 10.0484 25.1919 10.1047 25.252C10.161 25.3122 10.205 25.3829 10.2341 25.4602C10.2633 25.5374 10.277 25.6197 10.2745 25.7023C10.272 25.7849 10.2534 25.8662 10.2196 25.9415C10.1859 26.0168 10.1377 26.0848 10.0779 26.1414C8.68653 27.5892 7.89997 29.5182 7.88005 31.5314C7.88296 31.6982 7.82052 31.8596 7.7062 31.9806C7.59188 32.1016 7.43482 32.1725 7.26893 32.1782L7.29038 32.1674Z" fill="#212121"/>
<path d="M50.5184 27.1655C50.3639 27.1657 50.2149 27.108 50.1003 27.0038C41.8985 19.5225 18.0652 22.4762 17.8293 22.5085C17.7466 22.5222 17.6619 22.5186 17.5805 22.4979C17.4992 22.4773 17.423 22.44 17.3566 22.3884C17.2902 22.3368 17.2351 22.2721 17.1947 22.1981C17.1543 22.1242 17.1295 22.0427 17.1217 21.9587C17.1113 21.8765 17.1172 21.7931 17.1391 21.7132C17.161 21.6333 17.1984 21.5585 17.2493 21.4933C17.3002 21.4281 17.3635 21.3738 17.4354 21.3334C17.5074 21.293 17.5866 21.2674 17.6685 21.258C18.6549 21.1287 41.4483 18.3043 50.4541 25.6347C50.9195 25.037 51.3185 24.3899 51.6442 23.7051C51.6757 23.6232 51.7237 23.5488 51.7852 23.4866C51.8467 23.4243 51.9203 23.3755 52.0015 23.3432C52.0827 23.3109 52.1696 23.2959 52.2568 23.2991C52.344 23.3022 52.4297 23.3235 52.5083 23.3615C52.587 23.3996 52.6569 23.4536 52.7138 23.5202C52.7707 23.5867 52.8133 23.6644 52.8389 23.7483C52.8644 23.8322 52.8725 23.9205 52.8624 24.0077C52.8524 24.0949 52.8246 24.179 52.7806 24.2549C52.3243 25.2516 51.7127 26.1687 50.9687 26.9714C50.9114 27.0338 50.8417 27.0833 50.7641 27.1167C50.6866 27.1502 50.6028 27.1668 50.5184 27.1655Z" fill="#212121"/>
<path d="M17.5829 31.7362C17.4802 31.7359 17.3797 31.706 17.2934 31.65C17.2308 31.6124 17.1763 31.5626 17.1331 31.5035C17.0899 31.4444 17.0589 31.3772 17.0419 31.3059C17.0249 31.2346 17.0223 31.1605 17.0342 31.0882C17.0461 31.0158 17.0723 30.9466 17.1112 30.8846C19.1482 27.6506 23.4045 28.3189 25.3665 29.149C25.4328 29.1772 25.4928 29.2183 25.5432 29.2699C25.5937 29.3215 25.6335 29.3826 25.6603 29.4497C25.6872 29.5168 25.7007 29.5886 25.7 29.6609C25.6992 29.7333 25.6843 29.8047 25.656 29.8713C25.5991 30.0058 25.4921 30.1127 25.3579 30.1691C25.2237 30.2255 25.0729 30.2269 24.9377 30.1731C24.7447 30.0869 20.0917 28.1788 18.0439 31.4775C17.995 31.5562 17.9271 31.6212 17.8465 31.6665C17.7659 31.7117 17.6752 31.7357 17.5829 31.7362Z" fill="#212121"/>
<path d="M23.8334 32.0273C23.8334 32.0273 21.8607 31.7901 21.8285 34.6361C21.7964 37.482 23.6083 37.5251 23.6083 37.5251C23.6083 37.5251 25.388 37.3742 25.3773 34.7546C25.3559 32.3076 23.8334 32.0273 23.8334 32.0273Z" fill="#212121"/>
<path d="M40.2476 31.7362C40.154 31.7346 40.0622 31.7103 39.98 31.6652C39.8979 31.6202 39.8278 31.5557 39.7758 31.4775C37.7281 28.1788 33.0858 30.0869 32.8821 30.1731C32.7466 30.2242 32.5969 30.2214 32.4634 30.1653C32.3299 30.1092 32.2227 30.0041 32.1637 29.8713C32.1358 29.8041 32.1214 29.732 32.1213 29.6592C32.1213 29.5863 32.1357 29.5142 32.1636 29.447C32.1916 29.3798 32.2325 29.3189 32.284 29.2677C32.3356 29.2166 32.3967 29.1762 32.4639 29.149C34.4152 28.319 38.6715 27.6075 40.7086 30.8846C40.7852 31.0094 40.8102 31.1594 40.7782 31.3025C40.7461 31.4456 40.6595 31.5703 40.537 31.65C40.45 31.7044 40.35 31.7342 40.2476 31.7362Z" fill="#212121"/>
<path d="M33.9972 32.0273C33.9972 32.0273 35.9699 31.7901 35.9913 34.6361C36.0128 37.482 34.2223 37.5251 34.2223 37.5251C34.2223 37.5251 32.4319 37.3742 32.4533 34.7546C32.464 32.3076 33.9972 32.0273 33.9972 32.0273Z" fill="#212121"/>
<path d="M50.304 32.2536C50.2333 32.2688 50.1603 32.2688 50.0896 32.2536C49.9321 32.1975 49.8031 32.0809 49.7307 31.9294C49.6584 31.7779 49.6487 31.6038 49.7036 31.4451C50.7757 28.3728 49.9931 26.896 49.9824 26.8852C49.9 26.7405 49.8774 26.569 49.9195 26.4077C49.9616 26.2464 50.065 26.1082 50.2075 26.0228C50.3472 25.9386 50.5143 25.9129 50.6726 25.9512C50.831 25.9895 50.9681 26.0887 51.0545 26.2276C51.0545 26.3139 52.1909 28.168 50.8937 31.8655C50.846 31.9826 50.7641 32.0824 50.6588 32.1517C50.5535 32.221 50.4298 32.2565 50.304 32.2536Z" fill="#212121"/>
<path d="M49.7465 32.48C49.6686 32.4946 49.5886 32.4946 49.5106 32.48C39.7758 28.4807 38.5857 22.5517 38.4892 22.2822C38.4592 22.2004 38.4463 22.1132 38.4512 22.0261C38.4562 21.9391 38.4788 21.8539 38.5179 21.7761C38.5569 21.6982 38.6115 21.6292 38.6781 21.5734C38.7448 21.5176 38.8222 21.4762 38.9054 21.4518C38.9887 21.4273 39.076 21.4204 39.1621 21.4313C39.2481 21.4422 39.3311 21.4709 39.4056 21.5154C39.4802 21.5599 39.5449 21.6194 39.5957 21.6901C39.6464 21.7608 39.6822 21.8413 39.7007 21.9265C39.7007 21.9911 40.8372 27.5428 49.9824 31.2619C50.1139 31.3199 50.2219 31.4213 50.2885 31.5492C50.3551 31.6771 50.3765 31.8241 50.349 31.9658C50.3216 32.1076 50.247 32.2357 50.1375 32.3292C50.028 32.4226 49.8901 32.4758 49.7465 32.48Z" fill="#212121"/>
<path d="M28.1863 38.948C28.097 38.951 28.0102 38.9189 27.9441 38.8585C27.878 38.7981 27.838 38.7142 27.8325 38.6246C27.788 38.0157 27.9715 37.412 28.3471 36.9322C28.4853 36.7868 28.6519 36.6716 28.8363 36.5937C29.0208 36.5158 29.2192 36.4769 29.4192 36.4794C29.6193 36.4763 29.8179 36.5149 30.0025 36.5928C30.187 36.6707 30.3535 36.7863 30.4913 36.9322C30.8602 37.3868 31.0475 37.9633 31.0167 38.5492C31.0167 38.7432 30.8344 38.8618 30.6522 38.8941C30.5574 38.8886 30.4685 38.846 30.4044 38.7756C30.3403 38.7051 30.3061 38.6123 30.3091 38.5168C30.3251 38.1297 30.2077 37.749 29.9767 37.4388C29.8998 37.3615 29.8076 37.3013 29.706 37.2623C29.6043 37.2233 29.4956 37.2063 29.387 37.2125C29.2769 37.2068 29.1667 37.2239 29.0634 37.2629C28.9602 37.3018 28.8659 37.3617 28.7867 37.4388C28.5516 37.7751 28.4381 38.1822 28.465 38.5923C28.4679 38.639 28.4616 38.6859 28.4465 38.7302C28.4313 38.7745 28.4076 38.8153 28.3768 38.8503C28.3459 38.8854 28.3084 38.914 28.2665 38.9344C28.2246 38.9549 28.1792 38.9669 28.1327 38.9696L28.1863 38.948Z" fill="#212121"/>
<path d="M46.4122 17.1616C45.9551 17.1508 45.5013 17.0819 45.0613 16.9568C44.6562 16.8736 44.2759 16.6968 43.9503 16.4405C43.6247 16.1843 43.3627 15.8554 43.1851 15.48C42.6598 14.2403 43.2494 12.6341 43.8498 11.5022C44.0573 11.1099 44.3657 10.7809 44.7429 10.5495C45.1202 10.3182 45.5523 10.193 45.9941 10.187C46.4487 10.1909 46.8936 10.3194 47.2809 10.5588C47.6682 10.7981 47.9832 11.1392 48.1919 11.5453C48.4648 12.0899 48.6597 12.6706 48.7709 13.2701C48.7709 13.3455 49.1997 15.4261 48.0418 16.558C47.5931 16.9575 47.0115 17.1729 46.4122 17.1616ZM46.0262 11.1356C45.7501 11.1312 45.4782 11.2046 45.2413 11.3475C45.0045 11.4903 44.8122 11.697 44.6861 11.9441C44.3692 12.398 44.1493 12.9131 44.0405 13.4567C43.9316 14.0004 43.936 14.5608 44.0535 15.1027C44.1772 15.3452 44.3546 15.5559 44.5721 15.7185C44.7896 15.8811 45.0414 15.9913 45.3079 16.0405C45.651 16.1949 46.0273 16.2601 46.402 16.2299C46.7767 16.1998 47.1378 16.0753 47.4522 15.868C48.2241 15.1458 47.9025 13.4641 47.9025 13.4426C47.798 12.9341 47.6286 12.4413 47.3986 11.9765C47.2744 11.7208 47.0804 11.506 46.8393 11.3571C46.5982 11.2082 46.3199 11.1314 46.037 11.1356H46.0262Z" fill="#212121"/>
<path d="M29.6979 43.0336C27.1017 43.0293 24.5451 42.3931 22.2466 41.1794C22.1187 41.105 22.0254 40.9826 21.9872 40.8391C21.949 40.6956 21.9691 40.5427 22.0429 40.414C22.0794 40.3516 22.1278 40.2971 22.1853 40.2535C22.2428 40.21 22.3083 40.1783 22.3781 40.1603C22.4478 40.1422 22.5204 40.1382 22.5916 40.1485C22.6629 40.1587 22.7315 40.183 22.7934 40.22C22.8577 40.22 29.4727 43.9822 36.2914 40.22C36.4202 40.1528 36.5698 40.1376 36.7093 40.1777C36.8489 40.2178 36.9679 40.3101 37.0419 40.4356C37.0778 40.4991 37.1007 40.5692 37.1094 40.6418C37.118 40.7143 37.1122 40.7879 37.0922 40.8581C37.0722 40.9284 37.0386 40.994 36.9931 41.051C36.9476 41.108 36.8913 41.1553 36.8275 41.1902C34.6467 42.4072 32.192 43.0419 29.6979 43.0336Z" fill="#212121"/>
<path opacity="0.1" d="M19.4806 43.2708C21.8668 43.2708 23.8012 41.3258 23.8012 38.9265C23.8012 36.5272 21.8668 34.5822 19.4806 34.5822C17.0943 34.5822 15.1599 36.5272 15.1599 38.9265C15.1599 41.3258 17.0943 43.2708 19.4806 43.2708Z" fill="#F42F7F"/>
<path opacity="0.1" d="M38.9933 43.3031C41.3795 43.3031 43.3139 41.3581 43.3139 38.9588C43.3139 36.5595 41.3795 34.6145 38.9933 34.6145C36.607 34.6145 34.6726 36.5595 34.6726 38.9588C34.6726 41.3581 36.607 43.3031 38.9933 43.3031Z" fill="#F42F7F"/>
</g>
<defs>
<clipPath id="clip0_1315_11691">
<rect width="55" height="51" fill="white"/>
</clipPath>
</defs>
</svg>
