<svg width="16" height="16" viewBox="0 0 16 16" fill="none" xmlns="http://www.w3.org/2000/svg">
<path d="M13.6478 1.61438V5.38562H9.87656" stroke="#666666" stroke-width="1.2" stroke-linecap="round" stroke-linejoin="round"/>
<path d="M14.5088 9.09927C14.5636 8.77247 14.3431 8.4631 14.0163 8.40827C13.6895 8.35344 13.3801 8.57392 13.3253 8.90073L14.5088 9.09927ZM8 13.4C5.01766 13.4 2.6 10.9823 2.6 8H1.4C1.4 11.6451 4.35492 14.6 8 14.6V13.4ZM2.6 8C2.6 5.01766 5.01766 2.6 8 2.6V1.4C4.35492 1.4 1.4 4.35492 1.4 8H2.6ZM8 2.6C10.1194 2.6 11.9547 3.82084 12.839 5.60035L13.9136 5.06631C12.8344 2.89458 10.5923 1.4 8 1.4V2.6ZM13.3253 8.90073C12.8969 11.4542 10.6751 13.4 8 13.4V14.6C11.2709 14.6 13.985 12.2212 14.5088 9.09927L13.3253 8.90073Z" fill="#666666"/>
</svg>
