<svg width="74" height="24" viewBox="0 0 74 24" fill="none" xmlns="http://www.w3.org/2000/svg">
<path d="M25.917 1.37079H16.815L13.7004 13.6376H13.5795L10.4346 1.37079H1V22.6292H7.13853V14.9663C7.13853 11.7528 6.59423 8.26124 6.59423 8.26124H6.71519L10.5858 22.6292H15.8172L19.6575 8.23034H19.7785C19.7785 8.23034 19.2946 11.7528 19.2946 14.9663V22.6292H25.917V1.37079Z" fill="#006C36"/>
<path d="M35.8607 22.4129V1.58708C31.476 2.88483 29.0267 6.4073 29.0267 12C29.0267 17.5927 31.476 21.1152 35.8607 22.4129ZM38.3684 6.16011C38.6406 6.12921 38.943 6.09832 39.2454 6.09832C42.1786 6.09832 43.6603 8.10674 43.6603 11.0112V12.9888C43.6603 15.8933 42.1786 17.9017 39.2454 17.9017C38.943 17.9017 38.6406 17.8708 38.3684 17.8399V22.9691C38.6406 23 38.943 23 39.2454 23C46.3516 23 50.4943 19.2612 50.4943 12C50.4943 4.73876 46.3516 1 39.2454 1H38.3684V6.16011Z" fill="#006C36"/>
<path d="M64.0513 1.37079H58.6385L51.0485 22.6292H57.8826L64.0513 1.37079ZM66.045 3.16292L63.1723 13.1433L63.6561 14.8736H62.6582L61.2672 19.632H65.0471L65.924 22.6292H73L66.045 3.16292Z" fill="#006C36"/>
<path d="M25.917 1.37079H16.815L13.7004 13.6376H13.5795L10.4346 1.37079H1V22.6292H7.13853V14.9663C7.13853 11.7528 6.59423 8.26124 6.59423 8.26124H6.71519L10.5858 22.6292H15.8172L19.6575 8.23034H19.7785C19.7785 8.23034 19.2946 11.7528 19.2946 14.9663V22.6292H25.917V1.37079Z" stroke="#666666" stroke-width="0.5" stroke-linejoin="round"/>
<path d="M35.8607 22.4129V1.58708C31.476 2.88483 29.0267 6.4073 29.0267 12C29.0267 17.5927 31.476 21.1152 35.8607 22.4129ZM38.3684 6.16011C38.6406 6.12921 38.943 6.09832 39.2454 6.09832C42.1786 6.09832 43.6603 8.10674 43.6603 11.0112V12.9888C43.6603 15.8933 42.1786 17.9017 39.2454 17.9017C38.943 17.9017 38.6406 17.8708 38.3684 17.8399V22.9691C38.6406 23 38.943 23 39.2454 23C46.3516 23 50.4943 19.2612 50.4943 12C50.4943 4.73876 46.3516 1 39.2454 1H38.3684V6.16011Z" stroke="#666666" stroke-width="0.5" stroke-linejoin="round"/>
<path d="M64.0513 1.37079H58.6385L51.0485 22.6292H57.8826L64.0513 1.37079ZM66.045 3.16292L63.1723 13.1433L63.6561 14.8736H62.6582L61.2672 19.632H65.0471L65.924 22.6292H73L66.045 3.16292Z" stroke="#666666" stroke-width="0.5" stroke-linejoin="round"/>
</svg>
