<svg width="24" height="24" viewBox="0 0 24 24" fill="none" xmlns="http://www.w3.org/2000/svg">
<path fill-rule="evenodd" clip-rule="evenodd" d="M20.1796 10.2934V15.0909H20.1398C20.7094 15.2129 21.2142 15.5485 21.5556 16.032C21.8969 16.5155 22.0502 17.1122 21.9855 17.7055C21.9208 18.2987 21.6428 18.8459 21.2058 19.2401C20.7688 19.6344 20.2042 19.8473 19.6223 19.8373L16.269 19.7862C16.0239 20.639 15.5055 21.3821 14.7976 21.8952C14.0898 22.4083 13.2338 22.6614 12.3683 22.6136C11.5028 22.6614 10.6469 22.4083 9.93898 21.8952C9.2311 21.3821 8.71268 20.639 8.46756 19.7862C8.41604 19.5724 8.38932 19.3531 8.38795 19.1329V18.7654H9.32897V18.7604L15.5529 18.7605V18.7654H16.3487C16.3487 18.7655 16.3487 18.7655 16.3487 18.7655H19.6223C19.9471 18.7363 20.2494 18.5833 20.4697 18.3367C20.6899 18.0902 20.8121 17.7679 20.8121 17.4334C20.8121 17.099 20.6899 16.7767 20.4697 16.5301C20.2494 16.2835 19.9471 16.1306 19.6223 16.1014H19.1646V14.6213V10.2628C19.1696 8.49048 18.5105 6.78395 17.3237 5.49595C16.6804 4.80697 15.9082 4.25835 15.0532 3.88299C14.1983 3.50764 13.2782 3.31328 12.3482 3.31158H11.9104C10.978 3.30934 10.0551 3.50392 9.19914 3.88323C8.34318 4.26253 7.57247 4.81843 6.93494 5.51637C5.75208 6.80954 5.09998 8.52019 5.11393 10.2934V15.0806V16.1014H4.58653C4.26174 16.1306 3.95941 16.2835 3.73916 16.5301C3.51892 16.7767 3.39675 17.099 3.39675 17.4334C3.39675 17.7679 3.51892 18.0902 3.73916 18.3367C3.95941 18.5833 4.26174 18.7363 4.58653 18.7655H8.38777V19.133C8.38914 19.3532 8.41586 19.5724 8.46737 19.7862L4.54672 19.8373C4.23963 19.8373 3.93555 19.7752 3.65184 19.6547C3.36812 19.5341 3.11033 19.3574 2.89319 19.1347C2.67604 18.912 2.50379 18.6475 2.38627 18.3565C2.26875 18.0655 2.20827 17.7535 2.20827 17.4385C2.2064 16.8932 2.38577 16.3634 2.71681 15.9366C3.04784 15.5099 3.51078 15.2115 4.02928 15.0909V10.2934C4.02282 8.54396 4.57614 6.84066 5.60432 5.44486C6.63251 4.04906 8.07877 3.03787 9.72119 2.56645C10.7283 2.31807 13.0916 1.97034 14.4877 2.56645C16.1301 3.03787 17.5763 4.04906 18.6045 5.44486C19.6327 6.84066 20.186 8.54396 20.1796 10.2934ZM15.2342 19.7759H9.50243C9.50244 19.7759 9.50244 19.776 9.50245 19.776C9.74627 20.3396 10.1503 20.8146 10.6616 21.1388C11.173 21.4629 11.7678 21.6212 12.3683 21.5929C12.9688 21.6212 13.5636 21.4629 14.075 21.1388C14.5863 20.8146 14.9903 20.3396 15.2342 19.776C15.2342 19.776 15.2342 19.7759 15.2342 19.7759Z" fill="#212121"/>
</svg>
