<svg width="24" height="24" viewBox="0 0 24 24" fill="none" xmlns="http://www.w3.org/2000/svg">
<path d="M17.1855 6.8124C17.4365 7.06426 17.6716 7.33154 17.8894 7.61268C17.8459 7.55628 17.8021 7.50026 17.7583 7.44386C18.1832 7.99969 18.5366 8.60668 18.8103 9.2506C18.7829 9.18391 18.7539 9.11722 18.7269 9.05053C19.0056 9.71681 19.1954 10.4169 19.2914 11.1328C19.2807 11.0596 19.2704 10.9846 19.262 10.9118C19.3558 11.6328 19.3558 12.3629 19.262 13.084C19.2727 13.0112 19.283 12.9361 19.2914 12.8633C19.1954 13.5791 19.0056 14.2791 18.7269 14.9452C18.7539 14.8785 18.7829 14.8118 18.8103 14.7451C18.5381 15.3898 18.1845 15.997 17.7583 16.5519C17.802 16.4957 17.8457 16.4394 17.8894 16.383C17.4538 16.9463 16.9485 17.452 16.3857 17.888L16.5544 17.7565C15.999 18.1818 15.3924 18.5355 14.7487 18.8091C14.8153 18.782 14.882 18.7527 14.9486 18.7256C14.2828 19.0047 13.583 19.1945 12.8675 19.2904C12.9406 19.2801 13.0157 19.2698 13.0884 19.2614C12.3678 19.3552 11.638 19.3552 10.9174 19.2614C10.9902 19.2717 11.0652 19.282 11.1379 19.2904C10.4226 19.1945 9.72294 19.0046 9.05722 18.7256C9.12388 18.7527 9.19053 18.782 9.25718 18.8091C8.61296 18.536 8.00636 18.1815 7.45221 17.7542L7.62094 17.8857C7.05809 17.4502 6.5527 16.945 6.11686 16.3823L6.24827 16.5511C5.82302 15.9953 5.46957 15.388 5.19629 14.7436C5.22333 14.8103 5.25266 14.877 5.2797 14.9437C5.0008 14.2776 4.81101 13.5776 4.71524 12.8618C4.72553 12.9346 4.73581 13.0097 4.74419 13.0824C4.65043 12.3614 4.65043 11.6313 4.74419 10.9102C4.7339 10.983 4.72362 11.0581 4.71524 11.1313C4.81101 10.4154 5.0008 9.71522 5.2797 9.049C5.25266 9.11569 5.22333 9.18239 5.19629 9.24908C5.46914 8.60488 5.82318 7.99822 6.24979 7.44386L6.11839 7.61268C6.55366 7.04963 7.05854 6.54409 7.62094 6.10815L7.45221 6.23924C8.00792 5.81403 8.61484 5.46041 9.25871 5.18668C9.19205 5.21411 9.1254 5.24308 9.05875 5.27013C9.72452 4.99126 10.4241 4.80137 11.1395 4.70536C11.0667 4.71603 10.9917 4.72632 10.9189 4.7347C11.6396 4.64089 12.3693 4.64089 13.0899 4.7347C13.0172 4.72403 12.9422 4.71374 12.869 4.70536C13.5845 4.80137 14.2842 4.99126 14.9501 5.27013C14.8835 5.24308 14.8168 5.21411 14.7502 5.18668C15.3944 5.45923 16.0012 5.81295 16.5559 6.23924L16.3872 6.10815C16.6682 6.32604 16.9353 6.56124 17.187 6.8124C17.4951 7.1207 18.0596 7.14394 18.3677 6.8124C18.6759 6.48085 18.6968 5.96219 18.3677 5.63293C17.0728 4.34295 15.3748 3.43634 13.5668 3.13604C12.6881 2.99008 11.8049 2.95274 10.9197 3.06744C10.4355 3.12474 9.95648 3.22018 9.48723 3.35288C9.02878 3.48956 8.58116 3.66025 8.14807 3.86354C6.47527 4.63867 5.04851 5.98696 4.14888 7.59401C3.27286 9.16104 2.86342 11.0097 3.04053 12.8001C3.2108 14.6823 3.96692 16.4637 5.20238 17.8933C6.41441 19.2991 8.03313 20.2932 9.83459 20.7381C11.5699 21.1611 13.4464 21.0781 15.1211 20.4424C15.5719 20.2744 16.0093 20.0724 16.4295 19.838C16.8567 19.5913 17.2642 19.3119 17.6483 19.0023C18.3799 18.4154 19.0146 17.717 19.529 16.9326C20.5227 15.4364 21.0392 13.6083 20.9977 11.8119C20.9558 10.0093 20.3769 8.20223 19.3062 6.74533C19.0204 6.35155 18.7057 5.97959 18.3647 5.63255C18.0566 5.32425 17.4887 5.301 17.184 5.63255C16.8793 5.96409 16.8549 6.48276 17.184 6.81392L17.1855 6.8124Z" fill="#006C36"/>
<path d="M15.5663 9.25735L10.7231 14.4607H11.9143L9.73591 12.1133C9.63507 12.0025 9.53193 11.8941 9.43071 11.7825C9.11935 11.448 8.54551 11.4228 8.23954 11.7825C7.93357 12.1422 7.90701 12.7029 8.23954 13.0622L10.4179 15.4096C10.5191 15.5204 10.6223 15.6287 10.7231 15.7404C10.8826 15.9069 11.0963 16 11.3187 16C11.5411 16 11.7547 15.9069 11.9143 15.7404L16.7575 10.5371C17.0692 10.2026 17.0923 9.58607 16.7575 9.25735C16.4226 8.92863 15.8988 8.9001 15.5663 9.25735Z" fill="#006C36"/>
</svg>
