<svg width="24" height="24" viewBox="0 0 24 24" fill="none" xmlns="http://www.w3.org/2000/svg">
<g clip-path="url(#clip0_834_9347)">
<path d="M16.4489 0.912164C18.8213 0.838478 20.82 2.76881 20.8957 5.2069C20.9715 7.64499 19.0964 9.69564 16.724 9.76932C15.8045 9.79778 14.9001 9.52048 14.1453 8.97868L8.11579 15.5778L10.3114 17.6983C10.3794 17.7565 10.4351 17.8283 10.475 17.9095C10.515 17.9906 10.5383 18.0792 10.5437 18.1699C10.549 18.2606 10.5361 18.3514 10.5059 18.4368C10.4757 18.5221 10.4288 18.6002 10.3681 18.6661C10.3073 18.732 10.2341 18.7844 10.1528 18.82C10.0715 18.8557 9.984 18.8738 9.89559 18.8733C9.80718 18.8728 9.71978 18.8537 9.63878 18.8171C9.55779 18.7805 9.48493 18.7273 9.42469 18.6607L7.22869 16.5402L6.02992 17.859L8.22554 19.9795C8.2932 20.0378 8.34855 20.1097 8.3882 20.1908C8.42784 20.2718 8.45094 20.3603 8.45607 20.4509C8.4612 20.5414 8.44826 20.632 8.41804 20.7171C8.38781 20.8022 8.34095 20.8801 8.28033 20.9459C8.2197 21.0116 8.14661 21.0639 8.06553 21.0995C7.98446 21.1352 7.89712 21.1533 7.8089 21.153C7.72067 21.1526 7.63342 21.1337 7.55251 21.0974C7.47161 21.0611 7.39876 21.0082 7.33844 20.9419L4.67075 18.3654C4.54708 18.2448 4.47465 18.079 4.46922 17.9041C4.46378 17.7291 4.52578 17.5591 4.64173 17.4311L13.2001 8.0708C12.6302 7.32868 12.3066 6.41873 12.2768 5.4746C12.2011 3.03651 14.0765 0.985849 16.4489 0.912164ZM16.4902 2.24074C15.8936 2.25927 15.316 2.45919 14.8305 2.81523C14.345 3.17127 13.9734 3.66744 13.7627 4.24098C13.552 4.81452 13.5116 5.43969 13.6467 6.03741C13.7818 6.63514 14.0862 7.17859 14.5216 7.59903C14.9569 8.01947 15.5035 8.29802 16.0924 8.39946C16.6813 8.5009 17.2859 8.42067 17.8298 8.16892C18.3737 7.91717 18.8324 7.5052 19.1481 6.98511C19.4637 6.46502 19.622 5.86018 19.6029 5.24705C19.5916 4.83953 19.5019 4.4382 19.3391 4.06617C19.1763 3.69415 18.9435 3.35876 18.6542 3.07934C18.3649 2.79991 18.0247 2.58197 17.6533 2.43804C17.2819 2.29412 16.8866 2.22706 16.4902 2.24074Z" fill="#212121" stroke="#F8F8F8" stroke-width="0.15"/>
</g>
<defs>
<clipPath id="clip0_834_9347">
<rect width="16.8127" height="19.9651" fill="white" transform="matrix(-0.999518 0.0310444 0.0310444 0.999518 20.7582 0.77832)"/>
</clipPath>
</defs>
</svg>
