<svg width="28" height="28" viewBox="0 0 28 28" fill="none" xmlns="http://www.w3.org/2000/svg">
<path d="M11.9863 23.516L11.1092 22.7912L11.7688 21.8996L12.7038 22.6244C12.9601 22.77 13.2612 22.8158 13.5492 22.7531C13.8371 22.6904 14.0918 22.5235 14.2643 22.2845C14.4368 22.0455 14.515 21.7512 14.4838 21.4581C14.4527 21.165 14.3144 20.8938 14.0955 20.6964L11.0512 18.4639L9.63779 20.3847L9.86249 20.5514L9.20289 21.443L8.98544 21.2835L7.53577 23.2043L10.5801 25.4368C10.8348 25.6233 11.1532 25.7009 11.4651 25.6527C11.6196 25.6288 11.7678 25.5747 11.9014 25.4935C12.035 25.4123 12.1513 25.3056 12.2436 25.1795C12.3359 25.0534 12.4025 24.9103 12.4395 24.7584C12.4766 24.6066 12.4833 24.4489 12.4594 24.2945C12.4355 24.14 12.3815 23.9917 12.3003 23.8582C12.2191 23.7246 12.1124 23.6083 11.9863 23.516Z" fill="#EFA239" stroke="#212121" stroke-width="0.5"/>
<g style="mix-blend-mode:multiply">
<g style="mix-blend-mode:multiply">
<path d="M12.2109 19.2974L11.0729 18.4639L9.65952 20.3847L9.88422 20.5514L9.22461 21.443L9.00717 21.2835L7.5575 23.2043L8.61575 23.9799C8.61575 23.9799 11.4716 20.1672 12.2109 19.2974Z" fill="#F4C23C"/>
</g>
</g>
<path d="M7.65904 24.5526C7.56286 24.685 7.44143 24.797 7.30173 24.8822C7.16203 24.9675 7.00683 25.0242 6.8451 25.0491C6.68337 25.074 6.51833 25.0667 6.35945 25.0275C6.20057 24.9883 6.05102 24.9181 5.91943 24.8208C5.78704 24.7246 5.67501 24.6032 5.5898 24.4635C5.50458 24.3238 5.44785 24.1686 5.42292 24.0069C5.39799 23.8451 5.40532 23.6801 5.44451 23.5212C5.4837 23.3623 5.55397 23.2128 5.65125 23.0812L15.1901 10.0921C15.3856 9.82629 15.6784 9.64882 16.0045 9.59855C16.3306 9.54828 16.6633 9.62931 16.9297 9.82388C17.0624 9.92072 17.1745 10.0428 17.2599 10.1831C17.3452 10.3235 17.4019 10.4793 17.4268 10.6416C17.4518 10.8039 17.4444 10.9695 17.4051 11.129C17.3658 11.2885 17.2954 11.4386 17.1979 11.5707L7.65904 24.5526Z" fill="#EFA239" stroke="#212121" stroke-width="0.5"/>
<g style="mix-blend-mode:screen">
<path d="M7.06475 24.125C6.95115 24.2718 6.78561 24.3694 6.60221 24.3977C6.41881 24.426 6.23154 24.3829 6.07898 24.2773C5.93224 24.1637 5.83466 23.9981 5.80634 23.8147C5.77802 23.6313 5.82113 23.444 5.92677 23.2915L11.3341 15.9271C11.4477 15.7804 11.6132 15.6828 11.7966 15.6545C11.98 15.6262 12.1673 15.6693 12.3198 15.7749C12.4666 15.8885 12.5641 16.0541 12.5925 16.2375C12.6208 16.4208 12.5777 16.6081 12.4721 16.7607L7.06475 24.125Z" fill="#F4C23C"/>
<path d="M7.06475 24.125C6.95115 24.2718 6.78561 24.3694 6.60221 24.3977C6.41881 24.426 6.23154 24.3829 6.07898 24.2773C5.93224 24.1637 5.83466 23.9981 5.80634 23.8147C5.77802 23.6313 5.82113 23.444 5.92677 23.2915L11.3341 15.9271C11.4477 15.7804 11.6132 15.6828 11.7966 15.6545C11.98 15.6262 12.1673 15.6693 12.3198 15.7749C12.4666 15.8885 12.5641 16.0541 12.5925 16.2375C12.6208 16.4208 12.5777 16.6081 12.4721 16.7607L7.06475 24.125Z" stroke="#212121" stroke-width="0.5"/>
</g>
<g style="mix-blend-mode:screen">
<path d="M15.2046 10.6792L13.5954 12.8537C13.5134 12.9249 13.4485 13.0136 13.4054 13.1133C13.3623 13.213 13.3421 13.321 13.3464 13.4295C13.3507 13.538 13.3793 13.6442 13.4301 13.7402C13.4809 13.8361 13.5526 13.9195 13.6399 13.984C13.7273 14.0485 13.828 14.0926 13.9347 14.113C14.0413 14.1334 14.1512 14.1295 14.2562 14.1017C14.3611 14.0739 14.4585 14.0229 14.5411 13.9524C14.6237 13.882 14.6894 13.7938 14.7334 13.6945L16.2556 11.6215C15.8644 11.3562 15.5108 11.0393 15.2046 10.6792Z" fill="#F4C23C"/>
<path d="M15.2046 10.6792L13.5954 12.8537C13.5134 12.9249 13.4485 13.0136 13.4054 13.1133C13.3623 13.213 13.3421 13.321 13.3464 13.4295C13.3507 13.538 13.3793 13.6442 13.4301 13.7402C13.4809 13.8361 13.5526 13.9195 13.6399 13.984C13.7273 14.0485 13.828 14.0926 13.9347 14.113C14.0413 14.1334 14.1512 14.1295 14.2562 14.1017C14.3611 14.0739 14.4585 14.0229 14.5411 13.9524C14.6237 13.882 14.6894 13.7938 14.7334 13.6945L16.2556 11.6215C15.8644 11.3562 15.5108 11.0393 15.2046 10.6792Z" stroke="#212121" stroke-width="0.5"/>
</g>
<path d="M21.6266 3.43813C20.8719 2.88436 19.97 2.5668 19.0348 2.52559C18.0997 2.48438 17.1733 2.72137 16.3729 3.2066C15.5724 3.69184 14.9338 4.40352 14.5378 5.25167C14.1417 6.09983 14.0061 7.04636 14.1479 7.9716C14.2898 8.89684 14.7028 9.75924 15.3348 10.4498C15.9668 11.1403 16.7893 11.6279 17.6984 11.851C18.6075 12.0741 19.5623 12.0226 20.4421 11.7031C21.322 11.3836 22.0873 10.8103 22.6414 10.0559C23.0094 9.55478 23.2751 8.98608 23.4233 8.38226C23.5714 7.77844 23.5992 7.15134 23.505 6.53679C23.4107 5.92223 23.1963 5.33227 22.874 4.80059C22.5517 4.26891 22.1279 3.80594 21.6266 3.43813ZM17.3211 9.29482C16.9043 8.99155 16.5869 8.57132 16.4093 8.08745C16.2317 7.60357 16.2018 7.07784 16.3233 6.57693C16.4449 6.07603 16.7125 5.62252 17.0922 5.27392C17.4719 4.92532 17.9466 4.69733 18.456 4.61888C18.9655 4.54042 19.4867 4.61504 19.9537 4.83325C20.4207 5.05146 20.8124 5.40345 21.079 5.84456C21.3457 6.28568 21.4753 6.79605 21.4515 7.31095C21.4277 7.82585 21.2515 8.32207 20.9453 8.73669C20.5371 9.28925 19.9271 9.65803 19.2482 9.76258C18.5692 9.86714 17.8765 9.69899 17.3211 9.29482Z" fill="#EFA239" stroke="#212121" stroke-width="0.5"/>
<g style="mix-blend-mode:multiply">
<path d="M22.0688 3.82959C22.1383 4.01775 22.1581 4.22065 22.1264 4.41872C22.0946 4.61679 22.0124 4.80333 21.8876 4.96034C21.6846 5.24303 21.3874 5.06181 21.1627 4.88785C20.4361 4.23183 19.4805 3.88813 18.5026 3.93107C17.7017 3.99625 16.9505 4.34538 16.3843 4.91553C15.8182 5.48568 15.4743 6.23934 15.4148 7.04062C15.3616 7.69947 15.4593 8.36177 15.7004 8.9772C15.9416 9.59263 16.3198 10.145 16.8064 10.5923C16.8238 10.6094 16.8349 10.6319 16.838 10.6561C16.841 10.6803 16.8359 10.7048 16.8233 10.7257C16.8108 10.7466 16.7916 10.7627 16.7688 10.7714C16.746 10.78 16.721 10.7808 16.6977 10.7735C16.0158 10.4984 15.4149 10.055 14.9509 9.48454C14.487 8.91412 14.1752 8.23538 14.0448 7.51177C14.0917 8.27931 14.3249 9.02387 14.7242 9.68103C15.1235 10.3382 15.677 10.8882 16.3366 11.2834C16.9963 11.6786 17.7423 11.9071 18.5101 11.9492C19.2779 11.9913 20.0444 11.8457 20.7433 11.525C21.4422 11.2042 22.0524 10.7181 22.5212 10.1085C22.99 9.49894 23.3032 8.78434 23.4337 8.02652C23.5642 7.26871 23.5081 6.49051 23.2703 5.75924C23.0325 5.02797 22.6201 4.36565 22.0688 3.82959ZM20.9308 8.7295C20.6275 9.14629 20.2073 9.46361 19.7234 9.64124C19.2395 9.81886 18.7138 9.84878 18.2129 9.7272C17.712 9.60561 17.2585 9.33801 16.9099 8.95832C16.5613 8.57863 16.3333 8.10396 16.2548 7.59452C16.1764 7.08508 16.251 6.56381 16.4692 6.09683C16.6874 5.62985 17.0394 5.2382 17.4805 4.97155C17.9216 4.70489 18.432 4.57525 18.9469 4.59906C19.4618 4.62288 19.958 4.79907 20.3726 5.1053C20.9318 5.50918 21.3078 6.11855 21.4179 6.7995C21.528 7.48044 21.3632 8.17724 20.9598 8.73674L20.9308 8.7295Z" fill="#F4C23C"/>
</g>
<g style="mix-blend-mode:multiply">
<path d="M20.5321 5.09088C20.3942 5.02004 20.2512 4.95948 20.1044 4.90967C20.2077 4.96561 20.307 5.02858 20.4016 5.09812C20.7871 5.38111 21.0872 5.76485 21.2688 6.20721C21.4505 6.64956 21.5068 7.13343 21.4315 7.60567C21.3561 8.07791 21.1521 8.52026 20.8418 8.88415C20.5316 9.24803 20.127 9.51938 19.6726 9.66839C19.2182 9.8174 18.7315 9.83832 18.266 9.72883C17.8005 9.61935 17.3742 9.38371 17.0338 9.04778C16.6935 8.71185 16.4523 8.28863 16.3367 7.82459C16.2211 7.36055 16.2357 6.87364 16.3788 6.41733C16.2026 6.731 16.093 7.07763 16.0568 7.43557C16.0207 7.7935 16.0587 8.15504 16.1685 8.49762C16.7194 10.0995 18.8867 10.6069 20.2711 9.78783C21.9238 8.80205 22.4529 6.10565 20.5321 5.09088Z" fill="#F4C23C"/>
</g>
<path d="M14.8205 15.8763C14.735 15.9814 14.6139 16.0512 14.4802 16.0726C14.3465 16.094 14.2096 16.0654 14.0956 15.9923L11.9211 14.4411C11.8161 14.3557 11.7462 14.2346 11.7248 14.1009C11.7034 13.9672 11.732 13.8303 11.8051 13.7163C11.8468 13.6578 11.8998 13.6083 11.9609 13.5707C12.0221 13.5331 12.0902 13.5081 12.1611 13.4973C12.2321 13.4865 12.3046 13.4901 12.3741 13.5078C12.4437 13.5254 12.509 13.5569 12.5662 13.6003L14.6827 15.1515C14.7976 15.2381 14.8741 15.3662 14.8957 15.5084C14.9174 15.6506 14.8826 15.7957 14.7987 15.9126L14.8205 15.8763Z" fill="#F4C23C" stroke="#212121" stroke-width="0.5"/>
<path d="M22.3298 6.54072C22.0398 6.68569 21.9891 7.41053 21.9963 7.70046C22.0482 8.25843 21.8827 8.8149 21.5343 9.2538C21.1859 9.69269 20.6815 9.98014 20.1263 10.0562C18.8795 10.1722 18.8723 10.8318 19.7421 10.9985C21.6847 11.3681 22.9749 9.17188 22.9894 7.49026C23.0151 7.2387 22.9619 6.98537 22.8372 6.76542C22.7937 6.67119 22.4675 6.46824 22.3298 6.54072Z" fill="#F4C23C"/>
<g style="mix-blend-mode:screen">
<path d="M15.8568 4.29356C16.4134 3.7901 17.067 3.40567 17.7774 3.16386C18.4879 2.92205 19.2403 2.82797 19.9884 2.88737C18.971 2.61831 17.8918 2.7095 16.934 3.14548C15.9761 3.58146 15.1986 4.33539 14.7333 5.27934C14.5384 5.6927 14.4271 6.14056 14.4059 6.59711C14.3848 7.05366 14.4542 7.50988 14.6101 7.93949C14.5277 7.27701 14.5971 6.60446 14.8131 5.97279C15.0291 5.34111 15.386 4.76687 15.8568 4.29356Z" fill="#F4C23C"/>
<path d="M15.8568 4.29356C16.4134 3.7901 17.067 3.40567 17.7774 3.16386C18.4879 2.92205 19.2403 2.82797 19.9884 2.88737C18.971 2.61831 17.8918 2.7095 16.934 3.14548C15.9761 3.58146 15.1986 4.33539 14.7333 5.27934C14.5384 5.6927 14.4271 6.14056 14.4059 6.59711C14.3848 7.05366 14.4542 7.50988 14.6101 7.93949C14.5277 7.27701 14.5971 6.60446 14.8131 5.97279C15.0291 5.34111 15.386 4.76687 15.8568 4.29356Z" stroke="#212121" stroke-width="0.5"/>
</g>
</svg>
