<svg width="24" height="24" viewBox="0 0 24 24" fill="none" xmlns="http://www.w3.org/2000/svg">
<path fill-rule="evenodd" clip-rule="evenodd" d="M21 12C21 16.9706 16.9706 21 12 21C7.02944 21 3 16.9706 3 12C3 7.02944 7.02944 3 12 3C16.9706 3 21 7.02944 21 12ZM12.6922 16.3075C12.6922 16.6899 12.3823 16.9998 11.9999 16.9998C11.6176 16.9998 11.3076 16.6899 11.3076 16.3075C11.3076 15.9252 11.6176 15.6152 11.9999 15.6152C12.3823 15.6152 12.6922 15.9252 12.6922 16.3075ZM12 7.30769C10.4706 7.30769 9.23075 8.54752 9.23075 10.0769H10.6154C10.6154 9.31222 11.2353 8.69231 12 8.69231H12.0653C12.7939 8.69231 13.3846 9.28299 13.3846 10.0116V10.3669C13.3846 10.7226 13.157 11.0384 12.8195 11.1509C11.9167 11.4519 11.3077 12.2968 11.3077 13.2485V14.9231H12.6923V13.2485C12.6923 12.8928 12.9199 12.577 13.2574 12.4645C14.1602 12.1635 14.7692 11.3186 14.7692 10.3669V10.0116C14.7692 8.51829 13.5586 7.30769 12.0653 7.30769H12Z" fill="#999999"/>
</svg>
